<svg xmlns="http://www.w3.org/2000/svg" viewBox="0 0 656.34 879.67">
  <defs>
    <style>
      .cls-1 {
        fill: #7c3314;
      }

      .cls-2 {
        fill: #964526;
      }

      .cls-3 {
        fill: #965626;
      }

      .cls-4 {
        fill: #aa623d;
      }

      .cls-5 {
        fill: #613314;
      }

      .cls-6 {
        fill: #612214;
      }

      .cls-7 {
        fill: #a4c53a;
      }

      .cls-8 {
        fill: #a2b33a;
      }

      .cls-9 {
        fill: #b6db3a;
      }

      .cls-10 {
        fill: #7fac27;
      }

      .cls-11 {
        fill: #89b633;
      }

      .cls-12 {
        fill: #deeebb;
      }

      .cls-13 {
        fill: #c4e2aa;
      }

      .cls-14 {
        fill: #92a16f;
      }

      .cls-15 {
        fill: #f2f8e4;
      }

      .cls-16 {
        fill: #592614;
      }

      .cls-17 {
        fill: #c8dc89;
      }

      .cls-18 {
        fill: #b6d170;
      }

      .cls-19 {
        fill: #313a18;
      }

      .cls-20 {
        fill: #dfd1cc;
      }
    </style>
  </defs>
  <g id="Layer_2" data-name="Layer 2">
    <g id="svg2">
      <g id="g18">
        <path id="path20" class="cls-1" d="M208.61,340.7s9.47-91.21,170.56-96S600.67,394,600.67,459.14s-27.25,122-65.15,165.82c0,0,0,11.86,13,17.77s-4.74,42.64-39.09,35.53L208.61,340.7"/>
      </g>
      <g id="g22">
        <path id="path24" class="cls-2" d="M585.86,399c-1.87,1.1-10.46,6.08-20,3.92,0,0-1-.27-2.06-.58-16.9-5-25.76-17.57-36.47-32.79-13.73-19.51-26.9-38.24-20.07-55.79,6.41-16.49,25.77-21.63,27.22-22,25.23-6.26,50.65,14.08,61.17,34.4,8.45,16.34,6.91,31.95,6.22,38.2-.89,7.92-3,27.12-16,34.64"/>
      </g>
      <path id="path26" class="cls-2" d="M565.43,469.2c-3.92,9.76-20.07,11.13-29.32,9.77-3.64-.54-17.45-2.58-22.61-13.76-5.89-12.76,2.38-31.16,14.62-34.21,10.34-2.59,19.88,6.69,24.87,11.55,3.74,3.64,16.64,16.18,12.44,26.65"/>
      <g id="g28">
        <path id="path30" class="cls-2" d="M461.39,279.07c-2.37,2.55-7.6,7-48.55,6.08-29.43-.62-44.33-1.07-53.37-8-12.52-9.59-23-29.07-16.87-46.31,5.86-16.63,24-22.57,29.46-24.33,16.4-5.36,30.42-1.2,48,4,20.6,6.12,32.85,9.77,40.88,22,8.88,13.57,11,35.22.47,46.5"/>
      </g>
      <g id="g32">
        <path id="path34" class="cls-2" d="M508.24,384.59c-3.2,6.79-10.95,11-18.23,10.87-12.16-.28-21.21-12.84-21.55-24.2-.31-10.13,6.2-22.12,15.16-23.14,7-.79,12.74,5.48,16.07,9.14,2.59,2.85,14.11,15.5,8.55,27.33"/>
      </g>
      <g id="g36">
        <path id="path38" class="cls-2" d="M270.4,275c2.89,8.52-26,29.48-32.81,24.49-3.87-2.84-.11-13.72.13-14.38.55-1.56,3.52-9.93,12.44-13.32,8-3.05,18.7-1.32,20.24,3.21"/>
      </g>
      <path id="path40" class="cls-2" d="M584.55,586c-6.23,4.56-20.67,12.08-30.72,6.48-13.59-7.58-13.33-35.86-1.7-53.15,5.92-8.81,19.73-22.11,32-17.89,13.49,4.61,15.25,26.89,15.43,29.16.24,3,1.49,23.33-15,35.4"/>
      <path id="path42" class="cls-3" d="M511.56,594.45S512.72,639,551.9,656c0,0-2.61,32.08-52.36,23.19s12-84.71,12-84.71"/>
      <g id="g44">
        <path id="path46" class="cls-4" d="M588.49,340.17c-3.2,6.79-11,11-18.23,10.87-12.16-.28-21.21-12.83-21.55-24.21-.31-10.13,6.2-22.12,15.16-23.13,7-.79,12.74,5.48,16.07,9.14,2.59,2.84,14.11,15.49,8.55,27.33"/>
      </g>
      <g id="g48">
        <path id="path50" class="cls-4" d="M404.4,216.1c8.3,2.16,24.3,8.4,23.91,17.31-.52,12-30.76,23.7-55.61,23.37-12.66-.16-34.46-3.59-36.8-13.36-2.56-10.73,20.18-21.22,22.48-22.28,3.08-1.42,24-10.75,46-5"/>
      </g>
      <path id="path52" class="cls-4" d="M526.48,437.63c4-2.46,12.9,1.74,17.53,4.94,1.83,1.26,8.74,6,9.21,11.67.54,6.43-7.58,10.8-14.69,8.36-6-2.07-9.19-8.27-10.86-11.51-1.24-2.44-5.55-10.82-1.19-13.46"/>
      <path id="path54" class="cls-4" d="M566.18,558.87c-4.36,3.65-8.79,4.62-10.86,2.85-3.47-3,.16-13.17,5.77-20.63,5-6.62,12.93-12.89,16.09-11.49,2.48,1.09,1,6.47.18,9.6-.66,2.44-3.6,13.28-11.18,19.67"/>
      <g id="g56">
        <path id="path58" class="cls-4" d="M268.17,276.76c2.23,3.42-20,11.79-25.25,9.8-3-1.13-.09-5.48.09-5.75.43-.63,2.72-4,9.58-5.34,6.15-1.21,14.4-.52,15.58,1.29"/>
      </g>
      <path id="path60" class="cls-5" d="M493,646.56s16.06,6.88,28-16c0,0-1.27,26.57-28,16"/>
      <path id="path62" class="cls-6" d="M531.67,617.11a561.31,561.31,0,0,1-15.1-83.06s-21.32,41.31,15.1,83.06"/>
      <path id="path64" class="cls-7" d="M346.37,699.43s4.73,30.05,40,38.1c0,0-17.87-22.38-14.66-53.18,0,0-22.88-8.23-25.3,15.08"/>
      <path id="path66" class="cls-8" d="M362.21,696.79a36.59,36.59,0,0,0,15,32.21s-13.83-26.4-15-32.21"/>
      <g id="g68">
        <path id="path70" class="cls-7" d="M430.69,312.54s100.09-24,127.34-98.6S584.09,18.5,584.09,18.5s72.25,87.66,72.25,178.87-98.57,158.34-205,129.51c0,0-20.91.75-20.61-14.34"/>
      </g>
      <g id="g72">
        <path id="path74" class="cls-8" d="M492.59,317.57S657.52,260.73,621.4,121c0,0,89.43,186.55-128.81,196.61"/>
      </g>
      <g id="g76">
        <path id="path78" class="cls-9" d="M538.91,264.89S593.52,260.15,590,41.61c0,0,58.73,195.07-51.07,223.28"/>
      </g>
      <g id="g80">
        <path id="path82" class="cls-10" d="M608.67,112.24c-4.43,1.44-9.7-2.28-10.66-7.12s2.55-10.31,7.12-10.66c3.65-.28,6.8,2.78,8,5.77,1.69,4.32.09,10.53-4.43,12"/>
      </g>
      <g id="g88">
        <path id="path90" class="cls-10" d="M587.47,159.08c-2.48,1.57-6.54,2.5-8.12.74-2-2.23,1.18-7.49,1.49-8,2.9-4.82,9-8.72,11.24-7.15,2.46,1.74.93,10.94-4.61,14.43"/>
      </g>
      <g id="g92">
        <path id="path94" class="cls-10" d="M600.5,183.68c-6.62-5-3-21.28,3.13-23,4.18-1.22,10.18,4.19,12.44,9.77.64,1.57,2.51,6.23.23,10.12-3,5.1-11.6,6.3-15.8,3.15"/>
      </g>
      <g id="g96">
        <path id="path98" class="cls-10" d="M596.71,247.56c-3.8,0-8.41-1.58-8.53-3.55s4.46-3.93,7.46-4.61c5.15-1.17,11.73-.13,12.14,2.07s-5.41,6-11.07,6.09"/>
      </g>
      <g id="g100">
        <path id="path102" class="cls-10" d="M525.76,277.5c-2.34,1.1-6.14,1.91-7.09.47s1.07-4.57,3.32-6.27c3.43-2.62,8.82-2.89,9.68-1.21s-2.4,5.37-5.91,7"/>
      </g>
      <g id="g104">
        <path id="path106" class="cls-11" d="M608.67,112.24c-4.43,1.44-9.7-2.28-10.66-7.12s2.55-10.31,7.12-10.66c3.65-.28,6.8,2.78,8,5.77,1.69,4.32.09,10.53-4.43,12"/>
      </g>
      <path id="path108" class="cls-7" d="M216.16,661.27S178,694,184.23,757s28.52,86.17,28.52,86.17-40.67,2.87-57.32,18.07c-15.52,14.16,69.77,16.12,108.86,14.34S332.68,861,332.68,861C318,837.27,294.79,803.65,303.37,741c1.69-12.37,10.77-42.31,14.21-52.41-8.82-6.07-30.46-12-101.42-27.36"/>
      <path id="path110" class="cls-8" d="M298.63,710.24s-29,71.07,5.92,122c0,0-70.48-40.87-5.92-122"/>
      <path id="path112" class="cls-9" d="M225.69,658.71s-63.28,63.37-7.61,173.53c0,0-14.26-130.2,44.42-153.08l-36.81-20.45"/>
      <path id="path118" class="cls-10" d="M206.09,746.36c-.09,3-2.27,6.19-5.1,6.93-5.66,1.5-13-6.88-11.33-11.81,1-3,4.89-3.77,5.15-3.83,5.12-1,11.44,3.4,11.28,8.71"/>
      <path id="path120" class="cls-10" d="M230.74,763.69c.87.83,3.45,3.32,2.67,5.78s-4.74,3.82-7.1,2.7c-3.77-1.77-3.49-9.68-1.12-10.93,1.91-1,5.33,2.23,5.55,2.45"/>
      <path id="path122" class="cls-10" d="M236.48,740.59c-2.69-.32-5.21-6.4-3.65-11.24s7.21-8.28,9.54-7c2.66,1.52.68,9,.59,9.32-1,3.65-3.77,9.18-6.48,8.88"/>
      <path id="path126" class="cls-10" d="M253.62,779.45c-1.43-.28-2.36-2.94-2.08-5.05.06-.41.49-3.36,2.54-3.79,1.61-.34,3.29,1.1,3.79,2.54,1,2.86-2.34,6.68-4.25,6.3"/>
      <path id="path128" class="cls-7" d="M486.55,643.55s25.52,14,37.1,79.72-12.41,118.14-12.41,118.14,82.62,24.5,37.31,34-139.77,2.41-164.64-15.36c0,0,11.55-46.78,16-85.87s-4.94-82.55-4.15-90,60.77-44,90.8-40.62"/>
      <path id="path130" class="cls-8" d="M486.37,656.35s45.6,82.32,13,170c0,0,6.51-89.43-13-170"/>
      <path id="path132" class="cls-9" d="M399.31,682.48s36.42,63,0,160.72c0,0,99.47-66.32,41.31-170.77l-41.31,10.05"/>
      <path id="path136" class="cls-10" d="M493.25,741.92c-4.31-.65-5.95-9.64-6.22-11.11-.18-1-2-10.76,2-12.88,3.78-2,12.73,3,13.85,10.26,1.08,7-5.42,14.37-9.63,13.73"/>
      <path id="path138" class="cls-10" d="M483.17,765.4c-1.94-1-1.7-4.73-1.16-6.76.82-3.12,3.51-6.49,5.47-6,2.23.49,3.89,6,1.77,9.62-1.3,2.2-4.25,4.11-6.08,3.19"/>
      <path id="path140" class="cls-10" d="M517.24,779.68c-2.26.84-6.24-4.55-8-7.77-.95-1.75-3.45-6.36-1.83-8.11s6.36-.43,9,2.36c4.14,4.32,3.23,12.61.81,13.52"/>
      <path id="path144" class="cls-10" d="M471.7,748.29c-1.13.4-3.11-1.44-3.78-3.44-1.1-3.22,1.07-7.2,2.46-7.14s2.14,4,2.22,4.44c.39,2.1.46,5.68-.9,6.14"/>
      <g id="g148">
        <path id="path150" class="cls-12" d="M347.19,700.77S192,712.61,158.86,565.73s16.58-264.14,148.06-275.5c128.46-11.1,198.12,57.84,213.2,185.48,12.61,106.6-.71,206.1-172.93,225.06"/>
      </g>
      <g id="g152">
        <path id="path154" class="cls-13" d="M433.71,338.61S625.84,647.76,235.85,654.86c0,0,175.9,87.06,260.29-48,13.32-21.31,27.54-83.51,7.1-150.12s-69.53-118.16-69.53-118.16"/>
      </g>
      <g id="g156">
        <path id="path158" class="cls-14" d="M184.23,366.16c35.45,20.68,86.06,34.62,143.68,32,53.31-3.37,93.52-16,145.11-35.87-41.47,30.22-93.86,49.34-144.32,51.83-66.24,3-119.66-22.2-144.47-48"/>
      </g>
      <path id="path160" class="cls-14" d="M159.45,436c45.1,34.07,106.84,56.35,165.49,54.24C385.83,488.59,439.28,466,492.59,436c-44.5,40.1-104.53,68.64-167.26,70.23C257,508.21,192,475.27,159.45,436"/>
      <path id="path162" class="cls-14" d="M167.45,531.4c42.92,37.48,103.37,64.33,162.14,61.81,60.57-2,113.66-30.86,163-65.37-41.17,45-99.9,79.33-162.46,81.35C263.66,612,198.05,574.33,167.45,531.4"/>
      <path id="path164" class="cls-14" d="M195,608.67a257,257,0,0,0,68.91,36.46c24.28,8.3,49.71,12.44,75,11.1C365.38,655,393.56,647.76,413,639c23.9-9.76,46.59-23,68.89-37.61a232.23,232.23,0,0,1-63.59,49c-27,13.45-48.68,20.09-78.71,21.76-27.62,1.47-55.42-4.32-80.32-15.41-27.56-12.26-51.88-31.91-64.31-48.12"/>
      <g id="g166">
        <path id="path168" class="cls-15" d="M448.27,431.2c1.28,4.77-5.47,10.74-15.08,13.31s-18.43.79-19.71-4,5.47-10.74,15.07-13.31,18.44-.79,19.72,4"/>
      </g>
      <path id="path170" class="cls-15" d="M301.39,469.32c-1.15,4.09-8.65,5.57-16.76,3.31S270.86,465.2,272,461.11s8.65-5.59,16.76-3.32,13.76,7.44,12.62,11.53"/>
      <g id="g172">
        <path id="path174" class="cls-15" d="M269.64,383c-1,3.44-5.36,5.23-9.83,4s-7.31-5-6.34-8.49,5.36-5.23,9.83-4,7.3,5.06,6.34,8.51"/>
      </g>
      <path id="path176" class="cls-15" d="M383.78,563.37c1.21,4.51-6.37,10.46-16.92,13.28s-20.09,1.47-21.3-3,6.37-10.45,16.92-13.28,20.1-1.46,21.3,3"/>
      <path id="path178" class="cls-15" d="M470.47,481.19c1.73,3.8-.81,8.66-5.67,10.88s-10.21.92-11.93-2.88.81-8.68,5.67-10.88,10.21-.92,11.93,2.88"/>
      <path id="path180" class="cls-15" d="M228.65,604.69c-2.13,3.68-9.76,3.26-17.06-1s-11.49-10.61-9.36-14.29,9.77-3.25,17.06,1,11.49,10.61,9.36,14.29"/>
      <path id="path182" class="cls-15" d="M468.78,642.11c1.07,3.41-1.84,7.37-6.51,8.84s-9.32-.11-10.4-3.52,1.84-7.38,6.51-8.86,9.33.12,10.4,3.54"/>
      <g id="g184">
        <path id="path186" class="cls-15" d="M388.23,311.59c-1.13,2-4.24,2.28-7,.7s-4-4.42-2.86-6.38,4.24-2.26,7-.7,4,4.42,2.86,6.38"/>
      </g>
      <g id="g188">
        <path id="path190" class="cls-16" d="M244.59,331.2s73.58-44.42,149.39-8.29c0,0-83.66,48-149.39,8.29"/>
      </g>
      <g id="g192">
        <path id="path194" class="cls-7" d="M263.46,340.18s-2.48-90.72-40-133.93C205.64,185.82,158.6,179,148.9,125.41,143.76,97,163.89,81,170.11,73S206.53,1.94,267.83.15,392.2,11.7,420.63,67.67s7.1,87.07-31.1,141.25-14,122.72-14,122.72-46.33,54.2-112.07,8.54"/>
      </g>
      <g id="g196">
        <path id="path198" class="cls-17" d="M179.6,90.06c-12.6,7.68-24.88,52.82,46.09,98C245,200.33,281.62,244.89,271.3,345.2c0,0,58.71,42.5,94.24-4.45,0,0-27.64-88.88-8.43-136.75,2.67-6.64,10.72-23.09,24.91-36.4s46.35-58.44-4.48-76.76c-22.65-8.17-67.25,41.8-101.45,35.33-52-9.82-52.32-63-96.49-36.11"/>
      </g>
      <g id="g200">
        <path id="path202" class="cls-7" d="M225.69,316.09S134.78,303.3,37,448.62C19.72,474.35-8.36,551.84,2.38,618.73c0,0,7.83-69.28,84.63-106.92S206.86,404.3,225.69,316.09"/>
      </g>
      <g id="g204">
        <path id="path206" class="cls-8" d="M16.43,559.36S37,490,110.62,450.72s101.25-121,101.25-121-19.86,96.41-89.66,145S44.6,513.91,16.43,559.36"/>
      </g>
      <g id="g208">
        <path id="path210" class="cls-9" d="M35.52,475.38s28.22-68.1,113.36-122.49c0,0-68.81,60.53-113.36,122.49"/>
      </g>
      <path id="path212" class="cls-10" d="M40.41,498.07c-.74,4.37-3.47,12.14-7.81,12.33-4.17.17-8.66-6.72-8.45-12.89.27-8.15,8.76-15.35,12.93-13.88,3.67,1.3,4.19,9.38,3.33,14.44"/>
      <g id="g214">
        <path id="path216" class="cls-10" d="M69.06,427.44c.14,2.39-1.25,5.26-3.63,5.74-2.77.55-6-2.34-5.82-5.53s3.69-5.73,6.36-4.92c2,.62,3,2.93,3.09,4.71"/>
      </g>
      <g id="g218">
        <path id="path220" class="cls-10" d="M120.46,410.33c-.44,1.26-4.08,1-5.87.91-2-.13-4.92-.32-5.2-1.48s2.66-3.9,5.74-3.74,5.77,3.05,5.33,4.31"/>
      </g>
      <g id="g222">
        <path id="path224" class="cls-10" d="M201.83,334c1.3,2.63-.18,6.32-2.3,6.79-1.9.43-4-1.84-4.76-3.7-.65-1.49-1.14-4.21.26-5.39,1.65-1.39,5.49-.33,6.8,2.3"/>
      </g>
      <g id="g226">
        <path id="path228" class="cls-10" d="M171.82,411.82c-5.64,2.8-13.79,1.27-15.19-2.63-1.33-3.74,3.77-9,8.38-11.29s11.77-3.06,13.93.25c2.25,3.48-1.47,10.87-7.12,13.67"/>
      </g>
      <path id="path230" class="cls-10" d="M56.71,478.44c-2.38,0-4.54-2.17-5-4.64s.51-5.19,2.88-6.23c2.8-1.22,6.26.67,7.18,3.4,1.14,3.36-1.76,7.46-5,7.47"/>
      <path id="path232" class="cls-10" d="M101.41,480.59c.34,1.84-5.38,5.52-11.15,5.24s-11.09-4.58-10.57-6.35c.46-1.55,5.35-1.36,10.25-1.17,4.65.17,11.14.42,11.47,2.28"/>
      <g id="g234">
        <path id="path236" class="cls-18" d="M255,201.35s37.84,25.77,81.33,0c0,0-44.9,51.08-81.33,0"/>
      </g>
      <g id="g238">
        <path id="path240" class="cls-8" d="M369.11,235.52s2.83-24.77,36.06-59.46S415.74,74,415.74,74s12.47,67.46-24,105.22a79.6,79.6,0,0,0-22.65,56.29"/>
      </g>
      <g id="g242">
        <path id="path244" class="cls-9" d="M154.79,106.52s5.43-28.63,34.87-34.68c0,0-10.66,0-34.87,34.68"/>
      </g>
      <g id="g246">
        <path id="path248" class="cls-9" d="M189.66,53.44C189,54,213.36-19.18,340,9,340,9,251.4.13,189.66,53.44"/>
      </g>
      <g id="g250">
        <path id="path252" class="cls-19" d="M246,67.37C242.59,74,234.31,81.78,227.26,79.8c-7.28-2-10.11-13.71-9.24-21.51,1.41-12.66,13.54-24.57,21.28-22.49,8,2.15,12.86,19.64,6.7,31.57"/>
      </g>
      <g id="g254">
        <path id="path256" class="cls-19" d="M347,70.09c-1.27,6.85-6.46,16.79-14.54,17.13-7.25.33-13.06-7.25-15.17-13-5-13.77,5.44-32.51,14.51-32.57,8.25,0,17.66,15.31,15.2,28.48"/>
      </g>
      <g id="g258">
        <path id="path260" class="cls-20" d="M224,59.81c.14.81,1.11,6.19,3.73,6.67,3.21.58,7.89-6.34,9-13,.86-5.07.07-12.36-2.67-13-3.66-.9-11.69,9.78-10.09,19.39"/>
      </g>
      <g id="g262">
        <path id="path264" class="cls-20" d="M322.35,66.69c.22.8,1.77,6,4.42,6.22,3.26.25,7.16-7.16,7.57-13.93.3-5.14-1.28-12.29-4.07-12.67-3.74-.49-10.56,11-7.92,20.38"/>
      </g>
      <g id="g266">
        <path id="path268" class="cls-19" d="M195.33,74a109.83,109.83,0,0,1,23.36,13,99.82,99.82,0,0,1,10.48,8.63c3.32,3.11,6.24,6.21,9.37,8.7,1.56,1.29,3.21,2.43,4.94,3.61s3.48,2.32,5.26,3.36a68.91,68.91,0,0,0,10.93,5.25A56.09,56.09,0,0,0,283,120.24a72,72,0,0,0,23.46-5.64,90.5,90.5,0,0,0,11.21-5.15c3.47-1.93,6.9-4.47,10.77-7a104.35,104.35,0,0,1,51-16.14C362.68,92.1,347,99.7,333.87,110.17c-3.28,2.6-6.66,5.62-10.68,8.27a83.91,83.91,0,0,1-12.31,6.61,91.3,91.3,0,0,1-13.14,4.87,70,70,0,0,1-14.17,2.29,62.84,62.84,0,0,1-14.43-.94,65.47,65.47,0,0,1-13.74-4.22A70.4,70.4,0,0,1,243,120.14c-1.91-1.33-3.79-2.74-5.53-4.16s-3.59-3-5.27-4.7A124.4,124.4,0,0,1,223.44,101c-2.68-3.33-5.53-6.46-8.56-9.55A201.83,201.83,0,0,0,195.33,74"/>
      </g>
      <g id="g270">
        <path id="path272" class="cls-8" d="M248.79,83.41A45.77,45.77,0,0,1,263,76.18a49.29,49.29,0,0,1,16-2.36c1.36.1,2.72.11,4.08.28l4,.7c1.34.25,2.62.79,3.93,1.16l1.94.64,1.85.88c5,2.12,9.19,5.82,12.67,9.74-4.6-2.68-8.94-5.4-13.84-6.84a48,48,0,0,0-14.78-2.58,69.06,69.06,0,0,0-15.11,1.38,106.32,106.32,0,0,0-15,4.23"/>
      </g>
      <g id="g274">
        <path id="path276" class="cls-19" d="M270.2,89.42c1.41,2.9.47,5.77,0,7.18s-1.1,3.34-2.38,3.5-2.17-1.31-3-2.53c-1-1.45-2.61-3.73-2.22-6.74.21-1.7,1.21-4.84,3.26-5.12,2.37-.31,4.25,3.47,4.36,3.71"/>
      </g>
      <g id="g278">
        <path id="path280" class="cls-19" d="M288.72,92.9c0,3.23-2.13,5.38-3.17,6.45s-2.47,2.51-3.68,2.08-1.37-2.13-1.6-3.61c-.27-1.74-.69-4.5,1-7,.94-1.41,3.23-3.8,5.19-3.14,2.27.77,2.28,5,2.28,5.25"/>
      </g>
      <g id="g282">
        <path id="path284" class="cls-7" d="M310.22,78.3s31,4.39,42.93-6.46c0,0-15.37,38.05-42.93,6.46"/>
      </g>
      <g id="g286">
        <path id="path288" class="cls-7" d="M209.07,63.14s27.86,14.18,42.71,7.78c0,0-26.88,31-42.71-7.78"/>
      </g>
      <g id="g290">
        <path id="path292" class="cls-8" d="M309.54,83.42a49.21,49.21,0,0,1,10.81-4.91,67.75,67.75,0,0,1,11.56-2.74,58.5,58.5,0,0,1,11.91-.5,38.4,38.4,0,0,1,11.66,2.45c-4,.2-7.81.32-11.63.66s-7.6.79-11.38,1.35-7.57,1.15-11.37,1.8-7.62,1.31-11.56,1.89"/>
      </g>
      <g id="g294">
        <path id="path296" class="cls-8" d="M207.24,66.52a48.12,48.12,0,0,1,11.85-.71,68.8,68.8,0,0,1,11.77,1.58,59.7,59.7,0,0,1,11.31,3.8,38.94,38.94,0,0,1,10,6.46c-3.8-1.23-7.4-2.48-11.09-3.54s-7.38-2-11.11-2.81-7.47-1.65-11.26-2.41-7.58-1.5-11.47-2.37"/>
      </g>
      <g id="g298">
        <path id="path300" class="cls-10" d="M372.11,44.82c-7.72-2.63-11.79-13.59-7.43-15.3,3-1.15,10.38,1.85,14.7,5.27,1.22,1,4.83,3.85,4.61,6.58-.28,3.59-7,5.14-11.88,3.45"/>
      </g>
      <g id="g302">
        <path id="path304" class="cls-10" d="M230.17,23.82c-1.81-3.59,6-10.79,9.92-10.55,2.69.17,4,3.85,3.25,6.94a7.39,7.39,0,0,1-3.48,4.92c-3.44,1.92-8.53.95-9.69-1.31"/>
      </g>
      <g id="g306">
        <path id="path308" class="cls-10" d="M271.07,28.8C264.4,31,256.45,25.32,255,18s3.83-15.63,10.71-16.16c5.51-.41,10.26,4.24,12,8.79,2.55,6.56.15,16-6.66,18.19"/>
      </g>
      <g id="g310">
        <path id="path312" class="cls-10" d="M285.81,23.71C282.64,21,285,14,290.08,9.84s12.47-4.9,14.45-1.28c1.59,2.89-.75,7.63-3.71,10.67-4.25,4.4-11.78,7.29-15,4.48"/>
      </g>
      <g id="g314">
        <path id="path316" class="cls-10" d="M335.83,20.08c-3.2.84-6.66-.27-7-2.11s2.46-4.21,5.69-4.64c2.59-.35,4.6.65,5.23,1.75.91,1.59-.62,4.12-3.89,5"/>
      </g>
      <g id="g318">
        <path id="path320" class="cls-10" d="M307.56,40.52c-2-1.38-2.52-4.34-1.23-5.87s4.32-1.45,6,.25a4,4,0,0,1,.76,4.49,3.82,3.82,0,0,1-5.52,1.13"/>
      </g>
    </g>
  </g>
</svg>
