<svg xmlns="http://www.w3.org/2000/svg" viewBox="0 0 893.15 937.1">
  <defs>
    <style>
      .cls-1 {
        fill: #a4c53a;
      }

      .cls-2 {
        fill: #a2b33a;
      }

      .cls-3 {
        fill: #7c3314;
      }

      .cls-4 {
        fill: #965626;
      }

      .cls-5 {
        fill: #b6db3a;
      }

      .cls-6 {
        fill: #7fac27;
      }

      .cls-7 {
        fill: #deeebb;
      }

      .cls-8 {
        fill: #c4e2aa;
      }

      .cls-9 {
        fill: #92a16f;
      }

      .cls-10 {
        fill: #f2f8e4;
      }

      .cls-11 {
        fill: #592614;
      }

      .cls-12 {
        fill: #964526;
      }

      .cls-13 {
        fill: #613314;
      }

      .cls-14 {
        fill: #aa623d;
      }

      .cls-15 {
        fill: #c8dc89;
      }

      .cls-16 {
        fill: #313a18;
      }

      .cls-17 {
        fill: #f2b6d1;
      }

      .cls-18 {
        fill: #b6d170;
      }
    </style>
  </defs>
  <g id="Layer_2" data-name="Layer 2">
    <g id="svg2">
      <path id="path322" class="cls-1" d="M384.07,641.48s-2.37,38.25,38.75,57.76c0,0-15.87-32.4-3.52-69.4,0,0-25.9-16.35-35.23,11.64"/>
      <path id="path324" class="cls-2" d="M404.27,642.55A46.12,46.12,0,0,0,414,686.26s-9.81-36.23-9.69-43.71"/>
      <g id="g326">
        <path id="path328" class="cls-3" d="M382.4,645.45c-94.07-34.81-127.34-98.76-125.82-197.39C258.34,333.11,305,226.41,409.11,212.63c14.8-1.95,16.81-20.92,39.05-23.54s119.73,18.25,157.27,50.66c10.19,8.81,9.71,28,17.53,41.48s63.29,57.36,42.15,182.1S521.87,697.08,382.4,645.45"/>
      </g>
      <g id="g330">
        <path id="path332" class="cls-4" d="M384.93,642.21c-91.08-28.82-116.63-97.3-115.58-193.57C270.55,336.46,312,240,410.42,227c14-1.86,13.91-27.5,34.93-30s113.37,18.31,149,50.09c9.68,8.63,9.33,27.36,16.77,40.55s57.71,57.57,38.21,179.24S518.54,684.47,384.93,642.21"/>
      </g>
      <g id="g334">
        <path id="path336" class="cls-1" d="M606.88,370.48S686.36,376.21,729,411s56.79,99,99.12,149S883.74,633.5,892.67,641,782,650.22,730,579.17,648.63,435.34,626.37,418.45s-32.15-38.37-19.49-48"/>
      </g>
      <path id="path338" class="cls-2" d="M657,442.88s44,74.82,79.38,131.78c18.78,30.2,66,55,137.69,62,0,0-80.4-22.77-112.83-91.51S657,442.88,657,442.88"/>
      <path id="path340" class="cls-5" d="M663,403.74s75,31.72,123.07,129.2c0,0-39.71-137.6-123.07-129.2"/>
      <path id="path342" class="cls-6" d="M821.68,600.7c3.38,7.38,1.84,17.63-2.77,19.56-7.4,3.12-25.76-14-22.52-23,1.57-4.38,8.32-7.14,14.05-6.19,7.42,1.21,10.62,8.21,11.24,9.61"/>
      <path id="path344" class="cls-6" d="M856.66,601.85c.74,3.4-.68,7.9-3.79,9.28-4.11,1.82-9.49-2.54-11.68-6.74-1.61-3.06-2.67-8.25-.36-10.24,3.39-2.89,14.31.73,15.83,7.7"/>
      <path id="path346" class="cls-6" d="M815.56,555.78c-.53,3.23-3.06,7.39-6.76,7.57-3.44.18-6-3.17-7.08-5.41-2.64-5.76.54-14.19,4.63-14.86s10.24,6.36,9.21,12.7"/>
      <path id="path348" class="cls-6" d="M746,553.13c.6,2.72-1.52,5.61-3.87,6.34-4.28,1.36-9.73-4.34-8.89-7.48.53-2,3.67-3,5.81-3,2.39,0,6.27,1,7,4.16"/>
      <path id="path350" class="cls-6" d="M754.75,473.12c6.23,4.05,5.56,18.07,1.48,19.74-4.31,1.76-15.33-9.08-13.21-15.93a7.76,7.76,0,0,1,4.6-4.75,8.28,8.28,0,0,1,7.13.94"/>
      <path id="path352" class="cls-6" d="M683.87,453.7c2,3.23,2.44,8.24.37,9.55s-6.58-1.41-8.66-4.81c-1.92-3.18-2.47-8.1-.43-9.43s6.63,1.29,8.72,4.69"/>
      <g id="g354">
        <path id="path356" class="cls-1" d="M384.55,260.16s-46-32-137.09-29.73S28.37,249.88,3.26,247.74s100.32,102.61,185.06,86,143.54-55.23,180.15-48.16c0,0,25.91-6.26,16.08-25.39"/>
      </g>
      <g id="g358">
        <path id="path360" class="cls-2" d="M17.08,258.84s105.46,81.8,225.16,45.22c13.64-4.17,67.22-20.26,94-23.06,0,0-45.32-8.3-96.91.78S86.63,295.18,17.08,258.84"/>
      </g>
      <g id="g362">
        <path id="path364" class="cls-5" d="M33.43,251.52s211-18.61,284.66-3.52c0,0-194.47,25.21-284.66,3.52"/>
      </g>
      <g id="g366">
        <path id="path368" class="cls-6" d="M64.92,272.41c.15,2.76-4,5.6-7.62,6-6,.59-12-5.25-11.26-8.3.66-2.54,6.18-3.45,10-3,3.32.39,8.76,2.24,8.93,5.34"/>
      </g>
      <g id="g370">
        <path id="path372" class="cls-6" d="M31,254.1a3.35,3.35,0,0,1-1.44,3.1c-2,.95-5.83-1.56-5.57-4.15a3.49,3.49,0,0,1,3-2.94c2.11-.23,3.92,1.94,4,4"/>
      </g>
      <g id="g374">
        <path id="path376" class="cls-6" d="M86.06,247.57c5.61,3.57,6,13.19,2.25,15.76-3,2.11-8.28-.87-8.88-1.19-3.65-2.09-8.2-6.93-7-11.08,1.31-4.48,8.81-6.55,13.6-3.49"/>
      </g>
      <g id="g378">
        <path id="path380" class="cls-6" d="M102.73,289.79C107,296.64,98.79,309.3,93,309c-4-.2-7.09-6.64-7.93-11.12-.35-1.89-1.45-7.8,2.07-10.95,4.13-3.66,12.66-1.76,15.56,2.84"/>
      </g>
      <g id="g382">
        <path id="path384" class="cls-6" d="M137.61,270.92c-.16,2.67-2.56,4.32-4.24,4.91-3.56,1.27-8.12-.72-8.73-3.36-.75-3.27,4.4-8.29,8.65-7.16,2.2.58,4.5,2.89,4.32,5.61"/>
      </g>
      <g id="g386">
        <path id="path388" class="cls-6" d="M189.31,310.71c2.9,4.5-3.39,13.77-6.66,13.3-2.24-.32-3.06-5.22-3.14-5.73-.5-3.15.06-8.52,3.47-9.74a5.81,5.81,0,0,1,6.33,2.17"/>
      </g>
      <g id="g390">
        <path id="path392" class="cls-6" d="M288.93,263.16c0,.58-.42,5.56-3.4,6.22-2.3.5-5-1.83-5.52-4.22-1-4.2,4.34-8.89,6.8-8.11,1.78.57,2.25,4.07,2.12,6.11"/>
      </g>
      <g id="g394">
        <path id="path396" class="cls-6" d="M208.27,249.24c1.28,2.32-.33,5.79-2.2,6.07-1.4.2-2.78-1.32-3.36-2.57-.81-1.74-.78-4.52.91-5.39,1.54-.79,3.78.3,4.65,1.89"/>
      </g>
      <path id="path398" class="cls-1" d="M286.56,549.54s-74.48,17.38-128.08,56.08S3.94,669.73,3.94,669.73s89.38,25.81,137.65,25.45,96.77-7.25,130.27-52,44-50,44-50,15.73-33-29.34-43.59"/>
      <path id="path400" class="cls-2" d="M46.79,671.28s118.68,15,174.43-30.14,78.84-48.34,78.84-48.34-38.95,81.6-119.91,90S46.79,671.28,46.79,671.28"/>
      <path id="path402" class="cls-5" d="M86.43,652.28S142.9,632.74,164,610.8s103.84-48.2,103.84-48.2-76.26,70.73-181.41,89.68"/>
      <path id="path404" class="cls-6" d="M81,668.24c.93,2.41-2.2,6.81-5.87,7.66-6.57,1.52-13.73-8.61-12.36-10.94.56-.92,3.32-.51,8.83.34,5.85.9,8.8,1.38,9.4,2.94"/>
      <path id="path406" class="cls-6" d="M77.18,653.46A1.93,1.93,0,1,1,75,651.79a1.92,1.92,0,0,1,2.16,1.67"/>
      <path id="path408" class="cls-6" d="M128.68,662.06c0,3.12-2.58,5.87-5.26,6.87-5.56,2.08-13.3-2.71-13.22-7.74.06-3.49,3.88-6.81,7.82-7.3,5.13-.66,10.73,3.48,10.66,8.17"/>
      <path id="path410" class="cls-6" d="M112.8,680.93c1.23,2.4-1.7,7.28-5.36,7.36-2.06,0-4.65-1.46-5-3.8s2.14-4.31,3.8-5c2.38-.91,5.63-.39,6.52,1.4"/>
      <path id="path412" class="cls-6" d="M202,659.34c0,.34-.74,6.56-5.45,8.07s-10.08-2.57-10.65-6.56c-.83-5.79,8.53-12.07,13-9.88,2.68,1.32,3.38,5.61,3.1,8.37"/>
      <path id="path414" class="cls-6" d="M266.5,583.18c2.36,3.37-3,11.75-6.22,11.36-1.93-.24-3.26-3.79-3.4-6.32-.06-1.05-.22-4,1.83-5.64,2.33-1.9,6.44-1.33,7.79.6"/>
      <path id="path416" class="cls-6" d="M298.64,586.24c.24,1.1,0,2.82-1.34,3.33A2.74,2.74,0,0,1,294,587.8c-.54-1.8,1.54-3.95,3-3.68.95.16,1.53,1.32,1.69,2.12"/>
      <path id="path418" class="cls-1" d="M544.7,626.35S584.54,666.42,594,722s-18.14,83.42-12.09,131a494.48,494.48,0,0,0,18.21,84.16s-87.18-58.33-100.66-104-5.95-122.27-9.92-146.24S477.39,636,477.39,636s23-51.28,67.31-9.62"/>
      <path id="path420" class="cls-2" d="M533.72,636.12s37.18,70.41,23.42,137.16,27.4,140.34,27.4,140.34-24.75-65.23-2.58-132.9-48.24-144.6-48.24-144.6"/>
      <path id="path422" class="cls-5" d="M493.78,659.64A1119.54,1119.54,0,0,1,507.19,799.4c.57,20.29,16.52,64.08,47.89,96,0,0-29.69-74.08-25.09-143.23,1.36-20.26-12.87-68.56-36.21-92.57"/>
      <path id="path424" class="cls-6" d="M580.27,872.29c3.93,2.3,1.2,21.08-6.36,22.66-4.19.88-10.07-3.47-10.53-8.14s4.68-8.23,9-11.23c3.41-2.34,6.2-4.27,7.84-3.29"/>
      <path id="path426" class="cls-6" d="M556.68,878c-.94,2.23-5.57,2-6.13,2-6.75-.34-12.76-7.27-11.56-10.59.81-2.26,4.92-2.56,5.29-2.57,7-.41,13.8,7.87,12.4,11.15"/>
      <path id="path428" class="cls-6" d="M564.35,850.22c1.63,3.51-.55,8.29-2.32,8.41-2,.15-3.84-5.82-4.08-6.61-.61-2-1.37-4.57-.33-5.41,1.29-1,5.33.6,6.73,3.61"/>
      <path id="path430" class="cls-6" d="M526.56,813.84c.66,2.18-1.12,5.12-3.36,5.89-4.25,1.49-9.93-4.81-9.06-7.27.5-1.42,3.24-1.62,4.48-1.72,2.14-.16,7.06.14,7.94,3.1"/>
      <path id="path432" class="cls-6" d="M577.14,760.85c.1,2.64-1.84,5.63-4.24,5.64a4.31,4.31,0,0,1-3.67-2.81c-1.25-3.26,1.89-7.83,4.44-7.64,1.79.12,3.37,2.57,3.47,4.81"/>
      <path id="path434" class="cls-6" d="M513.78,695.88c.8,2.4-2.26,6.17-4.9,5.67-2.18-.4-4.1-3.72-2.86-6,.92-1.72,3.24-2.23,5-1.79.31.08,2.27.6,2.79,2.13"/>
      <g id="g436">
        <path id="path438" class="cls-7" d="M516.72,218s-130.59-.79-198.14,95.48-37.65,223.78-32,236.09,27.62,58.11,86.25,83S551.89,666,621.75,526.27,593.07,279.13,588.61,275.7,516.72,218,516.72,218"/>
      </g>
      <g id="g440">
        <path id="path442" class="cls-8" d="M307.11,546.81S640.72,696.41,590,297.61c0,0,85.82,196.32-23,286.1-104.1,85.85-242.51,3-259.83-36.9"/>
      </g>
      <path id="path444" class="cls-9" d="M285.15,479.46a301.76,301.76,0,0,0,22,32.13c23.37,30.22,53.06,57.91,87.1,74.87C430.92,605,468.14,609.06,506.4,603a262.26,262.26,0,0,0,37.78-9.28A205.34,205.34,0,0,1,507,606.25c-39.73,8.9-78.57,4.79-115.78-13.83-35.68-18.23-64.24-46-86.76-78.9a231,231,0,0,1-19.35-34.06"/>
      <path id="path446" class="cls-9" d="M296.5,411.54C325,450.12,373.32,492.89,432,518.24c60.36,24.82,110.67,22.49,170.47,8.1C546.35,546.57,483,550.06,429,525.62c-56.2-23.12-107.44-71.21-132.49-114.08"/>
      <g id="g448">
        <path id="path450" class="cls-9" d="M325.6,337.6A722.11,722.11,0,0,0,424.74,398c11.52,5.67,23.21,11,35,15.85,66,26.93,106.15,29,150.1,28.71-45.31,8.3-91.77,6.66-154.14-18.84q-18.21-7.55-35.62-16.75C380.6,385.8,345.5,358.47,325.6,337.6"/>
      </g>
      <g id="g452">
        <path id="path454" class="cls-9" d="M364.49,297.68c31.83-3.44,80.6.07,133.54,15.75,43.18,13.38,83.81,33.7,118.77,62.94-38.29-24.69-76.34-43.1-120.71-56.56-46-14.12-95.44-21.28-131.6-22.13"/>
      </g>
      <g id="g456">
        <path id="path458" class="cls-10" d="M437.65,348.12c1.07,4-5.36,10.12-12,11.39-8.4,1.59-17.93-4.3-17.72-8.71.24-4.06,8.75-7,14.84-7.48,5.15-.38,13.85.66,14.92,4.8"/>
      </g>
      <g id="g460">
        <path id="path462" class="cls-10" d="M579.62,412.17c-3.32,4.81-14.08,4.89-21.27.54-1.22-.73-8.45-5.11-8.88-13.12s6.19-15.65,12.29-16.19c11-.95,23.15,21.07,17.86,28.77"/>
      </g>
      <g id="g464">
        <path id="path466" class="cls-10" d="M571.77,296.32c1.68,2.67-3.08,11.65-9,11.36-3.85-.2-7.78-4.23-7.19-7.21s5.13-3.93,7.69-4.54c1.65-.39,7.21-1.71,8.52.39"/>
      </g>
      <g id="g468">
        <path id="path470" class="cls-10" d="M421.18,257.7c.15,3-4.63,4.8-5,4.93-2.9,1.05-7.11.92-7.81-.78-1-2.47,5-9.1,9.5-7.85a4.5,4.5,0,0,1,3.31,3.7"/>
      </g>
      <g id="g472">
        <path id="path474" class="cls-10" d="M339.59,411c.63,3.83,2.71,16.36-2.14,18.9-5.28,2.76-18.81-6.3-21.4-18.56-2.35-11.08,4.41-24,10.34-24.2,6.45-.17,11.68,14.71,13.2,23.86"/>
      </g>
      <path id="path476" class="cls-10" d="M473.8,450.62c2.34,3.26-.81,11.75-6.52,12.52-3.53.5-7.69-2-8.33-5.29-.84-4.3,4.69-8.72,9.53-9,.78,0,3.94-.2,5.32,1.74"/>
      <path id="path478" class="cls-10" d="M563.15,521.42c1.15,2.57-2.57,8-6.77,7.86-2.52-.1-5.43-2.23-5.43-4.74s2.77-3.94,3.21-4.19c3.19-1.74,8-1.16,9,1.07"/>
      <path id="path480" class="cls-10" d="M449.42,550.84c1.65,3.66-5,12.9-13,13.5-10.44.79-18.93-13.41-16.78-16.85.62-1,2-.83,14.1.4,13.26,1.33,15,1.48,15.7,2.94"/>
      <path id="path482" class="cls-10" d="M514.67,590.22a6.2,6.2,0,0,1-4.57,6c-3.46.9-6.86-1.54-7.42-4.1-.86-3.86,4.56-8.7,8.43-7.39a5.87,5.87,0,0,1,3.56,5.52"/>
      <path id="path484" class="cls-10" d="M298.74,522.46c.09,1.48.33,5.93-1.91,7.08-2.59,1.33-7.92-2-9.29-6.48-1.6-5.23,2.26-11.63,5.36-11.63s5.58,6.3,5.84,11"/>
      <path id="path486" class="cls-10" d="M419,637c-.42,2.34-6.61,4.08-11,2.08-.28-.14-3.78-1.77-3.63-3.74.17-2.16,4.65-4.12,8.45-3.43,3.2.59,6.55,3.19,6.2,5.08"/>
      <g id="g488">
        <path id="path490" class="cls-11" d="M463.43,237.43s17.41,65.5,108.06,42.69c0,0-35.27-46.73-108.06-42.69"/>
      </g>
      <g id="g492">
        <path id="path494" class="cls-1" d="M471.45,253.82s20.45-71.71-.76-103S428.36,81.1,450.15,56.14s52.43-36,59-39.92S571-9,598.88,4.35s55.4,28.41,78.49,90.89c8.58,23.23,21.71,44.4,8.33,72.27s-95.64,20.69-114,64.27-19.12,46-22.29,52.4-62.39,20.07-78-30.36"/>
      </g>
      <g id="g496">
        <path id="path498" class="cls-12" d="M667.68,321.83c6.48,16.13,3,36.57-3.21,38.05-8.79,2.08-23.22-33.47-27.7-45.88-3.89-10.82-6.23-17.51-3.62-19.63,4.86-3.93,26.7,8,34.53,27.46"/>
      </g>
      <path id="path500" class="cls-12" d="M668.66,500.88c-.16,10.4-15.23,17.89-18.83,15.24-2.17-1.6-.59-7.17,1.07-12.9,1.73-6.05,4.14-14.48,8.57-14.84,4.09-.34,9.27,6.32,9.19,12.5"/>
      <path id="path502" class="cls-12" d="M601.35,591.32c2.12,5.18,11.21,8.1,17.75,5.89,15.74-5.36,17.32-40.84,11.2-43.39-2.58-1.08-6.78,3.75-15.16,13.41-9.86,11.36-16.07,18.51-13.79,24.08"/>
      <path id="path504" class="cls-12" d="M574,616.14c3.13,1.18,4.76,7.19,2.89,10.79-3.56,6.87-19.74,5.13-20.78,1.64-.62-2.05,3.86-5.07,9.6-8.93,4.18-2.84,6.33-4.24,8.29-3.5"/>
      <g id="g506">
        <path id="path508" class="cls-12" d="M400.13,214.09c.2,2.62-5.82,3-33.6,15.47-14.71,6.6-19.38,9.34-21.7,7.25-3.62-3.26.29-16.79,8.92-24.13,15.92-13.55,45.93-4.38,46.38,1.41"/>
      </g>
      <g id="g510">
        <path id="path512" class="cls-12" d="M258.36,328.19c-8.3,13.92,2.16,35.47,8.39,35.5,4.11,0,7.2-9.29,11.63-22.64,4.2-12.64,6.78-20.46,3.44-23.39-4.28-3.75-17.84,1.1-23.46,10.53"/>
      </g>
      <g id="g514">
        <path id="path516" class="cls-12" d="M271.87,383.79c5,11.47-6.32,29.95-13.3,29.18-7.43-.83-15-24.08-6.58-33,2.49-2.64,7.38-5,12-3.76,4.91,1.34,7.28,6.14,7.87,7.53"/>
      </g>
      <path id="path518" class="cls-12" d="M267.51,496c1.84,16,3.44,29.8-2,32.37-7.1,3.36-27.18-12.13-29.28-31.61-2-18.52,12.62-37.41,20.35-36,7,1.3,9.11,19.48,10.92,35.23"/>
      <g id="g520">
        <path id="path522" class="cls-13" d="M442.94,202.5c1.19,3.78,2.21,7.33,3.56,10.81.64,1.73,1.32,3.47,2.1,5.18s1.59,3.4,2.36,5.27a17.35,17.35,0,0,1-4.18-4.24,22.08,22.08,0,0,1-2.78-5.29,23.5,23.5,0,0,1-1.38-5.79,16.76,16.76,0,0,1,.32-5.94"/>
      </g>
      <g id="g524">
        <path id="path526" class="cls-13" d="M377.83,240.1c.79.77,1.42,1.47,2,2.17s1.15,1.42,1.68,2.15,1,1.48,1.52,2.28a14.66,14.66,0,0,1,1.33,2.69,7.35,7.35,0,0,1-2.85-1.25,10.29,10.29,0,0,1-2.17-2.15,9.62,9.62,0,0,1-1.36-2.74,5.89,5.89,0,0,1-.18-3.15"/>
      </g>
      <g id="g528">
        <path id="path530" class="cls-13" d="M304.85,303a18.15,18.15,0,0,0,3.24,2l3.3,1.72c1.11.57,2.19,1.18,3.3,1.84a20.5,20.5,0,0,1,3.25,2.35,13.51,13.51,0,0,1-4-.41,16.75,16.75,0,0,1-3.77-1.44,14.13,14.13,0,0,1-3.3-2.4,6.12,6.12,0,0,1-2-3.67"/>
      </g>
      <g id="g532">
        <path id="path534" class="cls-13" d="M288,347.23a7.38,7.38,0,0,1,2,.19,6.8,6.8,0,0,1,1.64.67,6.12,6.12,0,0,1,1.43,1.08,5.62,5.62,0,0,1,1.16,1.74,4.56,4.56,0,0,1-2.11.13,5.39,5.39,0,0,1-1.79-.64,5,5,0,0,1-1.47-1.23,3.65,3.65,0,0,1-.89-1.94"/>
      </g>
      <g id="g536">
        <path id="path538" class="cls-13" d="M574.33,261.54c1.59-1.13,3.18-2.11,4.78-3.05s3.21-1.87,4.81-2.77l4.82-2.68c1.62-.88,3.21-1.81,5-2.64a18.45,18.45,0,0,1-3.82,4.34,26.32,26.32,0,0,1-4.69,3.31,31.46,31.46,0,0,1-5.25,2.33,21,21,0,0,1-5.65,1.16"/>
      </g>
      <g id="g540">
        <path id="path542" class="cls-13" d="M626.22,326.18a12,12,0,0,1,1.7-1.14,8.4,8.4,0,0,1,1.55-.68,9.06,9.06,0,0,1,1.69-.39,7.78,7.78,0,0,1,2.09,0,3.9,3.9,0,0,1-1.18,1.85,4.67,4.67,0,0,1-1.76,1,4.62,4.62,0,0,1-2.06.22,3.42,3.42,0,0,1-2-.92"/>
      </g>
      <path id="path544" class="cls-13" d="M643.44,467.89a9.17,9.17,0,0,1,1.39-.52,2.68,2.68,0,0,1,1.08-.07,2.54,2.54,0,0,1,1,.4,4,4,0,0,1,1.13,1.08,2.74,2.74,0,0,1-1.26,1,2.62,2.62,0,0,1-1.32.15,2.64,2.64,0,0,1-1.27-.57,2.15,2.15,0,0,1-.79-1.48"/>
      <g id="g546">
        <path id="path548" class="cls-13" d="M641.33,370.68a16.91,16.91,0,0,1,1.67-.89,6.44,6.44,0,0,1,3.19-.54,5.4,5.4,0,0,1,1.91.54,4,4,0,0,1-1.4,1.49,4.25,4.25,0,0,1-1.72.66,4.43,4.43,0,0,1-1.88-.06,2.88,2.88,0,0,1-1.77-1.2"/>
      </g>
      <g id="g550">
        <path id="path552" class="cls-14" d="M377.1,213.29c1.2,3.68-8.78,12.74-17.69,11.38-2.84-.44-6.85-2.12-7.2-4.69-.52-3.83,7.38-7.25,7.85-7.45,6.73-2.83,16-2.34,17,.76"/>
      </g>
      <g id="g554">
        <path id="path556" class="cls-14" d="M276.41,320.32c1.93,2.16-2.34,9.61-7.3,14.21-2,1.9-7.75,6.6-9.76,5.11-2.34-1.71.07-11.83,6.84-16.77,3.38-2.45,8.69-4.27,10.22-2.55"/>
      </g>
      <g id="g558">
        <path id="path560" class="cls-14" d="M257.34,380.76c2-1.48,4.4-3.26,6-2.44,3.11,1.58,2.63,12.29-3,18-.81.82-3.68,3.76-6.17,2.91-3.21-1.07-3.23-7.41-3.23-7.79,0-6.11,5.28-9.86,6.38-10.68"/>
      </g>
      <path id="path562" class="cls-14" d="M257.74,470c4.88,3.84,4.69,21.38-5.1,25.32-3.1,1.24-8.61,1.68-11.56-1.31-4.38-4.44-.42-13.65-.17-14.21,3.44-7.78,12.71-13,16.83-9.8"/>
      <g id="g564">
        <path id="path566" class="cls-14" d="M639.77,299.23c4.06-3.23,21,8.51,24.16,22.6,1,4.47,1,11.25-2.07,12.76-4.62,2.24-13.27-8.48-13.78-9.13-7.29-9.14-11.73-23.52-8.31-26.23"/>
      </g>
      <path id="path568" class="cls-14" d="M662.83,492.77c2.55,1.36,4.31,9,.4,11.31-1.24.73-3.61,1.27-5.23.17-2.4-1.64-1.61-5.9-1.56-6.15.71-3.58,4.24-6.46,6.39-5.33"/>
      <path id="path570" class="cls-14" d="M626.28,563.15c3.79.82,6.62,14,1,21-1.78,2.22-5.26,4.86-7.68,3.88-3.56-1.48-2.54-10-2.48-10.54.92-7.24,6-15,9.2-14.36"/>
      <path id="path572" class="cls-14" d="M561.84,628.5c-.62-1.86,4.63-6.46,9.31-5.8,1.48.22,3.59,1.06,3.76,2.36.27,1.94-3.88,3.67-4.13,3.78-3.54,1.45-8.42,1.22-8.94-.34"/>
      <g id="g574">
        <path id="path576" class="cls-15" d="M476.29,265.27s35-71.67,15.53-105.24S458,97.76,474.65,79.5s54.57,10.34,73.64,36.93,63,1.19,95.2,11.49c13,4.18,43.65,39.46-20,55.63s-78.6,65.27-88.56,106.27c0,0-41.44,12.8-58.63-24.55"/>
      </g>
      <g id="g578">
        <path id="path580" class="cls-16" d="M479.89,75.53S491.28,64.6,533.13,95.6c15.26,11.29,15.22,22.79,78.21,23.29,32.22.25,42.57,16.27,42.57,16.27-7.59-3-18.86-6.13-31.52-3.8-15.51,2.85-18.74,11.23-37.5,18.13-10.61,3.89-27.22,10-42,3.63-12.45-5.36-18.91-17.58-28.52-35.68-7.24-13.66-9.19-22.58-19.65-32.43-5.6-5.26-11-7.61-14.8-9.48"/>
      </g>
      <g id="g582">
        <path id="path584" class="cls-16" d="M601.42,73.89a40.82,40.82,0,0,1,18.5-8.26,30.12,30.12,0,0,1,10.5.05,27.94,27.94,0,0,1,9.91,3.95,33.21,33.21,0,0,1,7.65,7.3l1.53,2.13,1.32,2.23a46.46,46.46,0,0,1,2.33,4.62,64.44,64.44,0,0,1,4.73,19.66,125.51,125.51,0,0,0-7.55-18.3c-3.13-5.66-7-10.88-12.2-14.3a28.1,28.1,0,0,0-17.87-4.26,57.49,57.49,0,0,0-18.85,5.18"/>
      </g>
      <g id="g586">
        <path id="path588" class="cls-16" d="M550.83,59.24A57.18,57.18,0,0,0,539.92,43a28.05,28.05,0,0,0-16.32-8.42c-6.14-.81-12.52.6-18.57,2.86a124.14,124.14,0,0,0-17.66,9,64.07,64.07,0,0,1,16.42-11.83,41.42,41.42,0,0,1,4.76-2l2.47-.83,2.54-.62a33.41,33.41,0,0,1,10.57-.54,28.34,28.34,0,0,1,10.09,3.46,30.68,30.68,0,0,1,8,6.84,40.72,40.72,0,0,1,8.61,18.34"/>
      </g>
      <g id="g590">
        <path id="path592" class="cls-16" d="M562.5,84.23c.88,4-1.1,7.19-2.07,8.79s-2.32,3.78-3.94,3.6c-1.46-.17-2.28-2.24-3-4-.82-2.06-2.1-5.32-.76-8.91.76-2,2.89-5.58,5.49-5.32,3,.31,4.19,5.49,4.25,5.83"/>
      </g>
      <g id="g594">
        <path id="path596" class="cls-16" d="M584.19,93.86c-1,4-4.16,6-5.76,7s-3.74,2.36-5.12,1.49c-1.22-.79-1-3-.9-4.89.17-2.21.46-5.7,3.25-8.33,1.55-1.46,5.05-3.73,7.27-2.35,2.54,1.6,1.34,6.78,1.26,7.1"/>
      </g>
      <g id="g598">
        <path id="path600" class="cls-17" d="M520,127.84a95.36,95.36,0,0,1,23.1,1.2,98.36,98.36,0,0,1,43.63,19.75S539.63,179.47,520,127.84"/>
      </g>
      <g id="g602">
        <path id="path604" class="cls-16" d="M552.28,131.26s-1.17.36-2.47,3.36a15.83,15.83,0,0,1,6.38-2.51s-.39-1.89-3.91-.85"/>
      </g>
      <g id="g606">
        <path id="path608" class="cls-2" d="M554.54,64.56a32,32,0,0,1,11.1-2.1A33.28,33.28,0,0,1,577,64.18c.89.35,1.83.63,2.68,1.06l2.6,1.33c.83.49,1.58,1.09,2.39,1.64.38.28.8.54,1.17.85l1,1a26.51,26.51,0,0,1,6.46,9.28c-2.49-2.82-4.82-5.63-7.8-7.69a31.89,31.89,0,0,0-9.42-5,44.09,44.09,0,0,0-10.52-2.16,66.75,66.75,0,0,0-11,0"/>
      </g>
      <g id="g610">
        <path id="path612" class="cls-18" d="M503.1,165.36A64,64,0,0,0,516.52,183,54.07,54.07,0,0,0,535,194.25a64.47,64.47,0,0,0,21.52,3.54,124.42,124.42,0,0,0,22.29-2.1,71.41,71.41,0,0,1-22.21,5.22l-2.86.18-2.92,0-1.45,0-1.46-.1c-1-.09-1.93-.15-2.88-.25A61.35,61.35,0,0,1,533.68,198a51.59,51.59,0,0,1-10.47-5.26,49,49,0,0,1-8.9-7.53,46.94,46.94,0,0,1-11.21-19.87"/>
      </g>
      <g id="g614">
        <path id="path616" class="cls-2" d="M667.14,175.48s36.56-10.1,6.12-78c0,0,15,57.11-6.12,78"/>
      </g>
      <g id="g618">
        <path id="path620" class="cls-5" d="M450.78,75.63S488.2,5.44,589.39,7.77c0,0-109.66-10.76-138.61,67.86"/>
      </g>
      <g id="g622">
        <path id="path624" class="cls-6" d="M618.82,21.09c6.22,4,5.55,18.09,1.48,19.74C616,42.59,605,31.75,607.08,24.9a7.79,7.79,0,0,1,4.6-4.75,8.3,8.3,0,0,1,7.14.94"/>
      </g>
      <g id="g626">
        <path id="path628" class="cls-6" d="M566.47,13c-9,4.32-22-3.11-21.52-6.17.33-2.22,7.68-2.75,17.62-3.47,9.24-.66,10.21.48,10.49,1.07,1,2.1-2.49,6.62-6.59,8.57"/>
      </g>
      <g id="g630">
        <path id="path632" class="cls-6" d="M601.73,9.3c2.39,1.24,5.95,3.09,5.63,4.16-.42,1.46-8.26,2.12-11.05-1.84-.91-1.27-1.48-3.31-.72-4,1-1,3.87.55,6.14,1.72"/>
      </g>
      <g id="g634">
        <path id="path636" class="cls-6" d="M579.86,18.41c.39.67,1.44,2.42.77,3.7-1.11,2.15-6.77,2.79-8.71-.15-1.44-2.19-.58-6,1.72-7s5.11,1.55,6.22,3.44"/>
      </g>
      <g id="g638">
        <path id="path640" class="cls-6" d="M643.06,40a3.76,3.76,0,0,1-2.56,3.36,3.73,3.73,0,1,1-1.8-7.21A3.9,3.9,0,0,1,643.05,40"/>
      </g>
      <g id="g642">
        <path id="path644" class="cls-6" d="M599.39,49.88c1.4,4.5.45,10.45-2.1,11.21-2.4.69-5.7-3.36-7.21-6.3-2.67-5.14-2.73-12.49-.11-13.62s7.78,3.45,9.42,8.71"/>
      </g>
    </g>
  </g>
</svg>
