<svg xmlns="http://www.w3.org/2000/svg" viewBox="0 0 1121.9 881.03">
  <defs>
    <style>
      .cls-1 {
        fill: #a4c53a;
      }

      .cls-2 {
        fill: #a2b33a;
      }

      .cls-3 {
        fill: #7c3314;
      }

      .cls-4 {
        fill: #965626;
      }

      .cls-5 {
        fill: #964526;
      }

      .cls-6 {
        fill: #aa623d;
      }

      .cls-7 {
        fill: #613314;
      }

      .cls-8 {
        fill: #b6db3a;
      }

      .cls-9 {
        fill: #7fac27;
      }

      .cls-10 {
        fill: #deeebb;
      }

      .cls-11 {
        fill: #c4e2aa;
      }

      .cls-12 {
        fill: #313a18;
      }

      .cls-13 {
        fill: #c8dc89;
      }

      .cls-14 {
        fill: #b6d170;
      }

      .cls-15 {
        fill: #92a16f;
      }

      .cls-16 {
        fill: #f2f8e4;
      }

      .cls-17 {
        fill: #ffd146;
      }

      .cls-18 {
        fill: #ffe56a;
      }

      .cls-19 {
        fill: #fff4a4;
      }

      .cls-20 {
        fill: #aed6b8;
      }
    </style>
  </defs>
  <g id="Layer_2" data-name="Layer 2">
    <g id="svg2">
      <g id="g1198">
        <path id="path1200" class="cls-1" d="M433.62,604.56S390,622,351.45,581.62c0,0,43.84,6,82.2-22.54,0,0,29,23.86,0,45.48"/>
      </g>
      <g id="g1202">
        <path id="path1204" class="cls-2" d="M424.6,581.45A56.49,56.49,0,0,1,370,587s32.72-.08,54.62-5.5"/>
      </g>
      <g id="g1206">
        <path id="path1208" class="cls-3" d="M803.71,284c1,2.66,38.67,78.92,13.2,151.94S693.49,600.73,587.45,627.22,413.36,586,410,517.69c-3.82-76.17,27-97.84,82.79-143.57s99.53-76,99.53-76,3.78-52.67,84.6-69.93,112.52,17,126.81,55.81"/>
      </g>
      <g id="g1210">
        <path id="path1212" class="cls-4" d="M615.11,269.3s27.13-23.14,69.56-25,87.51,10.31,108,64.12,14.13,114.48-20.13,169.73S661,590.59,570.85,606.53,417.56,573.06,408.09,494.26l207.57-222-.55-2.92"/>
      </g>
      <g id="g1214">
        <path id="path1216" class="cls-5" d="M399.47,551.41c3.42,17.12,25.37,27.12,29.37,23.64,1-.86.47-2.2-.95-10.32-3.11-17.71-2-19-4.4-24.76-.83-2-6.44-15.42-12.92-15.08s-13.5,14.5-11.1,26.52"/>
      </g>
      <g id="g1218">
        <path id="path1220" class="cls-5" d="M498.94,627c-2.18,7.47-17.27,8.79-19.62,9-20.53,1.79-41.33-13-46.68-31.29-1.66-5.72-3.49-17.42,2.07-21.37s15.5,1.84,27.7,9.09C475.16,600,502.17,616,498.94,627"/>
      </g>
      <g id="g1222">
        <path id="path1224" class="cls-5" d="M636.75,603.32c-.12,8.26,33.65,24.52,47.92,10.62,8.49-8.25,8.8-25.86,1.94-30.69-4.5-3.19-13.63,1-31.91,9.25-11.94,5.43-17.91,8.2-18,10.82"/>
      </g>
      <g id="g1226">
        <path id="path1228" class="cls-5" d="M773,508.21c-9.29-6.35-34.14,15.83-41.62,22.49-9.52,8.5-32.09,28.62-26.73,40.26,4.53,9.88,28.48,12,44.92,3.34,27.49-14.45,33.82-59,23.43-66.09"/>
      </g>
      <g id="g1230">
        <path id="path1232" class="cls-5" d="M784.83,219c21.48,12.19,23.5,48.18,15.4,52.87-2.43,1.42-4.33-.87-23.71-10.45-17.86-8.85-21.33-9.41-25.43-14.79-4.47-5.86-9-16.56-4.91-24,5.65-10.18,25.94-10.9,38.65-3.67"/>
      </g>
      <g id="g1234">
        <path id="path1236" class="cls-5" d="M607.32,253c-.82,2.91-2.73,9.88.3,12.37,1.58,1.28,5.18,1.95,33.43-16,16.76-10.68,20-13.82,19.49-16.84-.8-4.33-9.1-6.4-13.41-6.94-16.74-2.08-35.28,11.14-39.81,27.44"/>
      </g>
      <g id="g1238">
        <path id="path1240" class="cls-5" d="M805.05,418.57c-8.88,32.08-13.32,48.14-6.15,54.35,11.42,9.94,52.41-3.67,62.21-32.64,10.83-32-20.63-70-35.58-67.5-8.18,1.39-12.27,16.19-20.48,45.79"/>
      </g>
      <g id="g1242">
        <path id="path1244" class="cls-6" d="M772.49,513c-1-.2-.07,12.54-10,24.62-8.41,10.24-17.2,10.95-22.6,22.82-.62,1.36-4.5,10.1-1.51,12.8s11.07-1.67,14.8-4.19c22.06-14.84,21.14-55.68,19.3-56"/>
      </g>
      <g id="g1246">
        <path id="path1248" class="cls-6" d="M755.29,222.11c-.91,4.27,10.21,10.87,20.17,13.22,4.1,1,15.09,2.89,16.64-.56,1.8-4-8.91-15.48-21.47-16.92-6.27-.72-14.61.86-15.34,4.26"/>
      </g>
      <g id="g1250">
        <path id="path1252" class="cls-6" d="M654.28,231.33c-1-3.05-8.26-3.48-12.8-3-13.46,1.37-25.25,13-23.52,17,.73,1.69,3.83,1.77,8.47,1.88a33.06,33.06,0,0,0,19.54-6c2.37-1.65,9.4-6.53,8.31-9.88"/>
      </g>
      <g id="g1254">
        <path id="path1256" class="cls-6" d="M830.76,385.49c-8.14,3.17-6.72,28.35.47,45.89,2.31,5.6,7.17,17.48,13.28,17.31,7.43-.23,15.78-18.21,13-34-3-17.24-19.37-32.09-26.77-29.21"/>
      </g>
      <g id="g1258">
        <path id="path1260" class="cls-6" d="M407.34,529.46c-1.32-.21-8.53,15.1-2.26,26.64,3.12,5.74,8.94,9.35,10,8.48,1.29-1-4.44-7.35-6.85-18.93-2.06-9.95-.09-16.07-.91-16.19"/>
      </g>
      <g id="g1262">
        <path id="path1264" class="cls-6" d="M440.77,604.54c-3.26,3.68,4.53,20.08,18.09,26.21,10,4.54,23.07,3.47,24.53-.76,2-5.66-17.29-16.58-19.82-18-4.88-2.76-19.57-11.08-22.8-7.43"/>
      </g>
      <g id="g1266">
        <path id="path1268" class="cls-6" d="M687.16,595.62c-3.17-2.57-12.67,4.3-17.53,9-2.57,2.5-8.3,8-6.86,10.9,1.63,3.24,12.42,3.18,19-2.44,6.13-5.26,8.27-15.12,5.42-17.42"/>
      </g>
      <g id="g1270">
        <path id="path1272" class="cls-7" d="M746.79,266.76a9.48,9.48,0,0,0,2.4-3.23,8.8,8.8,0,0,0,1-3.92,6.58,6.58,0,0,0-2.77,3.06,6.41,6.41,0,0,0-.59,4.09"/>
      </g>
      <g id="g1274">
        <path id="path1276" class="cls-7" d="M654.4,255.41a3.07,3.07,0,0,0,0-2.31,2.92,2.92,0,0,0-1.64-1.63,2.61,2.61,0,0,0-.22,2.38,2.53,2.53,0,0,0,1.82,1.56"/>
      </g>
      <g id="g1278">
        <path id="path1280" class="cls-7" d="M803.31,362.34a14.72,14.72,0,0,0-4.36-.82,14.25,14.25,0,0,0-2.16.06,8.15,8.15,0,0,0-2.26.54,7.86,7.86,0,0,0,4.33,1.41,9.11,9.11,0,0,0,2.27-.22,5.13,5.13,0,0,0,2.18-1"/>
      </g>
      <g id="g1282">
        <path id="path1284" class="cls-7" d="M799.22,403.56a13.66,13.66,0,0,0-4.38-1.62,11.15,11.15,0,0,0-4.71,0,9.17,9.17,0,0,0,4.31,2,11.13,11.13,0,0,0,2.38.17,6.12,6.12,0,0,0,2.4-.53"/>
      </g>
      <g id="g1286">
        <path id="path1288" class="cls-7" d="M787.09,446.34a9.55,9.55,0,0,0-3.3-2.42,8.7,8.7,0,0,0-4-.89,7.08,7.08,0,0,0,3.18,2.72,6.74,6.74,0,0,0,4.15.59"/>
      </g>
      <g id="g1290">
        <path id="path1292" class="cls-7" d="M765.6,486.39a7.53,7.53,0,0,0-5.71-4.92,6.89,6.89,0,0,0,2.2,3.23,7.09,7.09,0,0,0,3.51,1.69"/>
      </g>
      <g id="g1294">
        <path id="path1296" class="cls-7" d="M726.48,529a5.89,5.89,0,0,0-1.62-3.22,6,6,0,0,0-3.09-1.87,6.49,6.49,0,0,0,4.71,5.09"/>
      </g>
      <g id="g1298">
        <path id="path1300" class="cls-7" d="M690.58,555.35a6.51,6.51,0,0,0-.41-3.69,6.36,6.36,0,0,0-2.28-2.95,6.86,6.86,0,0,0,2.69,6.64"/>
      </g>
      <g id="g1302">
        <path id="path1304" class="cls-7" d="M578.51,600.93a13,13,0,0,0,0-5.34,12.56,12.56,0,0,0-2-5,13.15,13.15,0,0,0,0,5.34,12.84,12.84,0,0,0,2,5"/>
      </g>
      <g id="g1306">
        <path id="path1308" class="cls-7" d="M524.5,606.38a11.38,11.38,0,0,0,1.1-4.86,11.08,11.08,0,0,0-.92-4.86,12.2,12.2,0,0,0-.18,9.72"/>
      </g>
      <g id="g1310">
        <path id="path1312" class="cls-7" d="M472.05,583.45a4.51,4.51,0,0,0-2.13,2.25,4.38,4.38,0,0,0-.3,3.08,4.54,4.54,0,0,0,2.12-2.25,4.63,4.63,0,0,0,.31-3.08"/>
      </g>
      <g id="g1314">
        <path id="path1316" class="cls-7" d="M440.08,557.06a5,5,0,0,0-3.17.69,4.91,4.91,0,0,0-2.16,2.43,5.24,5.24,0,0,0,5.33-3.12"/>
      </g>
      <g id="g1318">
        <path id="path1320" class="cls-7" d="M418.15,519.13a1.71,1.71,0,0,0-1.7-.39,1.06,1.06,0,1,0,1.7.39"/>
      </g>
      <g id="g1322">
        <path id="path1324" class="cls-1" d="M805.21,110.41s90.09-23,135.82,36,24,113.53-.62,134.39c-32.6,27.68-125.3,56.52-147.86,65.65,0,0-47.62-44-35.1-70.64,0,0,97.83-25.58,88-70.44S786,148.7,786,148.7s-13.34-34.84,19.24-38.29"/>
      </g>
      <g id="g1326">
        <path id="path1328" class="cls-2" d="M829.74,143.22s54.11,31.18,38.85,78.52c-6.81,21.09-56.28,58.48-114.28,60.4l3.14-6.31S860,236,843,199.31c-1.39-3-5.17-15.95-29.86-29.1l16.64-27"/>
      </g>
      <g id="g1330">
        <path id="path1332" class="cls-8" d="M903.87,129.69S1043.35,230,865.7,312c0,0,116.85-71.3,38.17-182.32"/>
      </g>
      <g id="g1334">
        <path id="path1336" class="cls-9" d="M862.55,165.15c8.57-4,9.63-21.14,4.72-24.08-3.7-2.23-12.08,2.84-15.52,9.56-.45.89-4.31,8.5-.45,12.9,2.64,3.05,7.87,3.22,11.25,1.62"/>
      </g>
      <g id="g1338">
        <path id="path1340" class="cls-9" d="M874.94,134.6c4.37.79,10.58-.2,11.78-3.57,1.52-4.25-5.88-9.82-6.62-10.37-6.78-5.11-17.58-7.09-19.78-3.65-2.45,3.83,4.9,15.82,14.62,17.59"/>
      </g>
      <g id="g1342">
        <path id="path1344" class="cls-9" d="M934,184.38c6.45-10.69-7.89-31.47-17.44-30.49-6.52.67-11.87,11.63-11.87,20.71,0,2.58,0,10.14,5.4,14.3,7.07,5.44,19.82,2.25,23.91-4.52"/>
      </g>
      <g id="g1346">
        <path id="path1348" class="cls-9" d="M865.36,235.07c-1-5.67-12-3.14-14.91,1.12-2.17,3.22-.47,8.56,3.26,9.84a8,8,0,0,0,8.39-2.14c2.54-2.61,3.65-6.57,3.26-8.82"/>
      </g>
      <g id="g1350">
        <path id="path1352" class="cls-9" d="M834.42,315.62c-3.68,2.28,1.54,9.07,5.43,9.81,2.94.58,6.14-2.1,5.87-5a6.11,6.11,0,0,0-4.11-5.1,9.25,9.25,0,0,0-7.19.31"/>
      </g>
      <g id="g1354">
        <path id="path1356" class="cls-1" d="M661.17,113s-54,9-101.56,32.52-85.94,69.9-79,110.85,59.74,71.18,59.74,71.18,52,1.44,59.14-31.16c2.2-10-17.54-19.57-24.51-32.84s22.1-75.46,96.07-123.68-9.9-26.87-9.9-26.87"/>
      </g>
      <g id="g1358">
        <path id="path1360" class="cls-2" d="M559.61,145.5s-115.53,78.09-29.93,175c0,0-140.33-85.77,29.93-175"/>
      </g>
      <g id="g1362">
        <path id="path1364" class="cls-8" d="M606,182.61s-68.29,50.79-30.48,97.74c0,0-68.44-46.62,30.48-97.74"/>
      </g>
      <g id="g1366">
        <path id="path1368" class="cls-9" d="M509.16,218.88c1.82,2.9,5.78,4.75,7.56,3.57,2.82-1.89,1.06-12.34-2.87-13.3-1.92-.46-4.46,1.28-5.46,3.52-1.31,2.9.43,5.66.77,6.21"/>
      </g>
      <g id="g1370">
        <path id="path1372" class="cls-9" d="M519.4,294.37c1,3.2,4.32,6.3,7.6,6,4.3-.43,6.75-6.66,6.59-11.22-.1-3.33-1.69-8.2-4.57-8.76-4.21-.81-11.68,7.42-9.62,14"/>
      </g>
      <g id="g1374">
        <path id="path1376" class="cls-9" d="M543.25,185c3.1,3.85,9.54,7.42,14.53,4.91,4.64-2.32,5.57-8.66,5.24-12.37-.82-9.53-11.25-18.23-17.14-16.08s-8.68,16-2.63,23.54"/>
      </g>
      <g id="g1378">
        <path id="path1380" class="cls-9" d="M574.06,194.9c1.24,4,6.16,6.23,9.79,5.45,6.64-1.42,9.54-13,6.11-16.44-2.21-2.24-7-1.2-9.87.35-3.18,1.72-7.47,6-6,10.64"/>
      </g>
      <g id="g1382">
        <path id="path1384" class="cls-9" d="M571.49,144.69c-3.07,5.93,3.67,16.58,7.59,16.08,4.14-.53,8-13.88,3.25-18.29a6.93,6.93,0,0,0-5.68-1.68,7.52,7.52,0,0,0-5.16,3.89"/>
      </g>
      <g id="g1386">
        <path id="path1388" class="cls-1" d="M438.06,487.87s-84.2,102.86-258.65,87.48S0,567.93,0,567.93s51.68-86.12,191.27-90.75S361.7,474,389.39,469.93s47.7-21.22,48.67,17.94"/>
      </g>
      <g id="g1390">
        <path id="path1392" class="cls-2" d="M385.46,479.54S246.05,504.26,165.8,510.9,20.89,556.21,20.89,556.21s46.29-63.72,165.23-70.51c159.31-9.09,153.93-2.38,199.34-6.16"/>
      </g>
      <g id="g1394">
        <path id="path1396" class="cls-8" d="M415.65,496.68s-79.24,68.39-204.42,73.51c0,0,164.19-44.64,204.42-73.51"/>
      </g>
      <g id="g1398">
        <path id="path1400" class="cls-9" d="M63,530.55c-5.29,5.35,4.39,28.17,13.27,28.21,4.59,0,7.92-6,8.08-6.33,3.7-7-.82-14.35-1.2-14.95-5-7.8-16.62-10.49-20.15-6.93"/>
      </g>
      <path id="path1402" class="cls-9" d="M35.68,546.69c-.13,4.18,2.86,8.92,6.82,9.62,5.3,1,10.72-5.57,10.89-11.54.08-2.75-.89-7-3.87-8.35-4.74-2.19-13.6,3.31-13.84,10.27"/>
      <g id="g1404">
        <path id="path1406" class="cls-9" d="M88.72,512.4c-.8,2.29,2.08,6,5.28,6.72,5.39,1.29,11.56-5.67,10.58-8.27-.84-2.24-7.13-1.77-10.09-1.23-2.39.44-5.15,1-5.77,2.78"/>
      </g>
      <g id="g1408">
        <path id="path1410" class="cls-9" d="M120.2,529.53c-.36,5.31,4.06,11.31,8.71,11.11,4.48-.18,7.24-6,8-9.66.8-4,.14-10.05-3.33-11.64-4.38-2-12.9,3.27-13.35,10.19"/>
      </g>
      <g id="g1412">
        <path id="path1414" class="cls-9" d="M188.8,558.25c.23,3.77,8.39,6.91,15,7.07,11.06.24,22.22-7.78,21.33-12.18-.77-3.85-10.8-5.25-17.68-4.64-8.67.79-18.92,5.42-18.68,9.75"/>
      </g>
      <g id="g1416">
        <path id="path1418" class="cls-9" d="M315.73,498.49a5.12,5.12,0,0,0,4.93,5.79,4.83,4.83,0,0,0,4.11-3.23,5,5,0,0,0-2.08-6,5.1,5.1,0,0,0-7,3.47"/>
      </g>
      <g id="g1420">
        <path id="path1422" class="cls-1" d="M680.19,549.43S663.47,634,588.89,703.28s-190.29,154.59-208.67,176-.08-166,80.67-218,157.88-65,181.62-99.65c0,0,30.57-36.25,37.68-12.24"/>
      </g>
      <g id="g1424">
        <path id="path1426" class="cls-2" d="M382.55,859.05s20.3-152.26,144.58-214.55c14.15-7.11,69.57-35.23,93.12-53.73,0,0-29.71,42.49-78,75.06S409.71,773.67,382.55,859.05"/>
      </g>
      <g id="g1428">
        <path id="path1430" class="cls-8" d="M401.34,852.51S584.48,703.57,631.59,633.09c0,0-175.13,130.44-230.25,219.42"/>
      </g>
      <g id="g1432">
        <path id="path1434" class="cls-9" d="M410.17,810.09c-2-2.48-7.51-1.71-10.74.87-5.25,4.15-5.53,13.89-2.5,15.87,2.52,1.66,7.63-1.88,10.3-5.21,2.35-2.93,5.23-8.76,2.94-11.53"/>
      </g>
      <g id="g1436">
        <path id="path1438" class="cls-9" d="M397.43,852.21c-.8-.93-2.31-1.93-3.6-1.54-2.32.74-3.42,5.89-1.2,7.91a3.83,3.83,0,0,0,4.71.16c1.86-1.47,1.61-4.72.09-6.53"/>
      </g>
      <g id="g1440">
        <path id="path1442" class="cls-9" d="M446.49,814.77c1.69-7.44-5.53-15.93-10.51-15.22-4.09.57-6,7.22-6.16,8-1.3,4.64-1.15,12.33,3.09,14.92,4.54,2.8,12.14-1.31,13.58-7.65"/>
      </g>
      <g id="g1444">
        <path id="path1446" class="cls-9" d="M426.81,765.68c-1.92-9.2-18.41-13.57-22.78-8.84-3,3.3-.48,11.22,2.36,15.7,1.18,1.88,4.93,7.81,10.2,7.73,6.17-.09,11.49-8.39,10.22-14.59"/>
      </g>
      <g id="g1448">
        <path id="path1450" class="cls-9" d="M469.44,754.54c-2.22-2.13-5.43-1.68-7.24-.86-3.82,1.69-5.92,7-4.34,9.68,1.95,3.37,10,3.65,12.51-.64a7,7,0,0,0-.93-8.18"/>
      </g>
      <g id="g1452">
        <path id="path1454" class="cls-9" d="M479.64,680.18c-1.17-6.11-13.47-9.11-15.71-6.16-1.54,2,1.64,6.85,2,7.34,2.06,3.1,6.7,7.26,10.39,5.61a6.52,6.52,0,0,0,3.35-6.79"/>
      </g>
      <g id="g1456">
        <path id="path1458" class="cls-9" d="M596.43,642.94c-.48-.46-4.68-4.42-7.59-2.65-2.22,1.38-2.51,5.44-1.08,7.92,2.48,4.37,10.41,4.2,11.77,1.61,1-1.88-1.39-5.25-3.1-6.88"/>
      </g>
      <g id="g1460">
        <path id="path1462" class="cls-9" d="M542.87,717.85c-.8-3-4.78-4.68-6.5-3.46-1.27.91-1.19,3.3-.69,4.82.73,2.1,2.93,4.46,5,3.89,1.84-.52,2.78-3.2,2.23-5.25"/>
      </g>
      <g id="g1464">
        <path id="path1466" class="cls-10" d="M786.73,316c12.08,29.87,5.86,98-14.24,138.92-55,112-193.83,141-259.42,138.73-47.05-1.62-114-60-98.22-137.82S587.1,269.31,649.28,257.67c46.57-8.73,111.62-5.55,137.45,58.31"/>
      </g>
      <g id="g1468">
        <path id="path1470" class="cls-11" d="M648.41,268.69s-316,118.12-189.47,282.36c12.66,16.45,57.64,42.67,127.62,28.67,0,0-252.72-73.76,61.85-311"/>
      </g>
      <g id="g1472">
        <path id="path1474" class="cls-1" d="M667.58,255s3.61-37.54-21.67-58.19c-17.49-14.28-39-21.32-48.47-40-6.81-13.45-4.94-26.9-4.07-33.76,6-47.78,69-106.23,140.25-103.71,49.18,1.75,96.59,32.37,110,66.7a90.51,90.51,0,0,1,5.71,37.66c-2.14,20.16-14.88,56.39-63.12,71.85-15.28,4.9-49.78,35.91-52.72,66.72,0,0-37.29,16-65.95-7.23"/>
      </g>
      <g id="g1476">
        <path id="path1478" class="cls-12" d="M796.92,94.74a47.63,47.63,0,0,1-14.57,7.94A41.8,41.8,0,0,1,765.59,105a28.66,28.66,0,0,1-15.9-6.28A30.77,30.77,0,0,1,740.25,85c3.29,4.4,6.92,8.41,11.29,11.21A30.7,30.7,0,0,0,765.93,101a40.47,40.47,0,0,0,7.78-.08,62.1,62.1,0,0,0,7.8-1.27,103.33,103.33,0,0,0,15.41-5"/>
      </g>
      <g id="g1480">
        <path id="path1482" class="cls-12" d="M687.06,90.3a47.79,47.79,0,0,1-12.84,9.86A40.07,40.07,0,0,1,658.44,105a25.05,25.05,0,0,1-22.26-9.91,30.58,30.58,0,0,1-4.06-7c3.48,4.08,7.25,7.77,11.7,10.08A26.44,26.44,0,0,0,658.18,101a36.69,36.69,0,0,0,7.42-1.26,60.93,60.93,0,0,0,7.32-2.43,112.78,112.78,0,0,0,14.14-7"/>
      </g>
      <g id="g1484">
        <path id="path1486" class="cls-12" d="M713.54,125.05c-2.53,3.94-1.68,8.22-1.27,10.34.4,2,1,5,2.82,5.47,1.63.4,3.37-1.52,4.81-3.13,1.7-1.9,4.41-4.91,4.37-9.32,0-2.47-.88-7.19-3.78-7.94-3.37-.87-6.74,4.25-7,4.58"/>
      </g>
      <g id="g1488">
        <path id="path1490" class="cls-12" d="M686.24,126.81c-.54,4.66,2.11,8.12,3.42,9.84s3.12,4,4.94,3.66c1.65-.36,2.34-2.85,2.93-4.93.7-2.46,1.81-6.35-.17-10.3-1.11-2.21-4-6-6.92-5.44-3.39.7-4.15,6.78-4.2,7.16"/>
      </g>
      <g id="g1492">
        <path id="path1494" class="cls-13" d="M786.29,134.42s33.32,10.52,13.07,37.49-45.84,28.17-60.24,47-17.34,46.83-17.34,46.83-32.27,13.16-44.73-4.55c0,0,5.19-31.8-1.94-48.22S624,180.85,617.68,158.09,637,126.46,637,126.46s19.29,42.69,66.27,46c0,0,51.73-10.8,83-38.08"/>
      </g>
      <g id="g1496">
        <path id="path1498" class="cls-12" d="M637,126.46A78.2,78.2,0,0,0,647.33,146c2.08,3.13,4.79,5.75,7.33,8.58a64.52,64.52,0,0,0,8.91,7.16,63.37,63.37,0,0,0,21.15,9.12,79.18,79.18,0,0,0,22.89,1.48c15.22-1.13,29.63-6,42.84-12.62a143.33,143.33,0,0,0,35.84-25.25,335.91,335.91,0,0,1-39,18c-13.22,5-26.8,8.82-40.42,9.84a82.8,82.8,0,0,1-20.23-.78,65.24,65.24,0,0,1-19-6.55,43.36,43.36,0,0,1-4.44-2.53c-1.4-1-2.82-1.92-4.27-2.85a79.4,79.4,0,0,1-7.88-6.82c-5.25-4.74-9.48-10.53-14-16.27"/>
      </g>
      <g id="g1500">
        <path id="path1502" class="cls-2" d="M741.91,113.78s-34.23-17-70.76-.81c0,0,37.34-27.33,70.76.81"/>
      </g>
      <g id="g1504">
        <path id="path1506" class="cls-1" d="M838.48,156.14s57.22-91.91-77-132.79c0,0,72.17,21.43,77,132.79"/>
      </g>
      <g id="g1508">
        <path id="path1510" class="cls-2" d="M624.42,182s-57.32-16.72-22.33-85.74c0,0-22.13,46.35,22.33,85.74"/>
      </g>
      <g id="g1512">
        <path id="path1514" class="cls-14" d="M738.19,202.45c-5.18,1.28-10.17,2.6-15.18,3.71a129.43,129.43,0,0,1-14.85,2.6,61.35,61.35,0,0,1-14.71,0,42.62,42.62,0,0,1-7.22-1.6,53.05,53.05,0,0,1-7.16-3,24.93,24.93,0,0,0,5.83,5.67,31,31,0,0,0,7.51,3.57,40.29,40.29,0,0,0,16.42,1.35,57,57,0,0,0,15.65-4.1,51.32,51.32,0,0,0,13.71-8.21"/>
      </g>
      <g id="g1516">
        <path id="path1518" class="cls-9" d="M704.35,40c.9-3.08-2.83-7.17-6.78-8.38-6.4-2-14.59,3.28-14.52,6.9.05,3,5.86,5.24,10.12,5.56,3.75.28,10.18-.63,11.18-4.08"/>
      </g>
      <g id="g1520">
        <path id="path1522" class="cls-9" d="M652.87,56.56c.33-1.17.29-3-.76-3.81-1.91-1.51-6.79.48-7.19,3.47a3.81,3.81,0,0,0,2.5,4c2.27.71,4.81-1.35,5.45-3.63"/>
      </g>
      <g id="g1524">
        <path id="path1526" class="cls-9" d="M702.58,80.14c7.09-2.81,10-13.56,6.6-17.27-2.77-3-9.3-.84-10-.59-4.56,1.55-10.82,6-10.58,11,.28,5.33,7.95,9.29,14,6.89"/>
      </g>
      <g id="g1528">
        <path id="path1530" class="cls-9" d="M740,33.13c-5.7-7.48-22.47-4.26-24.35,1.91-1.32,4.27,4.42,10.31,8.93,13.12,1.89,1.17,7.83,4.89,12.55,2.53,5.51-2.76,6.72-12.54,2.87-17.56"/>
      </g>
      <g id="g1532">
        <path id="path1534" class="cls-9" d="M765.26,43.44c.51-3-1.69-5.42-3.36-6.46-3.56-2.2-9.09-1-10.47,1.89-1.65,3.52,2.64,10.31,7.61,10a7,7,0,0,0,6.22-5.4"/>
      </g>
      <g id="g1536">
        <path id="path1538" class="cls-9" d="M784.13,46.23c-1.2-.2-3,0-3.73,1.16-1.29,2.06,1.21,6.71,4.23,6.79a3.82,3.82,0,0,0,3.68-2.92c.46-2.32-1.85-4.64-4.18-5"/>
      </g>
      <g id="g1540">
        <path id="path1542" class="cls-15" d="M771.64,328.21c-16-18.36-46.57-37.75-81.83-46.76-34.64-8.44-66.95-5.8-94,5,32.11-3.63,59.34-3.25,91.58,4.72a291.78,291.78,0,0,1,84.28,37"/>
      </g>
      <g id="g1544">
        <path id="path1546" class="cls-15" d="M772.9,404.23c-16.51-14.43-34.48-27.09-53.11-38.69A417.1,417.1,0,0,0,661.31,335c-20.35-8.47-41.67-15.36-63.84-18.1a128,128,0,0,0-33.41-.15c-11,1.59-28,6-37.11,12.19,10.17-4.12,26.86-7.07,37.53-7.27a146.35,146.35,0,0,1,31.78,3c20.94,4.17,41.27,11.33,61.14,19.62s39.29,17.93,58.5,28,38.1,20.87,57,31.9"/>
      </g>
      <g id="g1548">
        <path id="path1550" class="cls-15" d="M728.18,501.54c-19.84-30.1-58.12-69.1-100.48-97-37-24.65-81-43.29-125.59-45.68C542.5,369.2,581.17,385.7,622.19,413c37.23,24.4,75.31,57.09,106,88.55"/>
      </g>
      <g id="g1552">
        <path id="path1554" class="cls-15" d="M615.05,570.59c-9.11-24.84-31.95-63.47-66.72-98.32-34-33.44-62.59-49.53-92.54-59.71,31.88,19.08,59.9,41.59,85.44,66.86a566.44,566.44,0,0,1,73.82,91.17"/>
      </g>
      <g id="g1556">
        <path id="path1558" class="cls-15" d="M510.6,585.94c-3.05-21.72-16.92-47.32-30.84-64.47a133,133,0,0,0-57.63-42.24c13.92,11.87,34,27.93,49.82,48.59,14.91,18.31,27,37.22,38.65,58.12"/>
      </g>
      <g id="g1560">
        <path id="path1562" class="cls-16" d="M635.26,312.46c1.63,6.08,14.58,9.28,24.29,6,12.22-4.16,20.38-19,16.79-24.61-3.32-5.16-16.74-2.72-25,1.21-7,3.35-17.69,11.19-16,17.43"/>
      </g>
      <g id="g1564">
        <path id="path1566" class="cls-16" d="M473.7,502.23c8.44,2.63,21.25-7.33,25.72-19.2.77-2,5.27-14-1.7-23.87s-22-12.77-29.69-7.7c-14,9.16-7.77,46.58,5.67,50.77"/>
      </g>
      <g id="g1568">
        <path id="path1570" class="cls-16" d="M619.35,505.23c-7.07,4.85-4.9,32.45,10.27,38.13,9.79,3.67,24-2.12,25.69-10.24,1.62-7.7-8.53-15.3-14.28-19.62-3.69-2.76-16.12-12.08-21.68-8.27"/>
      </g>
      <g id="g1572">
        <path id="path1574" class="cls-16" d="M659.72,411.65c3.42,6.72,16,4.72,17,4.56,7.63-1.31,16.66-6.82,16.06-11.38-.88-6.61-22.23-13.6-30.42-5.36-3,3-4.58,8.38-2.64,12.18"/>
      </g>
      <g id="g1576">
        <path id="path1578" class="cls-16" d="M744.57,293.16c1.72,1.74,7.38,7.43,10.45,5.87,3.36-1.69,3.71-12-1.61-17.8-4.82-5.28-13.92-6.6-16.21-3.61-2.46,3.22,3.22,11.38,7.37,15.54"/>
      </g>
      <g id="g1580">
        <path id="path1582" class="cls-16" d="M528.11,408c-.65,6,9.81,14.83,17.87,11.6,5-2,8.59-8.41,7-13.16-2.1-6.28-12.68-8-19.21-4.68-1,.52-5.32,2.65-5.68,6.24"/>
      </g>
      <g id="g1584">
        <path id="path1586" class="cls-16" d="M563.2,547.5c.43,4.24,9.35,8.63,14.75,5.27,3.22-2,5.46-7,3.6-10.26s-6.59-3.12-7.35-3.12c-5.48.08-11.37,4.44-11,8.11"/>
      </g>
      <g id="g1588">
        <path id="path1590" class="cls-16" d="M535.7,357.57c1.72-1.94-.63-8.86-5.41-10.75-6.25-2.45-14.15,4.64-13.48,7.16.19.72,1.07.88,8.72,2.43,8.37,1.69,9.49,1.93,10.17,1.16"/>
      </g>
      <g id="g1592">
        <path id="path1594" class="cls-16" d="M448.8,556a9.33,9.33,0,0,0,10.45,4.42c5.19-1.38,7.84-7.12,6.69-10.9-1.77-5.7-12.49-8-16.58-3.42-2.21,2.44-2.36,6.7-.56,9.9"/>
      </g>
      <g id="g1596">
        <path id="path1598" class="cls-16" d="M757.65,362.15c-2,1-8,4.15-7.73,8,.26,4.37,8.67,8.74,15.59,7.06,8-1.94,13.33-11.9,11-15.91s-12.47-2.42-18.81.9"/>
      </g>
      <g id="g1600">
        <path id="path1602" class="cls-17" d="M833.28,64.93S854.91,139.57,817,180c0,0,62.63,2.43,69.68-48.93s-32.9-67.6-53.43-66.11"/>
      </g>
      <g id="g1604">
        <path id="path1606" class="cls-17" d="M623.34,66.73s-35.87,75.12,1.34,116.15c0,0-60.71-2.32-66.91-53.79s45.1-64.18,65.57-62.36"/>
      </g>
      <g id="g1608">
        <path id="path1610" class="cls-17" d="M854.08,68.4S832.77-2.75,731.94.08s-124,67.54-124,67.54,6.68,8,15.43-.88,47-47,108.7-44.18S833.28,64.92,833.28,64.92s12.41,14,20.8,3.48"/>
      </g>
      <g id="g1612">
        <path id="path1614" class="cls-18" d="M866.6,159.19S912.45,96,844.49,71.73c0,0,31.09,25,22.11,87.46"/>
      </g>
      <g id="g1616">
        <path id="path1618" class="cls-18" d="M610.86,74.93s-27,37.83-11.77,77.82c0,0-55.62-67.48,11.77-77.82"/>
      </g>
      <g id="g1620">
        <path id="path1622" class="cls-18" d="M834.76,50.67s-89-79-195.19-9.52c0,0,96-90.09,195.19,9.52"/>
      </g>
      <g id="g1624">
        <path id="path1626" class="cls-19" d="M870,108.25c3,8,3.38,11.45,4.47,11.38,2-.13,5.06-11.51.74-21.2-4-9-13.45-14.26-15-12.9-1.41,1.22,4.08,7.18,9.81,22.72"/>
      </g>
      <g id="g1628">
        <path id="path1630" class="cls-19" d="M720.47,8.27c0-.89,8-2.29,16.11-2.34,14.6-.09,27.43,4.25,27.24,5.38-.07.47-7.91,0-23.58-1.07-17.66-1.17-19.75-1.52-19.77-2"/>
      </g>
      <g id="g1632">
        <path id="path1634" class="cls-19" d="M584.54,99.29c-2.25,10.86,4.53,22,7.1,21.56,2-.34.64-7.56,4.07-22.55,2.54-11.06,5.15-15.14,3.82-16-2.11-1.39-12.75,6.15-15,17"/>
      </g>
      <g id="g1636">
        <path id="path1638" class="cls-3" d="M836.35,132.79c-7.54,31.09-26.6,47.42-23.52,50.17,3.4,3,31.11-12.22,40.78-38.78,13.9-38.15-16.93-81.12-20.93-79.85-3.23,1,12.86,30.54,3.67,68.46"/>
      </g>
      <g id="g1640">
        <path id="path1642" class="cls-3" d="M598.1,125.64c.69,33.07,24.15,58.43,26.58,57.24,2-1-12-20.54-13.77-51.81-2.14-37.57,15-63.18,12.43-64.33S597.4,92,598.1,125.64"/>
      </g>
      <g id="g1644">
        <path id="path1646" class="cls-3" d="M1000.65,516.92l.34-4c-27.43-2.38-59.11,8.18-96.78,32.27-41.23,26.38-96.11,34.1-139.78,19.64-29.43-9.73-50.84-28.74-60.25-53.53-24.65-64.89,42.24-117.44,67.42-137.22l1.54-1.22c68.26-53.76,87.59-105.58,91.81-139.6,4.57-37.05-7-61-7.48-62l-3.62,1.77c.14.24,11.57,24,7.06,60-4.16,33.19-23.2,83.86-90.26,136.66l-1.55,1.22c-25.81,20.29-94.38,74.16-68.68,141.82,9.86,25.94,32.14,45.8,62.75,55.93,44.78,14.81,101,6.93,143.22-20.08,36.9-23.6,67.73-34,94.26-31.65"/>
      </g>
      <g id="g1648">
        <path id="path1650" class="cls-17" d="M1116.89,541.43l4.94-51.85a16,16,0,0,0-14.43-17.44l-87-8.28a16,16,0,0,0-17.46,14.41L998,530.13a16,16,0,0,0,14.42,17.44l87,8.28a16,16,0,0,0,17.45-14.42"/>
      </g>
      <g id="g1652">
        <path id="path1654" class="cls-18" d="M1002.15,486.38a24.15,24.15,0,0,1,26.34-21.74l70.79,6.73a23.89,23.89,0,0,1,10.6,3.63c-1.8,25.33-17.19,48.44-41.75,58.37-24,9.71-50.47,4.28-69.31-11.81l3.33-35.18"/>
      </g>
      <g id="g1656">
        <path id="path1658" class="cls-20" d="M1007.83,504.76c-1.79,22.25,19,43.17,30.39,40.58,16.82-3.81,24.91-61.94,8.46-71.74-6.79-4.06-16.84.72-19.68,2.08-12.07,5.73-18.29,18.37-19.17,29.08"/>
      </g>
      <g id="g1660">
        <path id="path1662" class="cls-20" d="M1079.26,496.69l.92-9.72a1.68,1.68,0,0,0-1.51-1.84l-12.51-1.19a1.68,1.68,0,0,0-1.83,1.52l-.92,9.72a1.66,1.66,0,0,0,1.5,1.83l12.51,1.19a1.68,1.68,0,0,0,1.84-1.51"/>
      </g>
      <g id="g1664">
        <path id="path1666" class="cls-20" d="M1077.39,516.42l.92-9.72a1.68,1.68,0,0,0-1.5-1.84l-12.53-1.19a1.66,1.66,0,0,0-1.81,1.51l-.92,9.73a1.67,1.67,0,0,0,1.5,1.83l12.53,1.19a1.67,1.67,0,0,0,1.81-1.51"/>
      </g>
      <g id="g1668">
        <path id="path1670" class="cls-20" d="M1075.5,536.16l.94-9.74a1.69,1.69,0,0,0-1.52-1.82l-12.5-1.19a1.7,1.7,0,0,0-1.86,1.51l-.91,9.72a1.68,1.68,0,0,0,1.5,1.84l12.54,1.18a1.66,1.66,0,0,0,1.81-1.5"/>
      </g>
      <g id="g1672">
        <path id="path1674" class="cls-20" d="M1103.27,499l.9-9.72a1.67,1.67,0,0,0-1.49-1.83l-12.53-1.2a1.7,1.7,0,0,0-1.83,1.52l-.91,9.72a1.65,1.65,0,0,0,1.5,1.83l12.52,1.18a1.68,1.68,0,0,0,1.84-1.5"/>
      </g>
      <g id="g1676">
        <path id="path1678" class="cls-20" d="M1101.4,518.7l.9-9.72a1.67,1.67,0,0,0-1.49-1.84L1088.29,506a1.68,1.68,0,0,0-1.83,1.52l-.93,9.72a1.68,1.68,0,0,0,1.52,1.83l12.52,1.18a1.68,1.68,0,0,0,1.83-1.5"/>
      </g>
      <g id="g1680">
        <path id="path1682" class="cls-20" d="M1099.51,538.43l.92-9.73a1.69,1.69,0,0,0-1.51-1.83l-12.51-1.18a1.65,1.65,0,0,0-1.83,1.5l-.93,9.74a1.67,1.67,0,0,0,1.52,1.82l12.51,1.19a1.69,1.69,0,0,0,1.83-1.51"/>
      </g>
      <g id="g1684">
        <path id="path1686" class="cls-3" d="M862.47,168.55s-1.57,14.9-15.3,6.91a49.68,49.68,0,0,1,15.3-6.91"/>
      </g>
      <g id="g1688">
        <path id="path1690" class="cls-3" d="M1000.36,505.3s-7.09,7.07-1.62,20.71a64.2,64.2,0,0,0,1.62-20.71"/>
      </g>
    </g>
  </g>
</svg>
