<svg xmlns="http://www.w3.org/2000/svg" viewBox="0 0 652.54 1003.73">
  <defs>
    <style>
      .cls-1 {
        fill: #7c3314;
      }

      .cls-2 {
        fill: #964526;
      }

      .cls-3 {
        fill: #965626;
      }

      .cls-4 {
        fill: #aa623d;
      }

      .cls-5 {
        fill: #613314;
      }

      .cls-6 {
        fill: #612214;
      }

      .cls-7 {
        fill: #a4c53a;
      }

      .cls-8 {
        fill: #a2b33a;
      }

      .cls-9 {
        fill: #b6db3a;
      }

      .cls-10 {
        fill: #7fac27;
      }

      .cls-11 {
        fill: #89b633;
      }

      .cls-12 {
        fill: #deeebb;
      }

      .cls-13 {
        fill: #c4e2aa;
      }

      .cls-14 {
        fill: #92a16f;
      }

      .cls-15 {
        fill: #f2f8e4;
      }

      .cls-16 {
        fill: #545214;
      }

      .cls-17 {
        fill: #5e6d00;
      }

      .cls-18 {
        fill: #756d00;
      }

      .cls-19 {
        fill: #688414;
      }

      .cls-20 {
        fill: #595100;
      }

      .cls-21 {
        fill: #344214;
      }

      .cls-22 {
        fill: #52d876;
      }

      .cls-23 {
        fill: #52ba74;
      }

      .cls-24 {
        fill: #9cf46f;
      }

      .cls-25 {
        fill: #6d8b38;
      }

      .cls-26 {
        fill: #ece04f;
      }

      .cls-27 {
        fill: #d9d14f;
      }

      .cls-28 {
        fill: #f2f8cc;
      }

      .cls-29 {
        fill: #e0b04d;
      }

      .cls-30 {
        fill: #592614;
      }

      .cls-31 {
        fill: #c8dc89;
      }

      .cls-32 {
        fill: #313a18;
      }

      .cls-33 {
        fill: #b6d170;
      }

      .cls-34 {
        fill: #dfd1cc;
      }

      .cls-35 {
        fill: #e84300;
      }

      .cls-36 {
        fill: #fc5716;
      }

      .cls-37 {
        fill: #fc7216;
      }
    </style>
  </defs>
  <g id="Layer_2" data-name="Layer 2">
    <g id="svg2">
      <path id="path876" class="cls-1" d="M206.82,469.38s9.4-90.42,169.09-95.11,219.6,148,219.6,212.55-27,120.94-64.59,164.4c0,0,0,11.73,12.92,17.61s-4.7,42.27-38.76,35.23L206.82,469.38"/>
      <path id="path878" class="cls-2" d="M580.83,527.22c-1.85,1.08-10.37,6-19.84,3.88,0,0-1-.27-2-.58-16.75-4.93-25.54-17.42-36.15-32.5-13.61-19.35-26.67-37.91-19.91-55.32,6.36-16.36,25.55-21.46,27-21.82,25-6.2,50.23,14,60.65,34.12,8.38,16.19,6.86,31.67,6.16,37.87-.88,7.84-3,26.88-15.85,34.35"/>
      <path id="path880" class="cls-2" d="M560.58,596.79c-3.9,9.68-19.9,11-29.07,9.69-3.61-.53-17.31-2.56-22.41-13.64-5.84-12.65,2.34-30.89,14.48-33.92,10.25-2.56,19.72,6.63,24.66,11.46,3.71,3.6,16.5,16,12.34,26.41"/>
      <path id="path882" class="cls-2" d="M457.43,408.3c-2.35,2.53-7.55,6.89-48.13,6-29.19-.61-44-1.06-52.91-7.93-12.41-9.52-22.76-28.83-16.73-45.92,5.81-16.48,23.85-22.36,29.21-24.12,16.25-5.31,30.16-1.17,47.56,4C436.86,346.42,449,350,457,362.19c8.8,13.45,10.88,34.92.47,46.11"/>
      <path id="path884" class="cls-2" d="M503.87,512.91c-3.16,6.73-10.85,11-18.07,10.79-12.05-.28-21-12.72-21.37-24-.29-10,6.15-21.92,15-22.92,7-.78,12.63,5.43,15.93,9.06,2.56,2.82,14,15.36,8.47,27.09"/>
      <path id="path886" class="cls-2" d="M268.07,404.27c2.87,8.45-25.76,29.23-32.52,24.28-3.84-2.81-.11-13.6.12-14.25.56-1.55,3.51-9.84,12.33-13.22,7.92-3,18.55-1.29,20.07,3.19"/>
      <path id="path888" class="cls-2" d="M579.52,712.59c-6.17,4.51-20.48,12-30.45,6.41-13.47-7.5-13.21-35.54-1.68-52.69,5.87-8.73,19.56-21.92,31.75-17.73,13.37,4.57,15.12,26.66,15.3,28.9.23,3,1.47,23.14-14.92,35.11"/>
      <path id="path890" class="cls-3" d="M507.16,721s1.15,44.18,40,61c0,0-2.57,31.8-51.89,23s11.9-84,11.9-84"/>
      <path id="path892" class="cls-4" d="M583.43,468.87c-3.16,6.73-10.85,10.95-18.07,10.79-12.06-.27-21-12.72-21.37-24-.29-10,6.15-21.94,15-22.94,7-.78,12.63,5.43,15.93,9.07,2.56,2.81,14,15.36,8.47,27.08"/>
      <path id="path894" class="cls-4" d="M400.92,345.86c8.23,2.13,24.1,8.33,23.71,17.16-.52,11.92-30.49,23.5-55.13,23.17C357,386,335.34,382.64,333,372.94c-2.54-10.63,20-21,22.29-22.08,3-1.4,23.8-10.66,45.61-5"/>
      <path id="path896" class="cls-4" d="M522,565.5c4-2.44,12.8,1.72,17.39,4.89,1.81,1.25,8.66,6,9.13,11.57.53,6.38-7.52,10.71-14.56,8.3-6-2.06-9.12-8.2-10.77-11.43-1.24-2.4-5.5-10.72-1.19-13.33"/>
      <path id="path898" class="cls-4" d="M561.31,685.68c-4.32,3.64-8.71,4.6-10.76,2.84-3.44-2.94.16-13.06,5.72-20.45,5-6.57,12.83-12.79,16-11.4,2.45,1.09,1,6.41.17,9.53-.65,2.42-3.57,13.15-11.09,19.48"/>
      <path id="path900" class="cls-4" d="M265.87,406c2.2,3.37-19.84,11.68-25,9.7-3-1.12-.08-5.44.09-5.7.43-.62,2.7-3.94,9.5-5.28,6.09-1.2,14.28-.52,15.45,1.28"/>
      <path id="path902" class="cls-5" d="M488.76,772.63s15.94,6.83,27.79-15.84c0,0-1.27,26.35-27.79,15.84"/>
      <path id="path904" class="cls-6" d="M527.11,743.43a556.28,556.28,0,0,1-15-82.35s-21.15,41,15,82.35"/>
      <path id="path906" class="cls-7" d="M343.39,825s4.69,29.8,39.61,37.79c0,0-17.7-22.2-14.52-52.73,0,0-22.68-8.16-25.09,14.94"/>
      <path id="path908" class="cls-8" d="M359.1,822.43A36.24,36.24,0,0,0,374,854.36s-13.71-26.17-14.89-31.93"/>
      <path id="path910" class="cls-7" d="M431.66,446.82S527.71,412.38,546.5,335.9s4.57-195.42,4.57-195.42,80.68,78.58,90.53,168.46-80,166.7-188.08,149.78c0,0-20.53,3-21.86-11.9"/>
      <path id="path912" class="cls-8" d="M493.2,445.11s156.4-73.85,105.71-207.69c0,0,108.28,174.2-105.71,207.69"/>
      <path id="path914" class="cls-9" d="M533.16,388.16s53.31-10.57,26.22-225.56c0,0,78.94,185.9-26.22,225.56"/>
      <path id="path916" class="cls-10" d="M585.43,230.19c-4.21,1.91-9.8-1.19-11.28-5.87s1.4-10.44,5.87-11.26c3.57-.68,7,2,8.48,4.82,2.13,4.08,1.22,10.36-3.07,12.31"/>
      <path id="path918" class="cls-10" d="M601.59,261.94c-6.2.33-12.13-9.24-10.21-12.47,1.44-2.44,7.88-2.12,11.94.71.54.37,5.15,3.57,4.3,7.3-.6,2.6-3.56,4.32-6,4.46"/>
      <path id="path920" class="cls-10" d="M569.59,278.66c-2.27,1.81-6.17,3.17-7.92,1.6-2.2-2,.35-7.51.6-8.06,2.33-5.06,8-9.57,10.31-8.26,2.61,1.45,2.09,10.66-3,14.72"/>
      <path id="path922" class="cls-10" d="M585.1,301.5c-7.07-4.18-5.24-20.66.58-23.06,4-1.64,10.5,3,13.32,8.3.8,1.48,3.15,5.86,1.32,9.94-2.4,5.35-10.74,7.47-15.22,4.82"/>
      <path id="path924" class="cls-10" d="M588.26,364.86c-3.75.45-8.47-.66-8.79-2.59s4-4.33,6.84-5.33c5-1.72,11.56-1.4,12.2.73s-4.68,6.52-10.25,7.19"/>
      <path id="path926" class="cls-10" d="M521.56,402c-2.18,1.34-5.84,2.56-6.93,1.24s.56-4.63,2.59-6.56c3.1-2.94,8.38-3.79,9.42-2.22s-1.8,5.54-5.08,7.54"/>
      <path id="path928" class="cls-11" d="M585.43,230.19c-4.21,1.91-9.8-1.19-11.28-5.87s1.4-10.44,5.87-11.26c3.57-.68,7,2,8.48,4.82,2.13,4.08,1.22,10.36-3.07,12.31"/>
      <path id="path930" class="cls-7" d="M214.31,787.2s-37.83,32.42-31.67,94.95,28.28,85.43,28.28,85.43-40.32,2.84-56.82,17.9c-15.39,14.06,69.17,16,107.92,14.24s67.81-14.53,67.81-14.53c-14.59-23.49-37.57-56.81-29.07-118.89,1.68-12.27,10.68-41.94,14.1-52-8.75-6-30.2-11.94-100.55-27.14"/>
      <path id="path932" class="cls-8" d="M296.06,835.76s-28.76,70.46,5.88,121c0,0-69.87-40.51-5.88-121"/>
      <path id="path934" class="cls-9" d="M223.75,784.68s-62.73,62.83-7.53,172c0,0-14.15-129.07,44-151.76l-36.49-20.27"/>
      <path id="path936" class="cls-9" d="M204.32,971.54s-76.18,14.09-11,19.81c0,0-23.33-7.92,11-19.81"/>
      <path id="path938" class="cls-8" d="M213.59,969.63s3.8,10.57,55.47,10.57c0,0-26.39-9.4-55.47-10.57"/>
      <path id="path940" class="cls-10" d="M204.32,871.58c-.09,3-2.25,6.13-5.06,6.88-5.6,1.48-12.88-6.83-11.23-11.72,1-2.92,4.85-3.75,5.11-3.8,5.08-1,11.34,3.37,11.18,8.64"/>
      <path id="path942" class="cls-10" d="M228.76,888.75c.86.83,3.42,3.29,2.64,5.72s-4.69,3.8-7,2.69c-3.73-1.74-3.45-9.58-1.1-10.84,1.89-1,5.28,2.22,5.5,2.43"/>
      <path id="path944" class="cls-10" d="M234.44,865.84c-2.65-.3-5.16-6.33-3.61-11.13s7.15-8.21,9.47-6.91c2.62,1.51.66,8.92.57,9.24-1,3.62-3.73,9.11-6.43,8.8"/>
      <path id="path946" class="cls-10" d="M209.46,917.36c-2.54.7-6.06-3-6.68-6.81-.38-2.29.13-5.65,2-6.39,2.44-1,7.14,2.72,7.55,7,.24,2.44-.85,5.63-2.85,6.16"/>
      <path id="path948" class="cls-10" d="M251.44,904.39c-1.42-.28-2.33-2.92-2.06-5,.05-.42.49-3.35,2.52-3.76,1.6-.35,3.26,1.08,3.76,2.5,1,2.86-2.32,6.63-4.22,6.27"/>
      <path id="path950" class="cls-7" d="M482.36,769.64s25.31,13.87,36.79,79-12.31,117.14-12.31,117.14,81.92,24.28,37,33.72-138.57,2.38-163.22-15.23c0,0,11.44-46.39,15.85-85.13s-4.89-81.84-4.12-89.26,60.25-43.58,90-40.28"/>
      <path id="path952" class="cls-8" d="M482.19,782.34S527.4,864,495.11,950.84c0,0,6.45-88.66-12.92-168.5"/>
      <path id="path954" class="cls-9" d="M395.88,808.24s36.11,62.46,0,159.34c0,0,98.62-65.75,40.95-169.31l-40.95,10"/>
      <path id="path956" class="cls-8" d="M434.63,974.91s47.4,10.57,68-5.28c0,0-39.26-1.17-68,5.28"/>
      <path id="path958" class="cls-10" d="M489,867.18c-4.28-.66-5.91-9.58-6.16-11-.19-1-2-10.68,2-12.77,3.75-2,12.61,3,13.72,10.17,1.08,7-5.36,14.26-9.53,13.62"/>
      <path id="path960" class="cls-10" d="M479,890.44c-1.93-1-1.69-4.69-1.16-6.69.81-3.09,3.48-6.44,5.43-6,2.2.5,3.85,6,1.74,9.56-1.28,2.17-4.21,4.06-6,3.14"/>
      <path id="path962" class="cls-10" d="M512.79,904.6c-2.24.84-6.17-4.49-7.92-7.7-.95-1.74-3.43-6.3-1.81-8s6.3-.42,8.93,2.34c4.11,4.28,3.21,12.5.8,13.4"/>
      <path id="path964" class="cls-10" d="M455,908c.64-1.74,4.6-1.71,6.69-1.39,3.17.48,7.2,2.41,7.05,4.17-.17,2-5.42,4-9.41,2.46-2.52-1-4.92-3.64-4.33-5.24"/>
      <path id="path966" class="cls-10" d="M467.64,873.5c-1.12.38-3.06-1.44-3.74-3.42-1.1-3.2,1.06-7.14,2.44-7.09s2.12,4,2.2,4.4c.4,2.09.46,5.64-.9,6.11"/>
      <path id="path968" class="cls-9" d="M405,982.26s32.88,18.78,120.37,14.68c0,0-94.53-14.39-120.37-14.68"/>
      <path id="path970" class="cls-12" d="M344.2,826.36S190.38,838.11,157.5,692.5s16.44-261.87,146.78-273.14c127.35-11,196.42,57.36,211.38,183.9,12.49,105.68-.71,204.32-171.46,223.1"/>
      <path id="path972" class="cls-13" d="M430,467.32s190.47,306.5-196.16,313.54c0,0,174.39,86.3,258-47.55,13.21-21.15,27.31-82.8,7.05-148.85S430,467.32,430,467.32"/>
      <path id="path974" class="cls-14" d="M182.64,494.63C217.58,515,267.72,529,325.1,526.36,377.92,523,417.8,510.5,469,490.82c-41.21,30-93.17,48.92-143.08,51.38-65.09,3-118.25-21.64-143.23-47.57"/>
      <path id="path976" class="cls-14" d="M158.08,563.86c44.7,33.74,105.9,55.86,164.07,53.77,60.36-1.61,113.35-24,166.2-53.77-44.11,39.74-103.61,68-165.81,69.61-67.74,2-132.22-30.67-164.46-69.61"/>
      <path id="path978" class="cls-14" d="M166,658.46c42.54,37.17,102.45,63.78,160.74,61.28,59.91-2,112.48-30.46,161.59-64.8-40.92,44.76-99.17,78.65-161,80.64-64.63,2.77-129.84-33-161.28-77.12"/>
      <path id="path980" class="cls-14" d="M193.31,735.07a255.15,255.15,0,0,0,68.32,36.15c24.08,8.21,49.28,12.33,74.36,11,26.2-1.2,54.23-8.43,73.49-17,23.7-9.68,46.19-22.83,68.31-37.3a230,230,0,0,1-63.05,48.59c-26.79,13.36-48.32,19.93-78,21.59-27.39,1.44-54.95-4.3-79.64-15.28C229.5,770.5,205.5,751,193.31,735.07"/>
      <path id="path982" class="cls-15" d="M444.42,559.14c1.26,4.73-5.43,10.64-14.95,13.2s-18.28.77-19.55-4,5.43-10.66,14.95-13.2,18.28-.79,19.55,4"/>
      <path id="path984" class="cls-15" d="M298.8,596.91c-1.13,4.07-8.57,5.53-16.62,3.28s-13.64-7.36-12.51-11.43,8.57-5.52,16.63-3.28,13.64,7.36,12.5,11.43"/>
      <path id="path986" class="cls-15" d="M267.32,511.32c-1,3.42-5.32,5.19-9.74,3.95s-7.24-5-6.28-8.43,5.3-5.18,9.74-3.94,7.24,5,6.28,8.42"/>
      <path id="path988" class="cls-15" d="M380.48,690.16c1.2,4.47-6.3,10.36-16.77,13.18s-19.92,1.44-21.12-3,6.32-10.37,16.79-13.17,19.92-1.44,21.1,3"/>
      <path id="path990" class="cls-15" d="M466.43,608.67c1.72,3.77-.8,8.6-5.63,10.8s-10.1.91-11.82-2.87.81-8.6,5.62-10.78,10.12-.91,11.83,2.85"/>
      <path id="path992" class="cls-15" d="M226.68,731.12c-2.1,3.66-9.68,3.23-16.9-.94S198.39,719.66,200.5,716s9.68-3.22,16.9,1,11.39,10.52,9.28,14.17"/>
      <path id="path994" class="cls-15" d="M464.75,768.22c1.07,3.38-1.83,7.3-6.45,8.76s-9.24-.11-10.31-3.5,1.83-7.3,6.45-8.76,9.26.11,10.31,3.5"/>
      <path id="path996" class="cls-15" d="M384.9,440.55c-1.12,1.93-4.22,2.25-6.9.69s-4-4.38-2.85-6.32,4.21-2.25,6.91-.7,4,4.38,2.84,6.33"/>
      <path id="path998" class="cls-16" d="M383,279.39s15.68-36.53,87.78-16.79,79.54,91.71,71.34,118.72-27.44,46.9-49.78,59.95c0,0-1.49,4.92,3.55,9.12s-7.47,17-21.83,9.47L383,279.39"/>
      <path id="path1000" class="cls-17" d="M550.51,356.78a12.89,12.89,0,0,1-5.77,4.32c-6.06,1.92-12.63-3.66-14.38-5.12-6.57-5.58-9.64-13.86-15.76-30.43h0c-3.42-10.73-6.08-19.05-1.56-25.76a16.46,16.46,0,0,1,8.1-6.07c10.22-3.6,22.62,3.78,29.08,11.6,10.22,12.4,7.26,28.06,4.69,41.64a21.78,21.78,0,0,1-4.4,9.82"/>
      <path id="path1002" class="cls-17" d="M530,386.31c-4.32,5.11-12.57,4.49-17.72,2-5.46-2.62-10.65-8.88-9.64-16.24.74-5.35,4.72-11.08,10.8-12.22,7.83-1.46,13.39,5.74,14.4,7.06,3.51,4.54,7.06,13.6,2.16,19.37"/>
      <path id="path1004" class="cls-17" d="M502.94,287.91a3.06,3.06,0,0,1-.54.25c-8,3.14-20.73-3.68-21.78-4.26-24.78-13.95-37.15-21-36.52-26.48.64-5.62,8-9.32,11.92-11.26,7.14-3.57,13.69-3.28,19.5-3,8.1.46,16.63.94,23.91,7.46a29.18,29.18,0,0,1,9.15,17.92c.08.62,1.64,15.44-5.64,19.33"/>
      <path id="path1006" class="cls-17" d="M418.67,260.5c.2,3.92-15.25,8.72-17.64,5.73-1.37-1.71,1.67-5.71,1.85-6a9.83,9.83,0,0,1,7.2-3.85c3.94-.19,8.47,2,8.59,4.07"/>
      <path id="path1008" class="cls-17" d="M521.55,436.78c-1.44.09-12.75.74-17-6.51-5.11-8.63,4.48-20.52,5.93-22.25,5.39-6.46,15.61-12.95,24.76-10a14.47,14.47,0,0,1,7.79,5.76c4,6.28.81,14-.22,16.56-3.08,7.59-10.76,15.71-21.25,16.46"/>
      <path id="path1010" class="cls-18" d="M485.52,425.4s-5.09,18.63,10.16,30.94c0,0-5.18,12.94-26.16,2.56s16-33.5,16-33.5"/>
      <path id="path1012" class="cls-19" d="M552.16,338.83c-3.22,1.23-8-3.85-10-6.41-3.1-4.14-3.61-8.59-4.46-17.35s-1.31-13.09.62-14.07c2.88-1.48,9.86,4.66,13.55,11.47,5.63,10.39,4.83,24.63.25,26.36"/>
      <path id="path1014" class="cls-19" d="M486.46,248.19c6.36,2.16,12,4.08,12.21,7.21.43,5.7-17.11,14.91-32.29,11.32-6.7-1.58-14.94-6.12-14.66-10.5.22-3.43,5.62-6.39,7.08-7.18a21.13,21.13,0,0,1,6.43-2.21,43.56,43.56,0,0,1,21.23,1.36"/>
      <path id="path1016" class="cls-19" d="M511.87,362.4c2.41-1.72,7.51,1.71,10,4,2.18,2,6.4,6.81,5,9.3s-8.68,2.3-12.76-1.29a10.58,10.58,0,0,1-3.37-6.24c-.13-1-.61-4.47,1.16-5.75"/>
      <path id="path1018" class="cls-19" d="M530.75,427.31c-8.16,4.07-19.29-1.41-19.48-5.32-.12-2.52,4.39-2.79,13.4-9.81,7.09-5.54,9.09-9.11,11.44-8.3,2.85,1,3.36,7.48,2.59,11.74-.34,1.81-1.88,8.68-8,11.69"/>
      <path id="path1020" class="cls-19" d="M417.46,260.92c-.39,1.34-6.2-.52-12.44.66-.44.09-1.91.37-2.11-.06s1.44-1.86,1.88-2.22a8.5,8.5,0,0,1,1-.75,9.57,9.57,0,0,1,5-1.43c3.5.11,6.92,2.72,6.6,3.8"/>
      <path id="path1022" class="cls-20" d="M466,449.78s10.95-.26,19.14-8.12c0,0-8.6,16.12-19.14,8.12"/>
      <path id="path1024" class="cls-21" d="M491.59,437.5A228,228,0,0,1,495.35,401s-14.67,14.24-3.76,36.46"/>
      <path id="path1026" class="cls-22" d="M481.43,311.22s12.33-39.34,34.93-56.67,56.6-16.81,86.82-32.17,43.58-19.28,48.42-22.88-8.52,56.82-50.46,74.57-82.08,23.84-93.24,33-23.14,11.63-26.47,4.11"/>
      <path id="path1028" class="cls-23" d="M523.84,294.59s42.9-13.24,75.78-24.29c17.44-5.87,35.5-26.7,47.6-62,0,0-21,37.76-59.48,45.92s-63.9,40.32-63.9,40.32"/>
      <path id="path1030" class="cls-24" d="M504.86,286.91s24.86-34,79.66-46.59c0,0-74,3.63-79.66,46.59"/>
      <path id="path1032" class="cls-25" d="M622.87,230.44c4.12-.81,9.09,1.18,9.52,3.72.69,4.1-10.09,11.31-14.25,8.6-2-1.3-2.6-5-1.44-7.8,1.49-3.58,5.4-4.37,6.17-4.52"/>
      <path id="path1034" class="cls-25" d="M627.6,213c1.8,0,3.91,1.28,4.23,3,.43,2.28-2.4,4.47-4.77,5.08-1.74.44-4.48.36-5.2-1-1.06-2,2-7.11,5.74-7"/>
      <path id="path1036" class="cls-25" d="M599.54,228.19c1.56.64,3.34,2.41,3,4.31-.32,1.74-2.31,2.65-3.56,2.9-3.22.66-7.08-1.94-6.94-4.09s4.42-4.4,7.5-3.12"/>
      <path id="path1038" class="cls-25" d="M589.92,262.91a3.06,3.06,0,0,1,2.74,2.71c.17,2.32-3.35,4.38-4.83,3.58-1-.5-1.07-2.2-.83-3.28s1.27-3,2.92-3"/>
      <path id="path1040" class="cls-25" d="M550.68,249c2.79-2.66,9.76-.66,10.12,1.6s-6.4,6.64-9.6,4.76a4.08,4.08,0,0,1-1.84-2.88,4.28,4.28,0,0,1,1.32-3.48"/>
      <path id="path1042" class="cls-25" d="M532.48,282.35c1.87-.61,4.44-.25,4.86.95s-1.5,3.14-3.46,3.78-4.37.28-4.8-.9,1.44-3.18,3.4-3.83"/>
      <path id="path1044" class="cls-22" d="M468.42,443.06s22.25,19.17,29.38,47.58-6.06,44-1,68.38a257.06,257.06,0,0,0,12.81,42.89S462.06,575.16,453.24,552s-8-63.13-11-75.4a243,243,0,0,0-8.33-25.89s9.87-27.51,34.51-7.68"/>
      <path id="path1046" class="cls-23" d="M463.11,448.55s22.09,35,17.64,70.16,19.81,71.65,19.81,71.65-15.42-32.82-6.65-68.78-30.8-73-30.8-73"/>
      <path id="path1048" class="cls-24" d="M443.35,462.35a580.73,580.73,0,0,1,12.55,71.89C457,544.75,467,566.8,484.58,582.11c0,0-18.36-37.2-18.75-73.23-.11-10.56-9.41-35-22.48-46.53"/>
      <path id="path1050" class="cls-25" d="M496.7,569.11c2.13,1,1.46,10.88-2.39,12-2.13.63-5.36-1.4-5.79-3.8s2.1-4.45,4.24-6.19c1.68-1.34,3-2.45,3.94-2"/>
      <path id="path1052" class="cls-25" d="M484.7,573c-.4,1.19-2.8,1.27-3.1,1.28-3.5.1-6.9-3.25-6.41-5,.33-1.2,2.44-1.52,2.64-1.55,3.61-.49,7.47,3.53,6.87,5.29"/>
      <path id="path1054" class="cls-25" d="M487.56,558.31c1,1.75.06,4.32-.86,4.45s-2.23-2.86-2.38-3.26c-.4-1-.89-2.32-.4-2.79s2.8.09,3.64,1.6"/>
      <path id="path1056" class="cls-25" d="M466.52,541a2.79,2.79,0,0,1-1.5,3.2c-2.15,1-5.35-2.11-5-3.4.2-.76,1.61-1,2.25-1.08,1.11-.17,3.67-.21,4.24,1.28"/>
      <path id="path1058" class="cls-25" d="M490.62,511.47c.16,1.36-.74,3-2,3.09a2.22,2.22,0,0,1-2-1.3c-.77-1.64.67-4.14,2-4.15.93,0,1.84,1.2,2,2.36"/>
      <path id="path1060" class="cls-25" d="M455.18,480.34c.5,1.2-.94,3.28-2.32,3.13a2.35,2.35,0,0,1-1.72-3,2.31,2.31,0,0,1,2.5-1.12,2.05,2.05,0,0,1,1.54,1"/>
      <path id="path1062" class="cls-26" d="M399.18,447.32s-70.36-16-66.6-81.34S373.18,258.72,433,271.72c58.42,12.71,80.67,50.68,71.3,105.62-7.82,45.88-26.26,85.33-105.08,70"/>
      <path id="path1064" class="cls-27" d="M483.16,308.87s46.38,154-127.62,104.41c0,0,67.12,59.79,121.57,15.2,8.6-7,22.73-30.9,22-61.28s-16-58.33-16-58.33"/>
      <path id="path1066" class="cls-28" d="M478,349.2c0,2.16-3.77,3.72-8.37,3.5s-8.28-2.16-8.24-4.31,3.77-3.72,8.37-3.49,8.28,2.16,8.24,4.3"/>
      <path id="path1068" class="cls-28" d="M408,345.22c-1,1.53-4.55,1.14-7.87-.9s-5.17-4.93-4.15-6.48,4.55-1.14,7.87.9,5.17,4.93,4.15,6.48"/>
      <path id="path1070" class="cls-28" d="M404.75,305.15c-.87,1.29-3,1.44-4.87.32s-2.61-3.08-1.74-4.37,3-1.44,4.86-.32,2.6,3.08,1.75,4.37"/>
      <path id="path1072" class="cls-28" d="M432.71,395.3c0,2-4.15,3.48-9.19,3.22s-9.09-2.09-9.06-4.13,4.14-3.47,9.18-3.23,9.11,2.11,9.07,4.14"/>
      <path id="path1074" class="cls-28" d="M481.54,372.91c.29,1.81-1.46,3.49-3.9,3.75s-4.64-1-4.93-2.8,1.45-3.48,3.89-3.75,4.64,1,4.94,2.8"/>
      <path id="path1076" class="cls-28" d="M358.66,391.52c-1.42,1.24-4.75,0-7.46-2.69s-3.77-5.95-2.36-7.19,4.75,0,7.46,2.7,3.76,5.94,2.36,7.18"/>
      <path id="path1078" class="cls-15" d="M460.54,439.39c0,1.56-1.75,2.81-4,2.79s-4.14-1.31-4.18-2.87,1.75-2.8,4-2.79,4.12,1.31,4.18,2.87"/>
      <path id="path1080" class="cls-29" d="M346.84,395.88a167.5,167.5,0,0,0,25.83,14.26,232.63,232.63,0,0,0,27.21,10.09c27.92,7.52,29.08,6.79,42.91,9.4,4.89.81,9.83,1.36,14.81,2.45-5,.91-10,1.54-15,2-18.62.68-28.26-.72-45.28-5.2a119.3,119.3,0,0,1-28-12.5c-11.87-7.5-19-15-22.5-20.46"/>
      <path id="path1082" class="cls-29" d="M345.2,341.86c10.56,8,22.18,13.36,32.79,18.22a313,313,0,0,0,35,12.7c11.88,3.77,24,6.58,36.24,9.57,3.56.87,31.56,6.75,37.07,8.19a226.92,226.92,0,0,1-38.3-1.22c-12.66-1.73-25.34-4-37.62-7.94a174.82,174.82,0,0,1-35.6-15C364.23,360,352.35,352,345.2,341.86"/>
      <path id="path1084" class="cls-29" d="M367.92,297.78a235.13,235.13,0,0,0,31.15,15.66c12.35,5.07,15.69,6,24.24,8.83,22.23,6.31,22.68,5.64,33.44,7.91,36.36,5.29,27.68,2.93,43.37,4.8A139.63,139.63,0,0,1,455.74,338c-16.84-1.86-22.79-3.64-35.15-7.33A147.47,147.47,0,0,1,396,319.76c-10.38-5.89-20.26-12.94-28-22"/>
      <path id="path1086" class="cls-30" d="M410.31,273.42s40.45-.23,57.89,18.14c0,0-44.56,5.71-57.89-18.14"/>
      <path id="path1088" class="cls-22" d="M417.92,282.1c.82-10.66,1.9-33.84-5.38-51-7.7-18.08-17.55-23.94-16.07-36.31,1.77-15,18.28-24.28,26.17-28.75,5-2.82,22.58-12.41,44.12-7.53a59.07,59.07,0,0,1,22.82,10.92,69.25,69.25,0,0,1,21,27.11c5,11.29,10.12,23.08,5.72,33.49-8,18.77-40.35,17.45-48.42,32.84-8.73,16.61-9.76,21.6-9.76,21.6-.06.32-1.68,7.08-1.88,7.59-1.17,2.92-28.45,11.49-38.36-10"/>
      <path id="path1090" class="cls-31" d="M421.36,287.66c2.7-11.78,5.47-36-.06-53.51s-19.76-31-15.52-37.29c2.21-3.32,4.78-2.47,9.16-2.32,16.25.54,22.57,11.38,37.7,15.84,18.48,5.42,32.83-2.64,48,6.2,2,1.18,4.72,3.94,4.2,9.73-.4,4.32-4.7,9.07-16.94,12.93-29.3,9.24-35.29,37.47-38,55.71,0,0-17.52,8.07-28.56-7.29"/>
      <path id="path1092" class="cls-32" d="M410.72,194.27a40.74,40.74,0,0,1,13.11,1.41c1.72.44,5.68,1.8,9.13,3.14,10.47,4,13,7.26,18.8,9.69,9.19,3.81,12.2-.37,26.1,1.27,5.29.61,17.44,3.33,22.56,6.77A64.16,64.16,0,0,0,485.66,219c-9.1,2.62-10.76,5.28-18.51,6.86-3.61.74-10.79,2.2-18.73-.56a36.21,36.21,0,0,1-15.67-11.25,100.84,100.84,0,0,0-8-9.24c-.85-.87-1.77-1.73-2.89-2.72a63.94,63.94,0,0,0-11.1-7.84"/>
      <path id="path1094" class="cls-32" d="M453.87,197.91a4.74,4.74,0,0,1-.55,3.92c-.34.68-.9,1.73-1.68,1.71s-1.18-.91-1.6-1.64a5,5,0,0,1-.81-3.87c.25-.89,1.09-2.53,2.33-2.51,1.43,0,2.26,2.26,2.31,2.39"/>
      <path id="path1096" class="cls-32" d="M464.62,201.38a5,5,0,0,1-2.38,3.25c-.65.45-1.65,1.16-2.34.83s-.66-1.3-.68-2.11a4.82,4.82,0,0,1,1.12-3.75c.66-.69,2.21-1.8,3.32-1.28,1.29.62,1,2.92,1,3.06"/>
      <path id="path1098" class="cls-23" d="M449.11,189.62a15.76,15.76,0,0,1,5.15-1.31,17.59,17.59,0,0,1,5.45.36c.44.13.89.21,1.33.37l1.28.5a12.83,12.83,0,0,1,1.22.64c.2.1.41.2.6.32l.54.41a12.31,12.31,0,0,1,3.52,3.83,22,22,0,0,0-4.08-3.1,15.87,15.87,0,0,0-4.69-1.84,22.77,22.77,0,0,0-5.09-.58,33.08,33.08,0,0,0-5.23.4"/>
      <path id="path1100" class="cls-33" d="M429.83,235.39a30.35,30.35,0,0,0,7.23,7.25,27.81,27.81,0,0,0,9.32,4.26,33.3,33.3,0,0,0,10.36.81A62.64,62.64,0,0,0,467.19,246a35.38,35.38,0,0,1-10.24,3l-1.36.19-1.37.08-.7,0h-.69c-.45,0-.92,0-1.39,0a30.22,30.22,0,0,1-5.5-.77,25.59,25.59,0,0,1-5.23-1.93,24.3,24.3,0,0,1-4.59-3,21.34,21.34,0,0,1-6.29-8.28"/>
      <path id="path1102" class="cls-23" d="M508,234.19s16.79-5.67-1-34.25c0,0,9.94,24.42,1,34.25"/>
      <path id="path1104" class="cls-24" d="M400.56,198s14.2-31.93,62.19-34.38c0,0-52.43-.94-62.19,34.38"/>
      <path id="path1106" class="cls-25" d="M477.35,168.43c3.15,1.55,3.53,7.71,1.69,8.57s-7.72-3.45-7.05-6.52a3.39,3.39,0,0,1,1.93-2.22,4.24,4.24,0,0,1,3.43.17"/>
      <path id="path1108" class="cls-25" d="M452.18,166.7c-4,2.18-10.55-.62-10.5-2,0-1,3.5-1.47,8.16-2.12,4.35-.6,4.86-.14,5,.1.57.88-.85,3-2.69,4"/>
      <path id="path1110" class="cls-25" d="M468.68,163.86c1.19.46,3,1.14,2.87,1.62-.12.66-3.8,1.2-5.32-.42-.49-.52-.87-1.39-.55-1.74s1.87.11,3,.54"/>
      <path id="path1112" class="cls-25" d="M458.78,168.59c.22.28.81,1,.56,1.6-.43,1-3.07,1.44-4.14.23a2.13,2.13,0,0,1,.47-3.12c1.07-.52,2.49.5,3.11,1.29"/>
      <path id="path1114" class="cls-25" d="M489.76,175.84a1.55,1.55,0,0,1-1,1.55,1.92,1.92,0,0,1-2.34-.8,1.62,1.62,0,0,1,1.13-2.28,1.9,1.9,0,0,1,2.25,1.53"/>
      <path id="path1116" class="cls-25" d="M469.6,181.67c.88,1.91.74,4.55-.42,5s-2.88-1.28-3.75-2.51c-1.51-2.14-1.91-5.36-.73-5.94s3.86,1.24,4.9,3.49"/>
      <path id="path1118" class="cls-32" d="M472.62,194.19a14.85,14.85,0,0,1,8.46-4.47,15.76,15.76,0,0,1,9.92,1.6,15.56,15.56,0,0,1,6.83,7.38,15.9,15.9,0,0,1,1.08,9.5,30.92,30.92,0,0,0-3.84-8,17.38,17.38,0,0,0-6-5.38,17.78,17.78,0,0,0-7.79-2,26.12,26.12,0,0,0-8.7,1.35"/>
      <path id="path1120" class="cls-32" d="M447.35,187.51a26.28,26.28,0,0,0-6.55-5.89,17.73,17.73,0,0,0-7.62-2.58,17.18,17.18,0,0,0-7.92,1.24,30.71,30.71,0,0,0-7.58,4.59,15.8,15.8,0,0,1,6.1-7.37,15.44,15.44,0,0,1,9.76-2.44,15.71,15.71,0,0,1,9.17,4.08,14.75,14.75,0,0,1,4.64,8.37"/>
      <path id="path1122" class="cls-30" d="M242.48,460s73-44,148.11-8.23c0,0-82.93,47.56-148.11,8.23"/>
      <path id="path1124" class="cls-7" d="M348.43,307.7c14.87-25.26,39.21-24.8,47.53-53.23,2.43-8.27,2.8-18-.12-29.53-13.21-52.39-31.76-110.64-138.52-112.43S117.2,195.7,116.86,226.06s29.89,65.84,53.36,94.52c45.49,55.64,63.3,87.6,73.45,97.41,21.19,20.52,40.65,34.95,97.77,57.69,8.34-7.5,23-8.36,36.83-17.82.93-17-12-25.76-22-42.24C338,385.3,331,337.3,348.43,307.7"/>
      <path id="path1126" class="cls-31" d="M164,207c-3.51,1.6-8.56,2.79-12.76,8.12-5.37,6.83-7.93,16-6.93,30,2,28.72,18.52,54.25,25.5,65.76,30,49.53,18.32,45.5,51.62,100,21.28,34.8,27,48.44,42.26,58.92,7.07,3.56,28.7,14.61,50.42,13C338.4,481,355.82,470.76,362,466c-.09-6.66-21.12-34.3-26.07-46.21-7.72-18.61-19.94-41.32-18.29-77.6.51-11,.28-18.35,3.72-27.75,10.8-29.62,40.57-38.2,38.77-71.94-.46-9-5-16-7.65-18.47-5.07,1-5.84,1-8.85,2.21-16.23,6.72-48.84,17.5-87.71,13.82-9.63-.91-24.47-2.46-40.12-11.11-6.31-3.48-9-6-16.39-10.19C185.94,211.19,172.32,208.66,164,207"/>
      <path id="path1128" class="cls-32" d="M189,217.12c-15.12-7.21-25.22-9.12-25-10.17.35-1.4,18.31.77,36.64,6.37A215.07,215.07,0,0,1,224,222.07c15.64,6.91,18.47,10.35,28.83,13a72.83,72.83,0,0,0,23.38,1.95c16.91-.86,20.48-5.78,41.24-10.14,18.8-4,34.92-3.92,35.07-2.93.07.55-4.63,1.16-13.75,4.52-1.25.47-6.5,2.43-13.05,5.6-5.52,2.67-8.47,4.51-11.2,6a88.92,88.92,0,0,1-23.92,8.59,92.53,92.53,0,0,1-34.37,1c-14.12-2.32-23.79-7.49-36.3-14.17-15.34-8.2-16.09-11.36-30.88-18.42"/>
      <path id="path1130" class="cls-32" d="M337.74,186.11c-2.31,7.35-9.3,17.56-18.2,16.88-8-.61-13.35-9.67-14.9-16.29-3.68-15.76,10.23-34.92,20.19-33.79,9,1,17.33,19.11,12.91,33.2"/>
      <path id="path1132" class="cls-34" d="M311.18,179.15c.13.91,1.14,6.84,4,7.4,3.55.69,8.79-6.89,10.12-14.27,1-5.6.23-13.64-2.78-14.41-4-1-13,10.65-11.36,21.28"/>
      <path id="path1134" class="cls-7" d="M302.18,198.92s30.13,5.78,42.38-4.3c0,0-16.88,36.57-42.38,4.3"/>
      <path id="path1136" class="cls-8" d="M301.27,203.88a48.31,48.31,0,0,1,10.83-4.29,66,66,0,0,1,11.45-2.13,57.29,57.29,0,0,1,11.71.06,38.41,38.41,0,0,1,11.3,3c-3.92,0-7.66,0-11.42.1s-7.48.42-11.22.78-7.48.76-11.24,1.22-7.52.93-11.41,1.3"/>
      <path id="path1138" class="cls-32" d="M242.52,179.91c-4.21,7.79-14.29,16.93-22.65,14.41-8.64-2.62-11.75-16.6-10.53-25.9,2-15.06,16.72-29,25.92-26.35,9.5,2.75,14.89,23.75,7.26,37.84"/>
      <path id="path1140" class="cls-34" d="M216.42,170.39c.14,1,1.17,7.41,4.29,8.05,3.83.78,9.57-7.38,11.08-15.34,1.15-6,.37-14.75-2.88-15.62-4.35-1.16-14.17,11.4-12.49,22.91"/>
      <path id="path1142" class="cls-7" d="M199.44,181.86s26.64,15.22,41.5,9.65c0,0-27.82,29.13-41.5-9.65"/>
      <path id="path1144" class="cls-8" d="M197.5,185.07a47.73,47.73,0,0,1,11.64-.13,65.12,65.12,0,0,1,11.46,2.12,57.15,57.15,0,0,1,10.9,4.25,38.11,38.11,0,0,1,9.5,6.81c-3.66-1.38-7.14-2.8-10.7-4s-7.14-2.29-10.76-3.29-7.24-2-10.91-2.89-7.37-1.83-11.13-2.87"/>
      <path id="path1146" class="cls-32" d="M266.16,208.75c1.83,3.8.59,7.52,0,9.37-.56,1.7-1.45,4.36-3.13,4.58-1.52.18-2.85-1.72-4-3.31-1.32-1.88-3.4-4.87-2.88-8.8.29-2.2,1.61-6.32,4.31-6.68,3.12-.41,5.56,4.53,5.7,4.84"/>
      <path id="path1148" class="cls-32" d="M290.47,213.26c-.05,4.21-2.83,7-4.2,8.41S283,225,281.43,224.4s-1.79-2.78-2.08-4.7c-.35-2.27-.88-5.87,1.32-9.18,1.25-1.86,4.27-5,6.84-4.12,3,1,3,6.51,3,6.86"/>
      <path id="path1150" class="cls-8" d="M250.79,199.58s23.45-5.24,45,5.38c0,0-18.36-20.26-45-5.38"/>
      <path id="path1152" class="cls-33" d="M189.5,314.48s59.73,42.82,112.36,8.82c0,0-55.35,53.56-112.36-8.82"/>
      <path id="path1154" class="cls-9" d="M129.26,217s31.06-120,181.89-85.69c0,0-140.61-61.61-181.89,85.69"/>
      <path id="path1156" class="cls-9" d="M163.56,205s17.67-20.1,51.11-8.22c0,0-31.49-27.86-51.11,8.22"/>
      <path id="path1158" class="cls-9" d="M324.82,205.74s39-1.48,55.33,21.58c0,0-14.93-32.78-55.33-21.58"/>
      <path id="path1160" class="cls-10" d="M296.47,136.14c-1.39,5.85-8.83,8.78-14.12,8.81-11.63.07-22.75-13.77-20.75-21.47,1.62-6.21,11.95-9.14,19.7-6.85,8.46,2.51,16.9,12.13,15.17,19.51"/>
      <path id="path1162" class="cls-10" d="M247.07,123.59c-.43,3.21-2.85,6.49-5.81,6.89-5.23.7-11.46-7.7-9.11-12.84,1.2-2.62,4.52-4.2,7.51-3.9,4.57.45,8,5.26,7.41,9.85"/>
      <path id="path1164" class="cls-10" d="M261.91,140c.25,4.07-3.49,7.69-6.71,7-2.17-.45-3.68-2.81-4-5-.52-3.11,1-6.91,3.88-7.77,3.2-1,6.65,2.13,6.88,5.81"/>
      <path id="path1166" class="cls-10" d="M321.5,141.9c0-2.23,6.81-4,10.1-4.79,3.58-.89,5.86-1.44,7.24-.17,1.87,1.69,1.48,6-.54,8.14-4.34,4.59-16.75-.21-16.8-3.18"/>
      <path id="path1168" class="cls-10" d="M206.51,141.84a9.78,9.78,0,0,1-8.95-8c-1.1-7.89,10.76-17.11,16.23-14.37,3.8,1.9,5.4,10.06,2.33,15.89-.25.51-3.65,6.72-9.61,6.49"/>
      <path id="path1170" class="cls-10" d="M313,144.78c-1.75,3.77-7.13,5-9.88,2.7-1.87-1.57-2.16-4.49-1.43-6.69,1-3.07,4.34-5.65,7.54-4.89,3.54.85,5.33,5.46,3.77,8.88"/>
      <path id="path1172" class="cls-7" d="M223.75,445s-90.13-12.68-187,131.39C19.55,601.9-8.29,678.72,2.36,745c0,0,7.76-68.69,83.91-106s118.81-106.6,137.48-194"/>
      <path id="path1174" class="cls-8" d="M16.3,686.18s20.37-68.8,93.37-107.72S210,458.51,210,458.51s-19.68,95.59-88.88,143.75S44.22,641.12,16.3,686.18"/>
      <path id="path1176" class="cls-9" d="M35.22,602.92s28-67.5,112.38-121.44c0,0-68.21,60-112.38,121.44"/>
      <path id="path1178" class="cls-10" d="M40.07,625.42c-.73,4.33-3.44,12-7.75,12.22-4.13.18-8.58-6.65-8.37-12.77.27-8.09,8.68-15.23,12.81-13.76,3.64,1.28,4.16,9.29,3.31,14.31"/>
      <path id="path1180" class="cls-10" d="M68.47,555.4c.13,2.36-1.24,5.22-3.6,5.68-2.75.55-5.93-2.32-5.77-5.48s3.66-5.68,6.3-4.86c2,.6,3,2.89,3.07,4.66"/>
      <path id="path1182" class="cls-10" d="M119.43,538.43c-.44,1.24-4,1-5.83.89-2-.12-4.86-.32-5.14-1.45s2.62-3.87,5.69-3.72,5.72,3,5.28,4.28"/>
      <path id="path1184" class="cls-10" d="M200.1,462.72c1.28,2.6-.19,6.27-2.28,6.74-1.9.42-3.92-1.83-4.72-3.67-.64-1.48-1.14-4.16.26-5.35,1.63-1.37,5.44-.33,6.74,2.28"/>
      <path id="path1186" class="cls-10" d="M170.34,539.92c-5.59,2.78-13.67,1.26-15.06-2.61-1.32-3.71,3.74-9,8.31-11.2s11.67-3,13.81.25c2.23,3.44-1.46,10.79-7.06,13.56"/>
      <path id="path1188" class="cls-10" d="M56.23,606c-2.36,0-4.51-2.16-5-4.61s.51-5.15,2.85-6.17c2.78-1.2,6.2.66,7.12,3.37,1.14,3.33-1.74,7.4-5,7.41"/>
      <path id="path1190" class="cls-10" d="M100.54,608.08c.33,1.83-5.34,5.48-11.06,5.19S78.5,608.75,79,607c.44-1.55,5.29-1.36,10.14-1.17,4.62.17,11,.42,11.38,2.26"/>
      <path id="path1192" class="cls-35" d="M390.43,119S316.11,55.88,349.35,14.15,408.7,36.28,408.7,36.28s43-33.09,56.42-1.33c25.19,59.76-74.69,84-74.69,84"/>
      <path id="path1194" class="cls-36" d="M456.66,24.27c-17.66-11.28-48,12-48,12s-26.11-63.86-59.35-22.13c-14.31,18-8.68,39.88,2.37,59A66,66,0,0,0,393,87.39c35.23,0,63.8-26.84,63.8-60,0-1.07,0-2.12-.09-3.16"/>
      <path id="path1196" class="cls-37" d="M396.7,27.83c2.4,7,3.7,19.51-2.8,24.77-11.31,9.19-44.94-4.46-45.58-22C348,20.5,358.59,7.82,371.91,7.43s21.91,12,24.79,20.4"/>
    </g>
  </g>
</svg>
