<svg xmlns="http://www.w3.org/2000/svg" viewBox="0 0 16.72 17.87">
  <defs>
    <style>
      .cls-1 {
        fill: #a4c53a;
      }

      .cls-2 {
        fill: #c8dc89;
      }

      .cls-3 {
        fill: #313a18;
      }

      .cls-4 {
        fill: #f2b6d1;
      }

      .cls-5 {
        fill: #a2b33a;
      }

      .cls-6 {
        fill: #b6d170;
      }

      .cls-7 {
        fill: #b6db3a;
      }

      .cls-8 {
        fill: #7fac27;
      }
    </style>
  </defs>
  <g id="Layer_2" data-name="Layer 2">
    <g id="Layer_1-2" data-name="Layer 1">
      <path class="cls-1" d="M15.78,6.3c-1.54-4.13-3.38-5.13-5.24-6s-5.56.53-6,.78A12,12,0,0,0,.61,3.72C-.84,5.37.57,7.91,2,10c1.15,1.67.48,5.08.18,6.34a5.19,5.19,0,0,1,1.68-.27,4.55,4.55,0,0,1,3.82,1.82l1.07-2.53c1.22-2.89,6.71-2.41,7.61-4.25S16.35,7.84,15.78,6.3Z"/>
      <path class="cls-2" d="M13.52,8.47c-2.15-.69-5.08,1-6.36-.76S3.36,4.05,2.25,5.26s-.16,3.11,1.14,5.33c.85,1.45.16,4-.43,5.54a5,5,0,0,1,.88-.08,4.74,4.74,0,0,1,3.05,1,7.14,7.14,0,0,1,5.29-4.91C16.43,11.08,14.39,8.74,13.52,8.47Z"/>
      <path id="path580" class="cls-3" d="M2.6,5s.76-.72,3.55,1.33c1,.74,1,1.5,5.22,1.54,2.15,0,2.84,1.07,2.84,1.07a3.86,3.86,0,0,0-2.1-.25c-1,.19-1.25.75-2.5,1.2a3.85,3.85,0,0,1-2.81.24C6,9.78,5.54,9,4.9,7.77A7,7,0,0,0,3.59,5.63,3.64,3.64,0,0,0,2.6,5"/>
      <path id="path584" class="cls-3" d="M10.71,4.89A2.74,2.74,0,0,1,12,4.34a2.06,2.06,0,0,1,.7,0,1.79,1.79,0,0,1,.66.26,2.12,2.12,0,0,1,.51.48l.1.14.09.15a3,3,0,0,1,.15.31A4.13,4.13,0,0,1,14.48,7,8.76,8.76,0,0,0,14,5.78a2.61,2.61,0,0,0-.82-1A1.82,1.82,0,0,0,12,4.55a3.81,3.81,0,0,0-1.26.34"/>
      <path id="path588" class="cls-3" d="M7.33,3.92a3.6,3.6,0,0,0-.72-1.07,1.92,1.92,0,0,0-1.09-.56,2.55,2.55,0,0,0-1.24.19,8.12,8.12,0,0,0-1.18.59,4.25,4.25,0,0,1,1.09-.78,2.15,2.15,0,0,1,.32-.13l.17-.06.17,0a2.05,2.05,0,0,1,.7,0,1.89,1.89,0,0,1,.67.22,2.19,2.19,0,0,1,.54.46,2.65,2.65,0,0,1,.57,1.21"/>
      <path id="path592" class="cls-3" d="M8.11,5.57A.76.76,0,0,1,8,6.16c-.06.09-.15.25-.26.23s-.15-.14-.2-.26a.81.81,0,0,1,0-.59c0-.13.2-.37.37-.35s.28.36.28.38"/>
      <path id="path596" class="cls-3" d="M9.56,6.21a.76.76,0,0,1-.38.46c-.1.06-.25.16-.35.1s-.07-.2-.06-.32A.8.8,0,0,1,9,5.9c.1-.1.34-.25.49-.16s.09.45.08.47"/>
      <path id="path600" class="cls-4" d="M5.27,8.46a6.58,6.58,0,0,1,1.55.08A6.59,6.59,0,0,1,9.73,9.85s-3.14,2-4.46-1.39"/>
      <path id="path604" class="cls-3" d="M7.43,8.69s-.08,0-.16.22a1,1,0,0,1,.42-.17s0-.12-.26-.05"/>
      <path id="path608" class="cls-5" d="M7.58,4.27a2.36,2.36,0,0,1,.74-.14,2.46,2.46,0,0,1,.76.12l.18.07.17.09.16.1.08.06.07.07a1.74,1.74,0,0,1,.43.61,3.13,3.13,0,0,0-.52-.51A2.11,2.11,0,0,0,9,4.41a3.22,3.22,0,0,0-.7-.14,4.57,4.57,0,0,0-.74,0"/>
      <path id="path612" class="cls-6" d="M4.15,10.94A4.12,4.12,0,0,0,5,12.11a3.59,3.59,0,0,0,1.24.75,4.3,4.3,0,0,0,1.44.23A8.24,8.24,0,0,0,9.2,13a4.85,4.85,0,0,1-1.48.35H7.14l-.19,0a3.36,3.36,0,0,1-.76-.18,3.49,3.49,0,0,1-.7-.34,3.18,3.18,0,0,1-.59-.5,3.07,3.07,0,0,1-.75-1.32"/>
      <path id="path616" class="cls-5" d="M15.1,11.61s2.44-.67.41-5.16c0,0,1,3.78-.41,5.16"/>
      <path id="path620" class="cls-7" d="M.65,5S3.15.36,9.91.51C9.91.51,2.59-.2.65,5"/>
      <path id="path624" class="cls-8" d="M11.87,1.4c.42.26.37,1.19.1,1.3s-1-.6-.88-1.05a.51.51,0,0,1,.31-.32.56.56,0,0,1,.47.07"/>
      <path id="path628" class="cls-8" d="M8.38.86c-.6.29-1.47-.2-1.44-.41S7.45.27,8.12.22s.68,0,.7.07-.17.44-.44.57"/>
      <path id="path632" class="cls-8" d="M10.73.62c.16.08.4.2.38.27s-.55.14-.74-.12c-.06-.08-.1-.22,0-.27s.26,0,.41.12"/>
      <path id="path636" class="cls-8" d="M9.27,1.22s.1.16.05.24a.39.39,0,0,1-.58,0A.34.34,0,0,1,8.86,1c.15-.07.34.1.41.23"/>
      <path id="path640" class="cls-8" d="M13.49,2.64a.25.25,0,0,1-.17.23A.27.27,0,0,1,13,2.72a.26.26,0,0,1,.2-.33.26.26,0,0,1,.29.25"/>
      <path id="path644" class="cls-8" d="M10.58,3.3c.09.3,0,.69-.15.74s-.38-.22-.48-.41-.18-.83,0-.91.52.23.63.58"/>
    </g>
  </g>
</svg>
