<svg xmlns="http://www.w3.org/2000/svg" viewBox="0 0 256.74 62.02">
  <defs>
    <style>
      .cls-1 {
        fill: #297d02;
      }

      .cls-2 {
        fill: #a4c53a;
      }

      .cls-3 {
        fill: #a2b33a;
      }

      .cls-4 {
        fill: #7c3314;
      }

      .cls-5 {
        fill: #965626;
      }

      .cls-6 {
        fill: #b6db3a;
      }

      .cls-7 {
        fill: #7fac27;
      }

      .cls-8 {
        fill: #deeebb;
      }

      .cls-9 {
        fill: #c4e2aa;
      }

      .cls-10 {
        fill: #92a16f;
      }

      .cls-11 {
        fill: #f2f8e4;
      }

      .cls-12 {
        fill: #592614;
      }

      .cls-13 {
        fill: #964526;
      }

      .cls-14 {
        fill: #613314;
      }

      .cls-15 {
        fill: #aa623d;
      }

      .cls-16 {
        fill: #c8dc89;
      }

      .cls-17 {
        fill: #313a18;
      }

      .cls-18 {
        fill: #f2b6d1;
      }

      .cls-19 {
        fill: #b6d170;
      }
    </style>
  </defs>
  <g id="Layer_2" data-name="Layer 2">
    <g id="Layer_1-2" data-name="Layer 1">
      <path class="cls-1" d="M92.38,13v11H82.49V59.1H69.3V23.9H59.41V13Z"/>
      <path class="cls-1" d="M86.87,25.48h12.4V42.82q0,4.91,3.42,6.06a6.92,6.92,0,0,0,1.19.14h.79c2.33,0,3.87-1.37,4.62-4.09a5.09,5.09,0,0,0,.13-1.19V25.48H122V59.3H109.42V54.69q-4.48,5.4-10.15,5.4h-.93q-8.15,0-10.94-8.17a21.88,21.88,0,0,1-.53-4.49Z"/>
      <path class="cls-1" d="M147.59,25l3.83.79V37.87h-2q-7.65,0-10,4.22Q138,44.18,138,49.48V59.1H125.18V25.48H137.7v6.86l2-3.3A9.63,9.63,0,0,1,147.59,25Z"/>
      <path class="cls-1" d="M156.72,25.48V13.28h13.19v12.2h9.86v9.29h-9.86v9a7.17,7.17,0,0,0,1.45,4.28q1.13,1.59,8.41,1.95V59.1h-5.34a28.12,28.12,0,0,1-9.23-1.58q-8.47-4.12-8.48-16.35v-6.4h-3.33V25.48Z"/>
      <path class="cls-1" d="M183.06,59.1V13h13.19V59.1Z"/>
      <path class="cls-2" d="M218.25.76V7.59h-6.17v22h-8.24v-22h-6.18V.76Z"/>
      <path class="cls-2" d="M229.33,8.25l2.39.5v7.57h-1.24q-4.77,0-6.26,2.64c-.6.86-.9,2.4-.9,4.61v6h-8v-21h7.82v4.28l1.24-2A6,6,0,0,1,229.33,8.25Z"/>
      <path class="cls-2" d="M240.61,29.23,232,8.58h9.14l3.21,10.71,3.38-10.71h9L250.39,26q-2.76,7.63-9,10.21a18.47,18.47,0,0,1-4.13,1h-2.11V31.54c2.28-.15,3.78-.56,4.49-1.22A8.48,8.48,0,0,0,240.61,29.23Z"/>
      <path class="cls-1" d="M216.75,24.36q13.89,0,17.67,14.37a29.41,29.41,0,0,1,.66,6.76v.63H210.82v.13A6.71,6.71,0,0,0,214,50a7.93,7.93,0,0,0,3.69,1h.46q2.31,0,4.42-2.64h11.86v.13q-6.55,11.55-16.61,11.54-9.36,0-14.37-5.55a17.74,17.74,0,0,1-5-12.12,17.14,17.14,0,0,1,5.27-12.77A18.42,18.42,0,0,1,216.75,24.36Zm-6.06,14h12.13v-.09q0-1.4-2-3a8,8,0,0,0-3.69-.93C213.57,34.31,211.41,35.65,210.69,38.33Z"/>
      <g>
        <path id="path322" class="cls-2" d="M25.64,42.45a4.16,4.16,0,0,0,2.58,3.82A6.56,6.56,0,0,1,28,41.68s-1.73-1.08-2.35.77"/>
        <path id="path324" class="cls-3" d="M27,42.52a3,3,0,0,0,.64,2.9,24.66,24.66,0,0,1-.64-2.9"/>
        <path id="path328" class="cls-4" d="M25.53,42.72c-6.28-2.31-8.5-6.54-8.4-13.07C17.25,22,20.36,15,27.31,14.07c1-.13,1.12-1.38,2.61-1.56s8,1.21,10.49,3.36c.68.58.65,1.85,1.17,2.74s4.23,3.8,2.82,12.05S34.84,46.13,25.53,42.72"/>
        <path id="path332" class="cls-5" d="M25.7,42.5c-6.08-1.91-7.79-6.44-7.72-12.81.08-7.42,2.84-13.8,9.42-14.67.93-.12.93-1.82,2.33-2s7.57,1.21,10,3.31c.64.58.62,1.82,1.12,2.69s3.85,3.81,2.55,11.86S34.61,45.3,25.7,42.5"/>
        <path id="path336" class="cls-2" d="M40.51,24.52s5.31.38,8.15,2.68,3.79,6.55,6.62,9.86,3.71,4.86,4.31,5.36S52.2,43,48.73,38.33s-5.43-9.52-6.92-10.64-2.14-2.54-1.3-3.17"/>
        <path id="path338" class="cls-3" d="M43.86,29.31s2.93,4.95,5.3,8.72c1.25,2,4.4,3.64,9.19,4.11,0,0-5.37-1.51-7.53-6.06a16,16,0,0,0-7-6.77"/>
        <path id="path340" class="cls-6" d="M44.26,26.72a18.23,18.23,0,0,1,8.21,8.55s-2.65-9.11-8.21-8.55"/>
        <path id="path342" class="cls-7" d="M54.85,39.75c.22.49.12,1.17-.19,1.3-.49.21-1.71-.93-1.5-1.52a.89.89,0,0,1,.94-.41,1.07,1.07,0,0,1,.75.63"/>
        <path id="path344" class="cls-7" d="M57.18,39.83a.55.55,0,0,1-.25.61c-.27.12-.63-.16-.78-.44s-.18-.55,0-.68.95,0,1,.51"/>
        <path id="path346" class="cls-7" d="M54.44,36.78c0,.21-.2.49-.45.5a.56.56,0,0,1-.47-.36c-.18-.38,0-.93.31-1s.68.42.61.84"/>
        <path id="path348" class="cls-7" d="M49.79,36.61a.39.39,0,0,1-.25.42.54.54,0,0,1-.6-.5c0-.13.25-.2.39-.2s.42.07.46.28"/>
        <path id="path350" class="cls-7" d="M50.38,31.31c.42.27.37,1.2.1,1.31s-1-.6-.88-1.06a.5.5,0,0,1,.31-.31.53.53,0,0,1,.47.06"/>
        <path id="path352" class="cls-7" d="M45.65,30c.13.21.16.54,0,.63s-.44-.1-.58-.32-.17-.54,0-.62.44.08.58.31"/>
        <path id="path356" class="cls-2" d="M25.67,17.22s-3.07-2.12-9.15-2S1.89,16.54.22,16.4s6.69,6.79,12.35,5.68,9.58-3.65,12-3.18c0,0,1.73-.42,1.07-1.68"/>
        <path id="path360" class="cls-3" d="M1.14,17.13s7,5.41,15,3a47.06,47.06,0,0,1,6.27-1.52,20.59,20.59,0,0,0-6.47,0c-3.44.6-10.19.88-14.83-1.52"/>
        <path id="path364" class="cls-6" d="M2.23,16.65s14.08-1.24,19-.24c0,0-13,1.67-19,.24"/>
        <path id="path368" class="cls-7" d="M4.33,18c0,.18-.26.37-.51.39s-.8-.34-.75-.55.42-.23.67-.2.58.15.59.36"/>
        <path id="path372" class="cls-7" d="M2.07,16.82c0,.07,0,.17-.09.2a.32.32,0,0,1-.38-.27.23.23,0,0,1,.2-.2.28.28,0,0,1,.27.27"/>
        <path id="path376" class="cls-7" d="M5.74,16.38a.73.73,0,0,1,.16,1.05c-.21.14-.56-.06-.6-.08-.24-.14-.54-.46-.46-.74a.64.64,0,0,1,.9-.23"/>
        <path id="path380" class="cls-7" d="M6.86,19.18a1,1,0,0,1-.65,1.27c-.27,0-.47-.44-.53-.74,0-.12-.1-.51.14-.72a.78.78,0,0,1,1,.19"/>
        <path id="path384" class="cls-7" d="M9.19,17.93a.37.37,0,0,1-.29.32A.46.46,0,0,1,8.32,18c-.05-.21.29-.55.58-.47a.4.4,0,0,1,.29.37"/>
        <path id="path388" class="cls-7" d="M12.64,20.56c.19.3-.23.91-.45.88s-.2-.34-.21-.38c0-.21,0-.56.23-.64a.41.41,0,0,1,.43.14"/>
        <path id="path392" class="cls-7" d="M19.29,17.42s0,.36-.23.41a.37.37,0,0,1-.37-.28c-.07-.28.29-.59.46-.54s.15.27.14.41"/>
        <path id="path396" class="cls-7" d="M13.9,16.49a.3.3,0,0,1-.14.41c-.1,0-.19-.09-.23-.17s0-.3.06-.36a.27.27,0,0,1,.31.12"/>
        <path id="path398" class="cls-2" d="M19.13,36.37a27.82,27.82,0,0,0-8.55,3.71C7,42.64.26,44.32.26,44.32S6.23,46,9.45,46s6.46-.48,8.7-3.44,2.94-3.32,2.94-3.32,1.05-2.18-2-2.88"/>
        <path id="path400" class="cls-3" d="M3.12,44.42s7.93,1,11.65-2S20,39.23,20,39.23s-2.6,5.4-8,6a21.1,21.1,0,0,1-8.91-.77"/>
        <path id="path402" class="cls-6" d="M5.77,43.17s3.77-1.3,5.18-2.75,6.93-3.19,6.93-3.19A26.93,26.93,0,0,1,5.77,43.17"/>
        <path id="path404" class="cls-7" d="M5.41,44.22c.06.16-.15.45-.4.51-.43.1-.91-.57-.82-.72s.22,0,.59,0,.59.09.63.19"/>
        <path id="path406" class="cls-7" d="M5.15,43.25A.13.13,0,1,1,5,43.14a.12.12,0,0,1,.14.11"/>
        <path id="path408" class="cls-7" d="M8.59,43.81a.53.53,0,0,1-.35.46c-.37.14-.89-.18-.88-.51s.26-.45.52-.49a.64.64,0,0,1,.71.54"/>
        <path id="path410" class="cls-7" d="M7.53,45.06a.41.41,0,0,1-.36.49.33.33,0,0,1-.33-.25A.35.35,0,0,1,7.09,45a.39.39,0,0,1,.44.09"/>
        <path id="path412" class="cls-7" d="M13.49,43.63s-.05.44-.37.54a.59.59,0,0,1-.71-.44c-.05-.38.57-.79.87-.65a.57.57,0,0,1,.21.55"/>
        <path id="path414" class="cls-7" d="M17.79,38.59c.16.23-.2.78-.42.76s-.21-.25-.22-.42a.43.43,0,0,1,.12-.38.41.41,0,0,1,.52,0"/>
        <path id="path416" class="cls-7" d="M19.94,38.8a.22.22,0,0,1-.09.22.2.2,0,0,1-.23-.12c0-.12.11-.26.2-.24s.1.08.12.14"/>
        <path id="path418" class="cls-2" d="M36.36,41.45a13.1,13.1,0,0,1,3.29,6.33c.63,3.67-1.21,5.52-.81,8.67A33.14,33.14,0,0,0,40.06,62s-5.82-3.86-6.72-6.89-.4-8.09-.66-9.67a32.29,32.29,0,0,0-.81-3.37s1.53-3.4,4.49-.64"/>
        <path id="path420" class="cls-3" d="M35.63,42.1s2.48,4.66,1.56,9.07S39,60.46,39,60.46a14.47,14.47,0,0,1-.17-8.79c1.48-4.48-3.22-9.57-3.22-9.57"/>
        <path id="path422" class="cls-6" d="M33,43.65a74.82,74.82,0,0,1,.9,9.25,11.25,11.25,0,0,0,3.19,6.36,25,25,0,0,1-1.67-9.48A10.22,10.22,0,0,0,33,43.65"/>
        <path id="path424" class="cls-7" d="M38.73,57.73c.27.15.08,1.39-.42,1.5a.67.67,0,0,1-.7-.54c0-.31.31-.55.6-.74s.42-.29.52-.22"/>
        <path id="path426" class="cls-7" d="M37.16,58.1c-.06.15-.37.14-.41.14-.45,0-.85-.48-.77-.7s.33-.17.35-.17c.47,0,.92.52.83.73"/>
        <path id="path428" class="cls-7" d="M37.67,56.27c.11.23,0,.55-.15.55s-.26-.38-.28-.43-.09-.31,0-.36.36,0,.45.24"/>
        <path id="path430" class="cls-7" d="M35.15,53.86a.37.37,0,0,1-.22.39c-.29.1-.67-.32-.61-.48s.22-.11.3-.12.47,0,.53.21"/>
        <path id="path432" class="cls-7" d="M38.53,50.35a.37.37,0,0,1-.29.38.28.28,0,0,1-.24-.19c-.09-.22.12-.52.29-.51s.23.17.24.32"/>
        <path id="path434" class="cls-7" d="M34.3,46.05a.34.34,0,0,1-.33.38.27.27,0,1,1,.14-.52s.15,0,.19.14"/>
        <path id="path438" class="cls-8" d="M34.49,14.42s-8.71-.05-13.22,6.32-2.52,14.81-2.14,15.63a10.9,10.9,0,0,0,5.76,5.49c3.91,1.64,12,2.22,16.61-7a14.61,14.61,0,0,0-2.21-16.58l-4.8-3.83"/>
        <path id="path442" class="cls-9" d="M20.5,36.19s22.27,9.9,18.88-16.49c0,0,5.73,13-1.54,18.93-6.94,5.68-16.18.2-17.34-2.44"/>
        <path id="path444" class="cls-10" d="M19,31.73a22.36,22.36,0,0,0,1.47,2.13,17.33,17.33,0,0,0,5.82,5,12,12,0,0,0,7.48,1.1,17,17,0,0,0,2.53-.62,13.63,13.63,0,0,1-2.48.83,11.39,11.39,0,0,1-7.73-.91A15.74,15.74,0,0,1,20.33,34,15.28,15.28,0,0,1,19,31.73"/>
        <path id="path446" class="cls-10" d="M19.79,27.24a23.1,23.1,0,0,0,9.05,7.06c4,1.64,7.39,1.49,11.38.53a15.7,15.7,0,0,1-11.58,0,19.63,19.63,0,0,1-8.85-7.55"/>
        <path id="path450" class="cls-10" d="M21.74,22.34a48.73,48.73,0,0,0,6.61,4q1.16.56,2.34,1.05a23.11,23.11,0,0,0,10,1.9A17.48,17.48,0,0,1,30.42,28c-.81-.33-1.6-.7-2.38-1.11a26.68,26.68,0,0,1-6.3-4.59"/>
        <path id="path454" class="cls-10" d="M24.33,19.7a24.28,24.28,0,0,1,8.92,1,22.75,22.75,0,0,1,7.92,4.17,31.31,31.31,0,0,0-8.05-3.75,35.34,35.34,0,0,0-8.79-1.46"/>
        <path id="path458" class="cls-11" d="M29.21,23c.08.27-.35.67-.8.75s-1.2-.28-1.18-.57.58-.47,1-.5.92,0,1,.32"/>
        <path id="path462" class="cls-11" d="M38.69,27.28c-.22.32-.94.32-1.42,0a1.17,1.17,0,0,1-.59-.87,1.05,1.05,0,0,1,.82-1.07c.74-.06,1.54,1.4,1.19,1.91"/>
        <path id="path466" class="cls-11" d="M38.17,19.61c.11.18-.21.77-.6.75s-.52-.28-.48-.48.34-.26.51-.3.48-.11.57,0"/>
        <path id="path470" class="cls-11" d="M28.12,17.05c0,.2-.31.32-.34.33-.19.07-.47.06-.52-.05s.34-.6.63-.52a.31.31,0,0,1,.23.24"/>
        <path id="path474" class="cls-11" d="M22.67,27.2c0,.26.18,1.08-.14,1.25S21.27,28,21.1,27.22s.29-1.59.69-1.6.78,1,.88,1.58"/>
        <path id="path476" class="cls-11" d="M31.63,29.82a.64.64,0,0,1-.44.83.51.51,0,0,1-.55-.35c-.06-.28.31-.58.63-.59a.4.4,0,0,1,.36.11"/>
        <path id="path478" class="cls-11" d="M37.59,34.51c.08.17-.17.53-.45.52a.38.38,0,0,1-.36-.32c0-.16.18-.26.21-.27.21-.12.54-.08.6.07"/>
        <path id="path480" class="cls-11" d="M30,36.45c.11.25-.33.86-.87.9-.7,0-1.26-.89-1.12-1.12,0-.06.13,0,.94,0s1,.1,1.05.19"/>
        <path id="path482" class="cls-11" d="M34.36,39.06a.43.43,0,0,1-.31.4.42.42,0,0,1-.49-.28.48.48,0,0,1,.56-.48.39.39,0,0,1,.24.36"/>
        <path id="path484" class="cls-11" d="M19.94,34.58c0,.09,0,.39-.13.46s-.52-.13-.62-.42.16-.77.36-.77.37.41.39.73"/>
        <path id="path486" class="cls-11" d="M28,42.16c0,.15-.44.27-.73.14,0,0-.26-.12-.25-.25s.31-.27.57-.23.44.21.41.34"/>
        <path id="path490" class="cls-12" d="M30.94,15.71s1.16,4.34,7.21,2.83a8.65,8.65,0,0,0-7.21-2.83"/>
        <path id="path494" class="cls-2" d="M31.47,16.8s1.37-4.75,0-6.82-2.83-4.61-1.37-6.26A12,12,0,0,1,34,1.07c.44-.25,4.14-1.67,6-.78s3.7,1.88,5.24,6c.57,1.54,1.45,2.94.55,4.79s-6.38,1.36-7.6,4.25-1.28,3-1.49,3.47-4.17,1.33-5.21-2"/>
        <path id="path498" class="cls-13" d="M44.57,21.3c.43,1.07.2,2.42-.21,2.52-.59.13-1.55-2.22-1.85-3s-.42-1.16-.25-1.3c.33-.26,1.79.53,2.31,1.82"/>
        <path id="path500" class="cls-13" d="M44.63,33.15c0,.69-1,1.18-1.25,1s0-.48.07-.86.28-1,.57-1,.62.42.61.83"/>
        <path id="path502" class="cls-13" d="M40.14,39.13a1,1,0,0,0,1.19.39c1.05-.35,1.15-2.7.74-2.87-.17-.07-.45.25-1,.89s-1.07,1.22-.92,1.59"/>
        <path id="path504" class="cls-13" d="M38.32,40.78a.55.55,0,0,1,.19.71c-.24.45-1.32.34-1.39.11s.26-.34.64-.59.43-.28.56-.23"/>
        <path id="path508" class="cls-13" d="M26.71,14.17c0,.17-.39.2-2.24,1-1,.44-1.3.62-1.45.48s0-1.11.59-1.6c1.07-.89,3.07-.28,3.1.1"/>
        <path id="path512" class="cls-13" d="M17.25,21.72c-.56.92.14,2.35.56,2.35s.48-.62.77-1.5.46-1.35.23-1.55-1.19.08-1.56.7"/>
        <path id="path516" class="cls-13" d="M18.15,25.4c.33.76-.42,2-.89,1.93s-1-1.59-.44-2.18a.86.86,0,0,1,.8-.25.89.89,0,0,1,.53.5"/>
        <path id="path518" class="cls-13" d="M17.86,32.82c.12,1.06.23,2-.14,2.15s-1.81-.81-1.95-2.1.84-2.47,1.36-2.38.61,1.29.73,2.33"/>
        <path id="path522" class="cls-14" d="M29.57,13.4c.08.25.15.49.24.72a2.44,2.44,0,0,0,.14.34c0,.11.1.22.15.35a1.24,1.24,0,0,1-.28-.28,1.66,1.66,0,0,1-.18-.35,1.3,1.3,0,0,1-.09-.39.86.86,0,0,1,0-.39"/>
        <path id="path526" class="cls-14" d="M25.22,15.89l.14.14.11.15a1,1,0,0,1,.1.15.68.68,0,0,1,.09.17.46.46,0,0,1-.19-.08,1,1,0,0,1-.15-.14.76.76,0,0,1-.09-.18.38.38,0,0,1,0-.21"/>
        <path id="path530" class="cls-14" d="M20.35,20.05a1,1,0,0,0,.22.14l.22.11.22.12a1.46,1.46,0,0,1,.21.16,1.15,1.15,0,0,1-.52-.12l-.22-.16a.47.47,0,0,1-.13-.25"/>
        <path id="path534" class="cls-14" d="M19.22,23h.14l.11.05a.45.45,0,0,1,.17.18.23.23,0,0,1-.14,0l-.12,0-.1-.08a.52.52,0,0,1-.06-.13"/>
        <path id="path538" class="cls-14" d="M38.34,17.31a2.14,2.14,0,0,1,.32-.2,3.37,3.37,0,0,1,.32-.19l.32-.17.33-.18a1.16,1.16,0,0,1-.25.29,2.18,2.18,0,0,1-.31.22,2.63,2.63,0,0,1-.35.15,1.72,1.72,0,0,1-.38.08"/>
        <path id="path542" class="cls-14" d="M41.8,21.59l.12-.08.1,0a.35.35,0,0,1,.11,0,.65.65,0,0,1,.14,0,.2.2,0,0,1-.08.12.19.19,0,0,1-.11.07.36.36,0,0,1-.14,0,.25.25,0,0,1-.14-.06"/>
        <path id="path544" class="cls-14" d="M43,31l.09,0h.08l.07,0,.07.07a.17.17,0,0,1-.08.07h-.09a.18.18,0,0,1-.09,0,.14.14,0,0,1,0-.1"/>
        <path id="path548" class="cls-14" d="M42.81,24.53l.11-.06.1,0a.48.48,0,0,1,.12,0,.3.3,0,0,1,.12,0,.22.22,0,0,1-.09.1.38.38,0,0,1-.24,0,.18.18,0,0,1-.12-.08"/>
        <path id="path552" class="cls-15" d="M25.17,14.12c.08.24-.58.84-1.18.75-.19,0-.46-.14-.48-.31s.49-.48.53-.5c.44-.18,1.07-.15,1.13.06"/>
        <path id="path556" class="cls-15" d="M18.45,21.2c.13.14-.15.63-.49.94-.13.12-.51.44-.65.34s0-.79.46-1.11c.22-.16.58-.29.68-.17"/>
        <path id="path560" class="cls-15" d="M17.18,25.2c.13-.1.29-.22.4-.16s.18.81-.2,1.19c-.05.05-.25.25-.41.19s-.22-.49-.22-.51a.9.9,0,0,1,.43-.71"/>
        <path id="path562" class="cls-15" d="M17.2,31.11a1.18,1.18,0,0,1-.34,1.67.79.79,0,0,1-.77-.08c-.29-.3,0-.91,0-.94.23-.52.85-.87,1.12-.65"/>
        <path id="path566" class="cls-15" d="M42.71,19.8c.27-.21,1.4.57,1.61,1.5.07.29.07.74-.14.84s-.88-.56-.92-.6c-.49-.61-.78-1.56-.55-1.74"/>
        <path id="path568" class="cls-15" d="M44.25,32.61c.17.09.28.59,0,.75a.36.36,0,0,1-.35,0c-.16-.11-.1-.39-.1-.41,0-.23.28-.42.43-.35"/>
        <path id="path570" class="cls-15" d="M41.81,37.27c.25,0,.44.92.06,1.39-.12.15-.35.32-.51.26s-.17-.67-.17-.7c.06-.48.4-1,.62-.95"/>
        <path id="path572" class="cls-15" d="M37.5,41.59c0-.12.31-.42.63-.38.09,0,.24.07.25.16s-.26.24-.28.25c-.23.09-.56.08-.6,0"/>
        <path id="path576" class="cls-16" d="M31.79,17.56s2.34-4.75,1-7-2.26-4.12-1.15-5.33S35.33,6,36.6,7.71s4.21.07,6.35.76c.88.27,2.92,2.61-1.33,3.68s-5.25,4.32-5.91,7c0,0-2.77.85-3.92-1.62"/>
        <path id="path580" class="cls-17" d="M32,5s.76-.72,3.56,1.33c1,.74,1,1.5,5.22,1.54,2.15,0,2.84,1.07,2.84,1.07a3.89,3.89,0,0,0-2.1-.25c-1,.19-1.25.75-2.51,1.2a3.82,3.82,0,0,1-2.8.24C35.41,9.78,35,9,34.33,7.77A6.65,6.65,0,0,0,33,5.63,3.36,3.36,0,0,0,32,5"/>
        <path id="path584" class="cls-17" d="M40.15,4.89a2.7,2.7,0,0,1,1.23-.55,2.06,2.06,0,0,1,.7,0,1.72,1.72,0,0,1,.66.26,2.12,2.12,0,0,1,.51.48l.11.14.08.15a1.82,1.82,0,0,1,.16.31A4.13,4.13,0,0,1,43.92,7a7.71,7.71,0,0,0-.51-1.21,2.68,2.68,0,0,0-.81-1,1.84,1.84,0,0,0-1.19-.28,3.75,3.75,0,0,0-1.26.34"/>
        <path id="path588" class="cls-17" d="M36.77,3.92A3.83,3.83,0,0,0,36,2.85,1.89,1.89,0,0,0,35,2.29a2.57,2.57,0,0,0-1.24.19,8.66,8.66,0,0,0-1.18.59,4.3,4.3,0,0,1,1.1-.78A1.79,1.79,0,0,1,34,2.16l.16-.06.17,0A2.41,2.41,0,0,1,35,2a2.22,2.22,0,0,1,.67.23,2,2,0,0,1,.53.46,2.57,2.57,0,0,1,.58,1.21"/>
        <path id="path592" class="cls-17" d="M37.55,5.57a.76.76,0,0,1-.14.59c-.06.09-.15.25-.26.23S37,6.25,37,6.13a.76.76,0,0,1-.05-.59c.05-.13.19-.37.36-.35s.28.36.29.38"/>
        <path id="path596" class="cls-17" d="M39,6.21a.77.77,0,0,1-.39.46c-.1.06-.25.16-.34.1s-.07-.2-.06-.32a.75.75,0,0,1,.22-.55c.1-.1.33-.25.48-.16s.09.45.09.47"/>
        <path id="path600" class="cls-18" d="M34.71,8.46a6.43,6.43,0,0,1,4.45,1.39s-3.14,2-4.45-1.39"/>
        <path id="path604" class="cls-17" d="M36.87,8.69s-.08,0-.17.22a1,1,0,0,1,.43-.17s0-.12-.26-.05"/>
        <path id="path608" class="cls-3" d="M37,4.27a2.26,2.26,0,0,1,.74-.14,2.51,2.51,0,0,1,.76.12l.17.07.18.09.16.1.08.06.06.07a1.76,1.76,0,0,1,.44.61,3.57,3.57,0,0,0-.52-.51,2.38,2.38,0,0,0-.63-.33,3.43,3.43,0,0,0-.71-.14,4.45,4.45,0,0,0-.73,0"/>
        <path id="path612" class="cls-19" d="M33.58,10.94a4.15,4.15,0,0,0,.9,1.17,3.59,3.59,0,0,0,1.24.75,4.29,4.29,0,0,0,1.43.23A8.44,8.44,0,0,0,38.64,13a5,5,0,0,1-1.48.35h-.58l-.2,0a3.49,3.49,0,0,1-.76-.18,3.4,3.4,0,0,1-.69-.34,3.62,3.62,0,0,1-.6-.5,3.17,3.17,0,0,1-.75-1.32"/>
        <path id="path616" class="cls-3" d="M44.53,11.61s2.44-.67.41-5.16c0,0,1,3.78-.41,5.16"/>
        <path id="path620" class="cls-6" d="M30.09,5S32.59.36,39.34.51c0,0-7.32-.71-9.25,4.5"/>
        <path id="path624" class="cls-7" d="M41.31,1.4c.41.26.37,1.19.1,1.3s-1-.6-.89-1.05a.54.54,0,0,1,.31-.32.59.59,0,0,1,.48.07"/>
        <path id="path628" class="cls-7" d="M37.81.86c-.6.29-1.46-.2-1.43-.41s.51-.18,1.17-.23.68,0,.7.07-.16.44-.44.57"/>
        <path id="path632" class="cls-7" d="M40.17.62c.16.08.39.2.37.27S40,1,39.81.77c-.07-.08-.1-.22-.05-.27s.26,0,.41.12"/>
        <path id="path636" class="cls-7" d="M38.71,1.22s.09.16,0,.24a.39.39,0,0,1-.58,0A.33.33,0,0,1,38.29,1c.16-.07.34.1.42.23"/>
        <path id="path640" class="cls-7" d="M42.93,2.64a.28.28,0,0,1-.17.23.27.27,0,0,1-.32-.15.26.26,0,0,1,.2-.33.26.26,0,0,1,.29.25"/>
        <path id="path644" class="cls-7" d="M40,3.3c.09.3,0,.69-.14.74s-.38-.22-.48-.41-.18-.83,0-.91.52.23.63.58"/>
      </g>
    </g>
  </g>
</svg>
