<svg xmlns="http://www.w3.org/2000/svg" viewBox="0 0 987.45 780.68">
  <defs>
    <style>
      .cls-1 {
        fill: #a2b33a;
      }

      .cls-2 {
        fill: #a7a23a;
      }

      .cls-3 {
        fill: #98c03a;
      }

      .cls-4 {
        fill: #8ca127;
      }

      .cls-5 {
        fill: #a4c53a;
      }

      .cls-6 {
        fill: #c4e2aa;
      }

      .cls-7 {
        fill: #deeebb;
      }

      .cls-8 {
        fill: #f2f8e4;
      }

      .cls-9 {
        fill: #92a16f;
      }

      .cls-10 {
        fill: #ffd146;
      }

      .cls-11 {
        fill: #ffe56a;
      }

      .cls-12 {
        fill: #3d4700;
      }

      .cls-13 {
        fill: #fff4a4;
      }

      .cls-14 {
        fill: #b6db3a;
      }

      .cls-15 {
        fill: #7fac27;
      }

      .cls-16 {
        fill: #c8dc89;
      }

      .cls-17 {
        fill: #b6d170;
      }

      .cls-18 {
        fill: #313a18;
      }

      .cls-19 {
        fill: #dfd1cc;
      }

      .cls-20 {
        fill: #f2b6d1;
      }

      .cls-21 {
        fill: #702e14;
      }

      .cls-22 {
        fill: #965626;
      }

      .cls-23 {
        fill: #7c3314;
      }

      .cls-24 {
        fill: #964526;
      }

      .cls-25 {
        fill: #aa623d;
      }

      .cls-26 {
        fill: #612214;
      }

      .cls-27 {
        fill: #613314;
      }
    </style>
  </defs>
  <g id="Layer_2" data-name="Layer 2">
    <g id="svg2">
      <path id="path646" class="cls-1" d="M28.9,674.53s54.05-23.87,91-58,121-74.86,185.27-86.9l60.48.06S363,653.41,194.31,680.88C98.62,696.46,28.9,674.53,28.9,674.53"/>
      <path id="path648" class="cls-2" d="M94.55,673.84S251.43,675.28,320,569.54c0,0,19.92-1.24,20.43,21.6,0,0-53,90.7-245.9,82.7"/>
      <path id="path650" class="cls-3" d="M85.72,657.12s62.32-54.5,106.65-76.31,72.68-32.69,72.68-32.69-123.19,83.57-179.33,109"/>
      <path id="path652" class="cls-4" d="M135.32,673.66c.07,4-7.64,7.35-11.81,8.54-14.77,4.21-32.5-4.74-32.15-10.54.26-4.41,10.94-7.37,17.72-8,12.4-1.06,26.17,4.59,26.24,10"/>
      <path id="path654" class="cls-4" d="M131,647.68c-1.33,2.62-5.38,3.25-7.91,3-4-.37-9.23-3.37-9.12-8,.1-4.09,4.45-7.42,8.31-7.42,6.08,0,10.79,8.29,8.72,12.36"/>
      <path id="path656" class="cls-4" d="M77.18,668.5c-.72,3.59-5.92,4.74-6.9,4.94-5.86,1.13-13-2.39-13.08-5.78-.13-3.88,8.79-9.21,14.9-6.54,2.69,1.18,5.7,4.3,5.08,7.38"/>
      <path id="path658" class="cls-4" d="M209.82,642.58c2.9,7.94-6.95,20.78-18.13,21-6.86.13-15.23-4.48-16.3-11.59-1.22-8,7.54-15,15.17-16.66,7.39-1.58,17,1.17,19.26,7.26"/>
      <path id="path660" class="cls-4" d="M238,584.54c1.27,3.87-.7,8.74-3.82,9.72-4.12,1.3-10.45-4.18-9.45-9.09.69-3.33,4.73-6.32,8.45-5.44,3.44.8,4.71,4.47,4.82,4.81"/>
      <path id="path662" class="cls-4" d="M293,621.14c1.11,2.3-3.46,8.42-8.36,8.36-1.54,0-3.77-.64-4.36-2.17-.82-2.17,2-5.27,4.73-6.55,2.91-1.37,7.16-1.34,8,.36"/>
      <path id="path664" class="cls-1" d="M577,589.54S595.72,664.4,676.39,700s141.72,65.41,162.07,80.68c0,0-10.34-67.75-58.68-103.94S637.88,590.26,627.7,575c0,0-44-9.42-50.73,14.54"/>
      <path id="path666" class="cls-3" d="M599.84,602.62s21.43,53.26,126,109c14.54,7.76,63.64,27.22,87.21,43.62,0,0-103.68-77-140.5-98.12s-72.68-54.5-72.68-54.5"/>
      <path id="path668" class="cls-2" d="M692.1,643.32S769.42,681.6,813,736.82c0,0-17-67.37-120.92-93.5"/>
      <path id="path670" class="cls-4" d="M791.71,724.72c1.74,7.25-2,16.46-6.91,17.2s-9.71-7.24-11.5-11.51c-2.67-6.37-3.7-16.4.48-18.79,4.59-2.61,15.71,3.86,17.93,13.1"/>
      <path id="path672" class="cls-4" d="M825.14,750.4c0,1.21,0,6.36-2.43,7.26-2.9,1.08-9.19-4.12-9.69-10.32-.36-4.64,2.49-9.92,5.33-10,3.39-.13,6.81,7,6.79,13.1"/>
      <path id="path674" class="cls-4" d="M782.38,699.68c-.68,3.3-5.8,5.34-9.87,5-4.54-.35-9.93-3.8-9.66-7.9.24-3.57,4.72-6.29,8.51-6.5,5.88-.35,11.87,5.26,11,9.36"/>
      <path id="path676" class="cls-4" d="M733.08,690.32c-1.35,5.49-11.37,8.32-19,7.2-11.87-1.74-22.13-13.76-19.8-19.8,2-5.27,13.75-6.38,22.1-3.86,8.56,2.58,18.17,10.34,16.66,16.46"/>
      <path id="path678" class="cls-4" d="M684.63,635.57c-.26,2.52-5.24,4.81-9.39,4-5-1-8.72-6.44-7.57-8.84s7-1.54,7.57-1.46c4.31.66,9.68,3.54,9.39,6.31"/>
      <path id="path680" class="cls-4" d="M630.83,660.4c-1.72.86-4.75-1.39-6-4-1.68-3.6-.43-8.82,1.58-9.54,1.76-.62,4.07,2.18,5.06,4.38,1.48,3.32,1.29,8.2-.66,9.18"/>
      <path id="path682" class="cls-5" d="M712.81,495.18s47,1.7,69.57-49.33c0,0-39.22,20.48-85,6.53,0,0-19.21,32.26,15.39,42.8"/>
      <path id="path684" class="cls-1" d="M713.49,470.4a56.54,56.54,0,0,0,53.26-13.28s-30.82,11-53.26,13.28"/>
      <path id="path686" class="cls-6" d="M210.3,461.62S234.52,590.68,469,597.29c240.8,6.77,256.78-122.59,256.78-122.59L210.3,461.62"/>
      <path id="path688" class="cls-7" d="M631.86,472.32l-240.7-6.11-175,2.13S239.9,575.17,429.85,573.4c160.4-1.5,194.83-75,202-101.08"/>
      <path id="path690" class="cls-8" d="M450.19,564.1c-2.66,3.48-13.79-.52-20.53-4.54-1.48-.88-12.15-7.27-10.9-11.08,1.33-4.07,16.29-5.8,25.13,1.54,4.85,4,8.43,11.28,6.3,14.08"/>
      <path id="path692" class="cls-8" d="M531.77,575.76c1.37,1.94-2.84,8.34-8.43,11.72-9.44,5.69-22.85,2.81-23.3-.15-.43-2.79,10.55-6.48,19.21-9.37,6.71-2.27,11.41-3.8,12.52-2.2"/>
      <path id="path694" class="cls-8" d="M576.73,550.64c1.12,2.65-1.81,6.82-5.41,8.12-3.88,1.38-9.1-.36-9.73-3.26-.56-2.56,2.57-5.42,5.26-6.56,3.5-1.48,8.72-1,9.88,1.7"/>
      <path id="path696" class="cls-8" d="M283.22,534.3c-1,3.44-11,5.59-17,1.12-4.75-3.54-6.7-11.08-4.3-13.4s8.94,1,11.13,2.11c3.88,2,11.16,6.87,10.17,10.17"/>
      <path id="path698" class="cls-8" d="M686.32,511.29c3.15,3.85.34,15.8-6.84,17.93-4.65,1.39-11.2-1.34-12.42-6-1.33-5.08,4.4-9.83,7.72-11.59s9.13-3.29,11.54-.36"/>
      <path id="path700" class="cls-9" d="M293.2,529.58s-6.52,10.06-2.32,25.87c0,0,5.6,11.35,18.15,9.29,0,0-10.94-13-15.83-35.16"/>
      <path id="path702" class="cls-9" d="M471.84,565.06s-2.57,19.42,5.06,32.48c0,0,5.71,7.28,15.39,0,0,0-17.17-12.46-20.45-32.48"/>
      <path id="path704" class="cls-9" d="M539.19,595.08s4.68-16.47,4.08-28.44c0,0,10.53,19.26,9.33,26.89,0,0-3.23,7.73-13.41,1.55"/>
      <path id="path706" class="cls-9" d="M414,569.53l4.4-12.4s3.63,16.27,6.54,25.79c0,0-8.8-5.78-10.94-13.39"/>
      <path id="path708" class="cls-9" d="M599.84,584.2s7-18.06,0-27.07S619,578.24,619,578.24s-4.12,8.61-19.14,6"/>
      <path id="path710" class="cls-9" d="M699.33,526.54s-1.11-8.7-9.84-18.64c0,0,8.85-.52,18.23,7.86,0,0,2.19,12.46-8.39,10.78"/>
      <path id="path712" class="cls-10" d="M210.3,200.84s21.87-52.94,15.52-92.18-23.53-84.86-7.18-92.17,202.64-33.15,273.09,0C499.49,20.14,503,153.38,485.38,178s-202.22,1.83-212.55-5.48c-8.92,9.14-34.32,27.39-62.53,28.3"/>
      <path id="path714" class="cls-11" d="M218.64,16.49c-16.35,7.31.83,52.93,7.18,92.17a111.66,111.66,0,0,1,.65,26.87c25.48,12.23,56.6,19.4,90.2,19.4,86.28,0,156.22-47.33,156.22-105.73,0-15.19-4.74-29.63-13.26-42.68-83.2-16.87-226.73,3.61-241,10"/>
      <path id="path716" class="cls-12" d="M273.29,20.48c5.42,11,9.17,22.52,12.33,34.17a300.75,300.75,0,0,1,7.15,35.48,300.16,300.16,0,0,1,2.94,36.07,213.82,213.82,0,0,1-2.07,36.24c-3-11.85-4.89-23.65-6.9-35.43-1.85-11.77-3.7-23.52-5.3-35.28s-3.22-23.54-4.63-35.37-2.69-23.72-3.52-35.88"/>
      <path id="path718" class="cls-12" d="M273.29,91.47c5.76-3.82,12.11-6,18.48-7.78a101.9,101.9,0,0,1,19.51-3.09,103.84,103.84,0,0,1,19.7.65,71.26,71.26,0,0,1,19.34,5.12,78.53,78.53,0,0,1-9.76,2.36c-3.22.66-6.41,1.06-9.59,1.52-6.37.79-12.68,1.44-19,1.78s-12.64.58-19,.56a170.48,170.48,0,0,1-19.64-1.12"/>
      <path id="path720" class="cls-12" d="M326.1,20.48a208.06,208.06,0,0,1,12.08,34.19,292.47,292.47,0,0,1,7.18,35.45,245.79,245.79,0,0,1,2.45,36.21c-.23,12.12-1.32,24.39-4.75,36.11-1.33-12.12-2.73-23.84-4.24-35.59s-3.24-23.42-4.79-35.16-3.25-23.48-4.66-35.32-2.68-23.72-3.27-35.89"/>
      <path id="path722" class="cls-12" d="M388.11,167.77c-1.13-9.85-1.49-19.49-1.7-29.1s-.14-19.15,0-28.67.34-19,.63-28.56.46-19,1.05-29c4.11,9.06,6.4,18.74,7.94,28.44a188.92,188.92,0,0,1,1.82,29.28,212,212,0,0,1-2.51,29.12,141.9,141.9,0,0,1-7.25,28.48"/>
      <path id="path724" class="cls-12" d="M390.16,28.53a5.63,5.63,0,1,1-5.63-5.62,5.63,5.63,0,0,1,5.63,5.62"/>
      <path id="path726" class="cls-12" d="M436.08,18.05a172.42,172.42,0,0,1,9.07,30.87,260.8,260.8,0,0,1,4.44,31.72,237,237,0,0,1,.27,32.09,141.44,141.44,0,0,1-5.54,31.79c-1.53-10.76-2.49-21.21-3.46-31.68S439,92,438.18,81.51,436.7,60.57,436.25,50s-.68-21.15-.17-32"/>
      <path id="path728" class="cls-12" d="M447.33,164.63a5.63,5.63,0,1,1-5.62-5.63,5.62,5.62,0,0,1,5.62,5.63"/>
      <path id="path730" class="cls-13" d="M252.7,84.08c7.34,50.94-20.79,96.53-25.44,95.2-4.07-1.16,11.73-37.66,6.54-96.66-3.07-34.9-11.64-56.61-8.36-57.77,3.85-1.37,22.48,26.09,27.26,59.23"/>
      <path id="path732" class="cls-13" d="M451.1,12.49C451,13.78,418.69,9.82,364.37,10s-86.6,4.28-86.72,3,38.68-9,86.24-9.2c48.07-.19,87.34,7.29,87.21,8.72"/>
      <path id="path734" class="cls-1" d="M197.85,416.88S193.47,373,210.3,356.22c2.27-2.26,39.17-22.82,31.33-59.18,0,0,1.65,26.36-34.72,49-16.35,10.2-26.47,45-9.06,70.8"/>
      <path id="path736" class="cls-5" d="M311.71,525.72S326.05,595,357,643.89,536.81,759.16,642.09,761.77c-10.75-26.88-44.22-93.93-116.17-125.67S397.6,561.1,382.81,538c0,0-47.65-39.82-71.1-12.3"/>
      <path id="path738" class="cls-1" d="M365.61,548.12s50.61,69.76,132,104.64S619,748,619,748,584.1,669.36,517.23,638.9s-101.94-37-151.62-90.78"/>
      <path id="path740" class="cls-14" d="M346.45,597.54s5.08,77.75,210.76,144.62c0,0-148.08-65.2-210.76-144.62"/>
      <path id="path742" class="cls-15" d="M596.45,735.85c-.16,6.31-7.38,11.51-11.55,10s-4.4-8.77-4.44-9.55c-.17-3.5.7-9.89,4.36-11.14,4.24-1.46,11.8,4.09,11.63,10.65"/>
      <path id="path744" class="cls-15" d="M570.29,731.49c-1,2.29-3.59,4.6-6.45,4a5.56,5.56,0,0,1-4.21-4.2c-.92-4.33,4.46-9.52,7.75-8.57,2.53.73,4.39,5.24,2.91,8.72"/>
      <path id="path746" class="cls-15" d="M573.19,693.7c1,10.72-7.5,22.67-15.5,22.3-7.84-.38-12.89-12.51-14.05-20.36-1-7.16-.1-19.16,6.3-21.8,7.55-3.11,22.09,7.09,23.25,19.86"/>
      <path id="path748" class="cls-15" d="M489.86,686.44c1.77,3.16,5.67,10.1,3.39,12.6-3,3.29-17.7-.36-20.36-9.7-1.63-5.72,1.34-13.24,5.34-14.05,4.83-1,9.9,8.07,11.63,11.15"/>
      <path id="path750" class="cls-15" d="M486.47,641.86c-.1,4.23-4.58,8.48-8.66,7.79-3.6-.61-5.18-4.81-5.38-5.37-1.39-3.9-.28-9.23,2.9-10.66,4-1.81,11.27,2.76,11.14,8.24"/>
      <path id="path752" class="cls-5" d="M572.11,536.94s69.6,109.59,240.52,115.11,174.82,13.8,174.82,13.8-40-89.56-174.82-110.39S621.4,525.24,621.4,525.24s-43.78-26.15-49.29,11.7"/>
      <path id="path754" class="cls-1" d="M624.07,535s132.27,40.28,209.3,56.12S968.55,652,968.55,652s-37.42-67.2-151.93-87.71C663.23,536.86,667.67,544,624.07,535"/>
      <path id="path756" class="cls-14" d="M592.82,548.12s68.81,75.57,189.56,95.2c0,0-154-62.51-189.56-95.2"/>
      <path id="path758" class="cls-15" d="M930.76,622.24c4.51,5.8-7.55,26.8-16.17,25.8-4.46-.52-7-6.79-7.09-7.08-2.78-7.19,2.47-13.82,2.91-14.36,5.72-7,17.34-8.23,20.35-4.36"/>
      <path id="path760" class="cls-15" d="M955.33,641.08c-.35,4.08-3.8,8.32-7.73,8.53-5.25.29-9.74-6.65-9.21-12.47.24-2.68,1.68-6.65,4.72-7.64,4.87-1.57,12.81,4.79,12.22,11.58"/>
      <path id="path762" class="cls-15" d="M907.93,601.62c.5,2.32-2.72,5.54-5.91,5.9-5.37.62-10.55-6.86-9.29-9.27,1.07-2.07,7.13-.87,9.93,0,2.25.71,4.87,1.53,5.27,3.37"/>
      <path id="path764" class="cls-15" d="M875.41,614.54c-.29,5.2-5.26,10.5-9.76,9.76-4.31-.7-6.31-6.65-6.6-10.3-.3-4,1.06-9.76,4.61-10.9,4.47-1.44,12.11,4.67,11.75,11.44"/>
      <path id="path766" class="cls-15" d="M805.52,634.36c-.66,3.62-8.95,5.72-15.39,5.09-10.76-1.07-20.64-10.13-19.26-14.31,1.21-3.64,11.1-3.82,17.69-2.41,8.31,1.77,17.71,7.45,17,11.63"/>
      <path id="path768" class="cls-15" d="M689.48,561.56a5,5,0,0,1-5.48,5,4.69,4.69,0,0,1-3.61-3.6,4.89,4.89,0,0,1,2.73-5.61,5,5,0,0,1,6.36,4.19"/>
      <path id="path770" class="cls-5" d="M210.3,461.62s-24.05-46.69-7.36-96.29c4.81-14.29,51-28.71,37.4-73.28s-32-94-124-91.09S-.94,278.48,0,304.65s28.49,55.48,49.9,79.21c11.14,12.36,25.68,52,67.35,80.87s87.46,39,140.63,43.17c0,0-5.94-34.65-47.61-46.28"/>
      <path id="path772" class="cls-16" d="M40.92,285.41c-3,1.52-8.31,3.57-11.7,8.33-4.35,6.12-6.17,14.1-4.73,26.16,2.44,20.35,11.92,33.67,24.71,55.6C65.49,403.44,62,402.24,71.59,417.26c5.56,8.72,26.12,42.6,61.95,64.11,28.54,17.12,64.75,24,124.37,26.53l-50-61.78s-6.54-3-13.57-10.71C183,423,179,407.48,177.84,396.3c-4.72-47,36.17-51.22,32.46-87.66-.79-7.74-5.12-13.76-7.47-15.75,1.24,1.05-4.89,1.23-7.43,2.43a166,166,0,0,1-75,15.57,155.07,155.07,0,0,1-79.49-25.48"/>
      <path id="path774" class="cls-17" d="M80.72,431s67.75,76.92,162,51.48l26.21,25.44S133.27,530.8,80.72,431"/>
      <path id="path776" class="cls-18" d="M42.66,289.14c-.85-.54-3-1.92-2.79-2.92.76-3,21.32-.16,34.77,3.4,16.47,4.36,23.55,17,52.09,17.44s53.9-19.25,74.73-14.77c.91.2,1.38.43,1.47.76.56,2.11-6.93,7.08-11.7,10.39-12.85,8.9-16.92,14.2-22.35,18.17-17.83,13-59.29,18.32-87.21,1.45-15.88-9.6-23.43-24-39-33.92"/>
      <path id="path778" class="cls-18" d="M177.73,260.56c-1.68,6.41-7.28,15.5-15,15.29-6.91-.19-11.91-7.77-13.52-13.41-3.83-13.43,7.36-30.51,16-29.95,7.84.51,15.73,15.73,12.51,28.07"/>
      <path id="path780" class="cls-19" d="M154.55,255.66c.16.78,1.28,5.86,3.79,6.22,3.07.44,7.28-6.32,8.12-12.72.64-4.87-.37-11.76-3-12.31-3.52-.72-10.77,9.72-8.91,18.81"/>
      <path id="path782" class="cls-5" d="M147.63,273.08s26.2,3.7,36.33-5.48c0,0-13,32.21-36.33,5.48"/>
      <path id="path784" class="cls-1" d="M147.05,277.38a41.39,41.39,0,0,1,9.15-4.14,57.26,57.26,0,0,1,9.78-2.32,50,50,0,0,1,10.09-.43,33.24,33.24,0,0,1,9.86,2.07c-3.38.18-6.6.28-9.84.57s-6.43.67-9.63,1.13-6.4,1-9.62,1.52-6.45,1.12-9.79,1.6"/>
      <path id="path786" class="cls-18" d="M95.44,259.18c-3.31,6.88-11.61,15.19-18.91,13.35-7.56-1.89-10.82-13.8-10.16-21.87,1.07-13,13.2-25.69,21.24-23.78,8.3,2,13.82,19.84,7.83,32.3"/>
      <path id="path788" class="cls-19" d="M72.55,252.06c.17.84,1.32,6.34,4,6.76,3.32.51,7.93-6.76,8.9-13.68.74-5.25-.29-12.73-3.13-13.33-3.79-.81-11.74,10.4-9.81,20.25"/>
      <path id="path790" class="cls-5" d="M58.4,262.65s23.59,12,36.15,6.6c0,0-22.74,26.25-36.15-6.6"/>
      <path id="path792" class="cls-1" d="M56.86,265.5a41.65,41.65,0,0,1,10-.6,56.93,56.93,0,0,1,10,1.35,49.76,49.76,0,0,1,9.56,3.21,32.7,32.7,0,0,1,8.47,5.47c-3.21-1-6.26-2.11-9.39-3s-6.24-1.68-9.4-2.39-6.32-1.4-9.52-2-6.43-1.26-9.71-2"/>
      <path id="path794" class="cls-18" d="M115.12,284.12c1.74,3.2.82,6.46.36,8.08s-1.07,3.82-2.51,4.08-2.53-1.36-3.55-2.7c-1.22-1.56-3.14-4-2.85-7.45.16-1.91,1.13-5.52,3.44-5.93,2.66-.48,5,3.66,5.11,3.92"/>
      <path id="path796" class="cls-18" d="M136.25,287c.13,3.62-2.14,6.17-3.27,7.42s-2.66,3-4.06,2.56-1.65-2.33-2-4c-.39-1.94-1-5,.76-7.95,1-1.65,3.46-4.48,5.71-3.84,2.6.73,2.83,5.49,2.84,5.79"/>
      <path id="path798" class="cls-1" d="M102,277.38s20-5.48,39,2.78c0,0-16.67-16.71-38.95-2.78"/>
      <path id="path800" class="cls-17" d="M66.29,377.81s53.25,34.4,97.18,2.91c0,0-45.45,48.45-97.18-2.91"/>
      <path id="path802" class="cls-14" d="M10.32,296.29s21.77-104.65,153.15-81.4c0,0-123.71-47.23-153.15,81.4"/>
      <path id="path804" class="cls-14" d="M24,288.22s12.13-19.64,42.28-14.32c0,0-30.78-19.17-42.28,14.32"/>
      <path id="path806" class="cls-14" d="M155.67,285.41s30.89-13.43,51.24,0c0,0-22.29-21.67-51.24,0"/>
      <path id="path808" class="cls-20" d="M85.72,325.29s40.18-11.09,80.93-2.19c0,0-38.71,28.54-80.93,2.19"/>
      <path id="path810" class="cls-15" d="M147.05,215.38c-.65,2.94-5,4.58-8.21,4.72-7,.31-14.07-6.3-13.08-10.17.79-3.12,6.9-4.84,11.62-3.88,5.16,1,10.5,5.61,9.67,9.33"/>
      <path id="path812" class="cls-15" d="M111.34,215.62c-.17,2-1.6,4.15-3.45,4.5-3.27.58-7.44-4.48-6.12-7.78a4.83,4.83,0,0,1,4.6-2.66,5.57,5.57,0,0,1,5,5.94"/>
      <path id="path814" class="cls-15" d="M133.75,232.7c.52,4.12-3.6,8-7.32,7.47-2.52-.36-4.39-2.68-4.94-4.95-.77-3.13.76-7.08,4-8.09,3.63-1.15,7.77,1.84,8.24,5.57"/>
      <path id="path816" class="cls-15" d="M184.38,224.22c-1.13,1.55-6.75-.81-9.45-1.94-2.93-1.23-4.78-2-5.08-3.63-.41-2.13,2.09-4.91,4.6-5.33,5.36-.91,11.44,8.82,9.93,10.9"/>
      <path id="path818" class="cls-15" d="M86.89,213.64a6.35,6.35,0,0,1-3.53,6.7c-4.45,1.78-11.32-4.42-10.42-8.24.63-2.65,5.18-4.76,9-3.62.32.09,4.36,1.37,5,5.16"/>
      <path id="path820" class="cls-21" d="M197.85,416.88S187.05,480,269.41,513s352.07,69.46,472.88-51.36c14.53-14.53,2.9-50.38-32.95-44.57,0,0-53.29-168.61-224.81-184.11S246.15,413.17,246.15,413.17s-21.16-27.29-48.3,3.71"/>
      <path id="path822" class="cls-22" d="M269.43,513.05c82.43,32.77,352.07,69.45,472.87-51.36,8.45-8.44,8.05-24.07-.79-34.55-9.51-2.57-30.21,28.74-61.23,43.44-22.55,10.71-83,45.51-223.35,45.51-147.88,0-200-51.16-217.6-70.17s-41.46-29-41.46-29-14.2,62,71.56,96.11"/>
      <path id="path824" class="cls-23" d="M254.32,393.29C301.86,417.89,358.06,431,417.63,431c98.48,0,186.42-38.68,244.3-99.3-34.71-44.35-91.08-90.94-177.4-98.74C348,220.6,277.27,343.24,254.32,393.29"/>
      <path id="path826" class="cls-24" d="M449,232.73c1.82,6.36-4.49,13.44-12.21,21-22.1,21.77-33.15,32.67-56,43.36-5.91,2.77-63.42,29.33-74.72,14-5.9-8,3.31-23.93,11-37.25,6.19-10.7,21.94-37,55-49.18,23.05-8.46,42.2-5.52,51.38-4,8.82,1.48,23.19,3.88,25.51,12"/>
      <path id="path828" class="cls-25" d="M401,241.08c5.95,8.22-1.84,22.74-2.9,24.72-8.76,16.3-26.84,21-38.52,24-11.4,3-21.17,5.45-25.44.73-6.95-7.7,2.59-32.54,20.19-45,15.24-10.78,39.48-14.37,46.67-4.42"/>
      <path id="path830" class="cls-26" d="M257.91,424.56c31.78,15.16,72.33,26.94,106.7,33.49a530.24,530.24,0,0,0,55.18,7.61c42.89,3.47,69.84,2.47,111.16-1.56,15.88-1.66,38.51-5.24,55.1-8.7,36.5-7.56,72.43-18.19,107.94-30.84a489.88,489.88,0,0,1-105.63,40.78,468.53,468.53,0,0,1-55.88,11.07c-34,5-74.35,5.93-113.91,1.55a437.12,437.12,0,0,1-56.15-10c-35.71-9.46-72.88-21.86-104.51-43.42"/>
      <path id="path832" class="cls-23" d="M224.61,416.88c19.16,11.93,38.14,24.05,57.2,36a170.05,170.05,0,0,0,29.24,15.56,227.74,227.74,0,0,0,31.54,10.15c42.84,10.6,89.27,12.25,133.36,12.82-41.92,6.3-95.74,5.58-135.34-5a196.93,196.93,0,0,1-32.52-11.15c-13.79-6.1-20.8-11.36-29.57-17.48-18.4-13.08-36.5-26.56-53.91-40.94"/>
      <path id="path834" class="cls-23" d="M532,487.06c15.8-3.88,31.49-7.66,47.13-11.6s31.16-8.16,46.53-12.76S656.27,453,671.11,447l5.54-2.29c1.83-.82,3.64-1.67,5.48-2.46s3.62-1.69,5.44-2.53l2.71-1.29,2.65-1.4a162,162,0,0,0,20.68-12.48A104.68,104.68,0,0,1,695,440.48a173.16,173.16,0,0,1-21.26,12.34,288.17,288.17,0,0,1-45.69,17.71,412.2,412.2,0,0,1-47.56,11.15A350.29,350.29,0,0,1,532,487.06"/>
      <path id="path836" class="cls-24" d="M584.81,264c-4.43,9.23-31.58,5.51-48.68,0-18.85-6.09-45-20.72-42.75-30.05,2.73-11.16,46.88-17.71,74,2.44,9.59,7.12,20.89,20.43,17.43,27.64"/>
      <path id="path838" class="cls-24" d="M539,325c-14,15.92-28.5,32.37-49.42,32.7-27.25.42-57.32-26.64-53.78-50.14,3.64-24.19,41.17-33.4,59.59-34.88,23.79-1.94,56.28,5.69,59.88,22.24,2,9.29-5.75,18.12-16.27,30.08"/>
      <path id="path840" class="cls-24" d="M323.92,338.81c9,11-4.05,42.6-26.89,53.77-13.09,6.4-34.23,8.47-41.39-2.16s3.09-28.66,11.59-37.81c16.6-17.85,47.94-24.53,56.69-13.8"/>
      <path id="path842" class="cls-24" d="M443.83,403.49c-4.32,16.48-35.71,22.07-56,20.35-3.53-.31-39-3.7-43.6-21.8-4.44-17.46,20.81-44.34,48-45.07,29.17-.77,56.26,28.73,51.6,46.52"/>
      <path id="path844" class="cls-24" d="M611.71,406.4c1,20.9-32.61,42.89-62,39.13-20.32-2.6-44.31-18.24-44.11-37,.21-20.48,29.32-36.15,53-36.33,24.2-.2,52.18,15.61,53.05,34.16"/>
      <path id="path846" class="cls-24" d="M677.85,299.56c11.15,12.78,13.64,27.21,16.71,45.06,2.92,16.91,4.07,27.56-2,34.4-12.92,14.55-55.61,6.66-75-18.41-10.71-13.81-12.1-29.93-13.08-41.43-1.34-15.52-2.62-30.45,6-38.32,14.13-12.85,49.34-2,67.38,18.7"/>
      <path id="path848" class="cls-25" d="M510.23,308.46c.2,13.82-19.81,26.92-37.14,24.34-12.23-1.82-27-12-26.35-25.24.64-12.92,15.6-21.18,26.89-22.54,16.81-2,36.4,9.9,36.6,23.44"/>
      <path id="path850" class="cls-25" d="M561.52,244.74c.12,5.92-11.92,12.48-22.74,12.67-18.25.31-35-17.45-32.45-24s25.58-2.73,27.84-2.33c8,1.4,27.2,6.23,27.35,13.65"/>
      <path id="path852" class="cls-25" d="M666.86,327.6c-.56,15.92-12.91,34.58-27.56,34.46-15.53-.14-25.16-21.32-27.57-34.46-3-16.19,1.64-38.58,13.79-42.58,15-4.93,42.22,17.91,41.34,42.58"/>
      <path id="path854" class="cls-25" d="M576.83,386.77c4.25,11.52-24.32,41.49-44.33,34.88-7.73-2.55-14.8-10.76-14.54-18.89.4-12.54,18-19.71,26.89-21.8,11.51-2.72,29.17-1.8,32,5.81"/>
      <path id="path856" class="cls-25" d="M411.13,373.69c2.92,8.25-12.06,23.21-28.34,27.39-11.61,3-27.92,1.53-30.53-5.59-3.07-8.37,12.82-24.76,30.53-28.35,10.66-2.16,25.86-.46,28.34,6.55"/>
      <path id="path858" class="cls-25" d="M317.38,348.25c.4,2.72-4,5.39-21.81,14.53-22.48,11.54-33.74,17.27-34.88,16C257,374.64,273,345.44,296.3,342.44c9.36-1.2,20.47,1.76,21.08,5.81"/>
      <path id="path860" class="cls-27" d="M231.49,449.52s-13.34,6.76-20.42,21.05c0,0,2.61,7.92,8.43,10.39,0,0-.35-14.15,12-31.44"/>
      <path id="path862" class="cls-27" d="M252.62,505.4a238.56,238.56,0,0,1,12.43-21,88.62,88.62,0,0,0,.22,26.86s-9,1.22-12.65-5.86"/>
      <path id="path864" class="cls-27" d="M316.82,527.24s6.77-10.14,10-21c0,0,4.47,12.85,3,23.92,0,0-5.53,4.58-13-2.88"/>
      <path id="path866" class="cls-27" d="M397.23,540.66s6.39-11.34,7.36-20.84c0,0,5,10.95,5,22.08,0,0-5.57,3.62-12.33-1.24"/>
      <path id="path868" class="cls-27" d="M481.66,545.1s6.5-10.08,8-26.54c0,0,7,16.89,7.21,26.28,0,0-6.7,5.6-15.17.26"/>
      <path id="path870" class="cls-27" d="M552.69,540.76a46.64,46.64,0,0,0,6-24.74s7.79,12.36,8,22.64c0,0-6.36,4.44-14,2.1"/>
      <path id="path872" class="cls-27" d="M621.16,502.57s1.94,9,0,25c0,0,11.82,1.26,15-4.47,0,0-3.37-10.84-15-20.52"/>
      <path id="path874" class="cls-27" d="M698.7,466.21s2.9,9,5.56,25.71c0,0,11.78-1.83,14.24-9.76,0,0-8.71-13.76-19.8-16"/>
    </g>
  </g>
</svg>
